<?xml version="1.0" standalone="no"?>
<!DOCTYPE svg PUBLIC "-//W3C//DTD SVG 1.1//EN" "http://www.w3.org/Graphics/SVG/1.1/DTD/svg11.dtd" >
<svg xmlns="http://www.w3.org/2000/svg">
<metadata>
This is a custom SVG webfont generated by Font Squirrel.
Copyright   : Typeface  Kimberly Geswein 2007 All Rights Reserved
Designer    : Kimberly Geswein
</metadata>
<defs>
<font id="webfontzm1gSw5x" horiz-adv-x="1139" >
<font-face units-per-em="2048" ascent="1638" descent="-410" />
<missing-glyph horiz-adv-x="569" />
<glyph unicode=" "  horiz-adv-x="569" />
<glyph unicode="&#x09;" horiz-adv-x="569" />
<glyph unicode="&#xa0;" horiz-adv-x="569" />
<glyph unicode="!" horiz-adv-x="569" d="M135 1712l112 -7l35 7l28 -7l21 7l63 -7h84v-28l-7 -7l7 -7v-7l-14 -336l-14 -21l7 -49v-77q0 -70 -14 -70l7 -35q-7 -308 -28 -308l14 -42l-7 -105h7l-7 -7v-56q0 -133 -35 -133l-28 -7l7 -7v-7l-14 -14h-203l-21 14l-28 672l7 7v7l-14 182q51 23 56 49h-14v-14h-14 q-35 16 -35 70v7l14 49q30 -28 56 -28l7 7h7l-7 7v7q0 14 84 21l-7 21h-21l-7 -7h-7v7l-49 -14l-14 21l14 14h119l7 21l-7 7l-28 -7l-21 7l-35 -7q-105 0 -105 21v35h49v21q-56 11 -56 42l7 7v7l-14 35q0 42 56 42zM163 1495h14v-7h-14v7zM107 1481h14v-28h-7l-7 7h-7z M268 1439l35 -14l42 7v7q0 14 -49 14v7q-28 -10 -28 -21zM373 1432h14v14zM205 1117v-28l28 -28h7v14q0 36 -21 42h-14zM177 1096v-21h14v21h-14zM352 1061h28v14h-14zM198 781h14v14zM219 424v-14h14v14h-14zM128 305h301l21 -21v-70q0 -35 -14 -35l14 -42v-168l-21 -21 h-280q-42 0 -42 49l7 154l-7 140zM324 256l7 -7h7l28 7v14h-28zM233 179v-14h77v14h-77zM247 144l-7 -21h14v-7l35 21v7h-42z" />
<glyph unicode="&#x22;" horiz-adv-x="682" d="M77 1588h179l21 -21v-287l-7 -35h-57l7 -42q57 -47 57 -161l-14 -21l-64 28q-179 90 -179 399l7 140l22 7zM409 1561h179l21 -21v-287l-7 -35h-57l7 -42q57 -47 57 -161l-14 -21l-65 28q-178 90 -178 399l7 140l21 7z" />
<glyph unicode="#" horiz-adv-x="1278" d="M512 1563l28 -7h14l7 7l7 -7h42l7 -21q-20 -77 -35 -77l7 -35l-42 -280h7l35 -7l84 7h175q24 0 56 266q26 147 49 147l21 7q84 -5 84 -14l7 7h21l14 -14q-12 -105 -28 -105l7 -7v-7q-18 -133 -28 -133l7 -7v-7l-21 -70h7l-7 -7v-56h126l21 -21v-168l-21 -21h-154 q-19 0 -63 -315v-7h14v-7l7 7h49l70 -7l42 7q56 -4 56 -21v-168l-21 -21h-252q-70 -397 -84 -413h-140l-21 14l70 399h-140l-7 -7l-7 7h-161q-65 -380 -84 -413h-140l-21 14l70 371q-14 32 -28 35l-21 -14l-7 7h-91l-7 35v154l21 21h161q19 0 63 322h-224q-17 0 -21 28l7 63 h-7l7 7v7l-7 77v7q0 18 84 21l28 -7l77 7h91q58 331 77 371l-7 21l7 21h35zM540 1465v-21h14v7zM456 611l7 -7l42 7l63 -7v7l7 -7h7l70 7l56 -7v7l7 -7h7q63 0 63 77l42 231l-14 21l-56 7l-49 -7l-28 7l-77 -7h-28l-42 7q-37 0 -77 -329z" />
<glyph unicode="$" d="M476 1841h133q17 0 21 -56l-7 -56h7l-7 -7v-28q81 0 161 -56v-7h-35v-7h49q0 -21 14 -21l-7 -7v-7l14 -14l35 7l7 -7v-7l-14 -14h-35l14 -77h14l7 28h14v-21h14l14 42q70 -87 70 -245l7 -21q-7 -84 -28 -84h-84l-70 7l-7 -7v7l-7 -7h-70l-28 7l-28 -7h-35l-14 14v42 q0 35 21 35v49l-7 -7h-7l-7 7h-7l14 63h-14v21h7v-14h21v35h42v14l-7 35l7 7h21l21 -7v7l7 21l-7 7h21l7 -28l-7 -49h14l7 7h7l-7 49v14l7 7l-7 42h-14l-7 -35h-21q0 42 -14 42t-14 -42h-14l7 35l-21 14l-56 -42v-35l14 -14l14 28h-7l7 21h7l21 -56q0 -14 -56 -21v-21l7 -7 v-7h-7q-14 0 -28 56l7 28q0 28 -35 28l-28 70h-21v-7h14l-7 -7l7 -21l-14 -35l7 -7l-7 -7h-7q0 42 -14 42h-21v-21h-7q0 21 -21 21l-7 -7v-21h35v-7h-14v-7q28 -3 28 -49q0 -21 -35 -21l7 -21l-7 -35v-28h7q14 0 14 42l21 -21v-126q0 -55 91 -147l7 -35l-21 14h-7l-7 -42h35 l14 -14l-14 -21v-7l21 -7l14 70l-21 21v7h7q385 -258 385 -406q35 -111 35 -196q0 -417 -245 -511l-7 7q0 -33 -119 -56l-21 -84l14 -56v-21h-21l-7 7l-42 -14h-77l-21 21v98l7 7q-7 56 -21 56h-7l-7 -7q-177 56 -259 182q-63 114 -63 259v28h35v49h-14q-5 -35 -21 -35l-7 7 v56l-7 70l21 14h217l77 -7l42 7l14 -21l-7 -21l7 -84v-140q10 -112 49 -112q79 0 91 126q0 217 -70 294q-147 114 -147 140v14h-14v-14h-7q-273 167 -273 518v35q0 281 280 385l84 14v126zM707 1631l7 -21h21l7 21h-35zM350 1589v-28h7l14 14zM462 1589v-14l14 14h-14z M721 1589v-14h21l21 7v-7l7 -7l-7 -7v-21l7 -35h7l21 21l-14 42l7 21h-70zM308 1540l7 -21h21v42h-7zM847 1526h14v-14h-14v14zM525 1505h14v-35l7 -7v-7h-21v49zM476 1477l21 -7v-7l-14 -14l-7 7v21zM812 1456v-21l21 -7l7 7v14l-7 7v7zM770 1456v-28h21v28h-21zM434 1428 h14v-21h-14v21zM728 1407q0 -14 -28 -14l-7 -7v-7l35 -14l21 7v14zM343 1358l-21 -70q14 -42 28 -42l14 21v14l-7 7l7 49l7 -7h14v28l-7 -7h-7zM700 1358v-14h7v14h-7zM301 1309v-49h7v49h-7zM427 1281v-21h7v21h-7zM749 1246v-14l14 -14h14v7l-21 21h-7zM427 1239v-21h14 l-7 21h-7zM350 1141l7 -7h7v21zM357 1085l-14 -21l14 -14h21v14zM483 1043v-7h14v-7l21 7l-21 21zM532 994v-14h21v28h-7zM434 952l28 -14l14 14h7q14 0 14 -21h21v42l-21 7l-7 -21q-17 0 -21 28h-7zM455 924l-7 -7v-35h21v14h7q-10 28 -21 28zM504 917v-7l7 -35h7v42h-14z M413 889v-14h-7l7 -21h7l14 14v21h-21zM371 882v-7l-7 -84l7 -7h14v98h-14zM511 721v-14h14v14h-14zM658 511l-7 -7v-7h21zM819 224v-14h14v14h-14zM777 182v-35h14v35h-14zM819 175v-14l14 14h-14zM777 84v-7l7 -7v-7h-7l7 -42l21 21l-14 42h-14zM735 42l7 -21h7v35z M518 35v-21h14v7zM476 -112v-28h7l14 14v14h-21zM574 -161v-7h14v7h-14z" />
<glyph unicode="%" horiz-adv-x="1334" d="M337 1667q266 0 266 -322l7 -140q0 -434 -84 -434q0 -34 -168 -70l-7 7h-28q-190 0 -245 175l-14 161v91l7 322l28 49l-7 7v7q59 147 217 147h28zM1023 1667v-7l-567 -1813l-7 -7h-112l-14 14l567 1806l7 7h126zM295 1443v-301l7 -7l-7 -7v-7l7 -245l21 -14h21 q28 9 28 63v546q0 42 -42 42q-35 -10 -35 -70zM995 820h7q191 0 259 -161q21 -96 21 -231v-196l-7 -28l7 -7v-7q0 -228 -119 -301q-72 -35 -175 -35q-49 5 -49 21l-21 -7q-168 60 -168 196l-14 413q0 343 259 343zM974 638v-602l21 -21h28q21 7 21 42v560q0 36 -21 42h-28z " />
<glyph unicode="&#x26;" horiz-adv-x="1141" d="M463 1468h35q243 0 322 -266q14 -28 21 -126q0 -122 -112 -315q102 -266 133 -266l175 133l14 -14v-245q0 -28 -98 -105v-7l112 -280l-7 -7h-287q-45 0 -70 84h-21q-188 -126 -301 -126q-221 0 -308 266q-21 75 -28 175q0 244 196 350v7q-133 140 -133 322v21 q0 271 224 371q70 28 133 28zM421 1139q0 -103 63 -182h21q20 0 42 140v49q0 60 -49 84h-35q-28 0 -42 -91zM414 922v-7l7 -35l-7 -28q6 -63 21 -63v56l-7 42l7 7v7l-7 21h-14zM757 901l-7 -7v-7h35v7zM568 880q4 -42 21 -42v42h-21zM372 845l7 -7h14v21h-7zM393 754l-7 7 v-28q0 -14 28 -14l7 -7v-7l-7 -28h7q15 0 21 63l-7 28zM463 740l14 -49l14 14l-7 35h-21zM386 684l-7 -21l7 -7l21 7v21l-7 -7h-7zM477 670v-7h14v7h-14zM435 488q-49 -81 -49 -133q0 -133 77 -133h7q74 0 98 56l-112 210h-21z" />
<glyph unicode="'" horiz-adv-x="455" d="M122 1489h238v-147l7 -42q0 -266 -217 -371h-21l-14 14v70q0 20 56 98l7 28q-63 10 -63 28l7 140h-7l7 7v7l-7 140z" />
<glyph unicode="(" horiz-adv-x="682" d="M406 1645h140l21 -21v-84l-7 -77l7 -35l-21 -14h-49q-70 0 -70 -119v-364l-14 -49l14 -42v-7l-21 -42l14 -14v-63q0 -35 -14 -35l14 -42v-77l7 -7l-14 -28l14 -42l-42 -14v-7l28 -7v-7l-21 -28q35 -7 35 -28v-14h-7l7 -49v-105l7 -35l-35 -7v-14q43 0 56 -42 q77 -7 77 -21l7 7h21l7 -70v-14l-14 -56l14 -42v-21q0 -21 -126 -21h-21q-227 0 -294 119q-28 82 -28 182v273l-7 21l7 35v322l-7 112l7 28l-7 35l7 42v14h-7l7 70v210q0 193 98 252q98 42 210 42zM133 798v-21h7v21h-7zM231 791v-7h14v7h-14zM168 707v-14l21 -7v28z M231 707l-7 -7v-7l14 -14q-12 0 -21 -35q-28 7 -28 35h-14v-14l7 -7v-7h-14v-21l14 -14l35 7l21 -28l-7 -7l7 -21h14v7l-7 35q11 0 21 28q-15 0 -21 63l-7 7h-7zM133 686v-49l14 -14v63h-14zM336 574v-14h7l14 14h-21zM238 532v-14h-7l7 -7v-21l-14 -21v-7q0 -38 28 -49 l14 42h7v21q-21 0 -21 14v42h-14zM175 462q11 -28 21 -28q16 0 21 35l-7 7h-21zM336 462v-7l42 7v14h-28zM336 427v-14h7l21 7v21h-14zM350 287l7 -7h7v21zM343 259v-21h7l14 14zM343 182v-14h21v14h-21z" />
<glyph unicode=")" horiz-adv-x="617" d="M121 1684q413 0 413 -182l14 -49l-7 -28l14 -84l-7 -77v-21l7 -126l-7 -63l7 -28l-7 -42l7 -7v-7l-7 -7l7 -84v-546q0 -319 -91 -357q-82 -56 -224 -56h-140l-21 21v189l21 21h49q70 0 70 84v1106q-4 105 -49 105h-70l-21 21v126q0 91 35 91h7z" />
<glyph unicode="*" horiz-adv-x="797" d="M387 921h112l7 -35l-7 -35v-98h28q67 42 98 42q24 0 42 -126h-7q-112 -52 -112 -63v-14q70 -113 70 -133l-84 -70h-7q-28 72 -77 126h-7l-91 -126q-40 24 -84 77v7q70 96 70 140l-126 70l35 112l133 -42l7 7v63l-7 77zM415 669v-14h14v14h-14z" />
<glyph unicode="+" horiz-adv-x="1196" d="M519 1317l189 -7l14 -21v-70l-7 -63l7 -70v-91l-7 -70h308l21 -21v-231l-21 -21h-294l-14 -14l7 -308v-28q0 -42 -42 -42h-105q-77 0 -77 21v371h-273l-7 7l-7 -7h-14l-21 21v231l14 21l7 -7l56 7l91 -7l154 7v371z" />
<glyph unicode="," horiz-adv-x="569" d="M347 362l21 -7l7 -140q0 -309 -175 -399l-63 -28l-14 21q0 114 56 161l7 42h-56l-7 35v287l21 21h175z" />
<glyph unicode="-" horiz-adv-x="682" d="M97 861l56 -7l28 7l35 -7l7 7h7l7 -7l84 7h203l35 -7l7 -105v-175l-21 -21h-287l-42 7l-28 -7l-7 28h-14q0 -28 -14 -28l-7 7h-7l-35 -7l-14 21v203l-7 70zM251 826v-70q0 -14 -28 -14l-7 -21l7 -7l7 7h7l28 -21l14 42l-7 7h-7l7 21l-7 56h-14zM209 588v-21h14v21h-14z " />
<glyph unicode="." horiz-adv-x="569" d="M185 344l84 -7v7l7 -7h7l49 7q91 -5 91 -21v-322l-21 -21h-238l-21 21v301q0 42 42 42z" />
<glyph unicode="/" horiz-adv-x="769" d="M543 1806l28 -7l21 7l7 -7h7l56 7l77 -7q-122 -560 -147 -560v-56q0 -37 -21 -63v-7l7 -7q-252 -1077 -273 -1127l-28 -7h-224l-14 14q371 1589 441 1813zM550 1365v-91l14 14v77h-14zM550 1183v-14l14 -14v28h-14z" />
<glyph unicode="0" horiz-adv-x="953" d="M458 1763h7q203 -12 203 -63l35 7q210 -111 210 -462v-154l7 -7q-12 -49 -21 -49l14 -42v-7l-7 -35l7 -42v-35q0 -36 -21 -42l7 -49v-112l14 -21l-7 -42l7 -7v-7l-7 -21l14 -56l-7 -28v-14h7q-23 -317 -77 -350q0 -51 -147 -147h-14q-14 0 -21 56h-7l-7 -7v-7l7 -42 q0 -42 -168 -42h-42q-25 0 -56 28l-14 -14q-14 0 -14 42h-21q0 -28 -14 -28q-113 33 -175 133q-91 145 -91 336l7 7v7l-7 147v35q2 49 14 49l-14 42l7 56l-7 21h7l-7 21l7 21h-7l14 35l-14 14v77l7 49h-7l7 7v7l-7 154q7 210 21 210h-7l21 35v49q0 122 182 238q95 42 126 42 l14 -14q7 21 42 21zM409 1735v-14h7v14h-7zM290 1658l21 -7q23 7 28 28l-21 7q-23 -7 -28 -28zM710 1637v-14l14 -14h7v42h-7zM626 1644v-14h-7l7 -21l14 14v7zM367 1630v-14h14v14h-14zM759 1616v-7h14v21zM626 1602v-21h7v21h-7zM192 1595v-21h14v21h-14zM458 1581l7 -49 h14v56h-7l-7 -7h-7zM745 1539l-7 7h-7l-14 -14v-21l7 -70l7 7h7l-7 7v14q0 38 28 49h7v-28l7 7h7l-7 21l14 21l-14 35h-7q-12 0 -21 -35zM108 1490l21 -21v35h-7zM290 1490v-7h14v21zM332 1504v-21h56v21h-56zM423 1497l-7 -7v-7l7 -7h-7l14 -84l-14 -84l14 -126l-14 -84 l14 -42v-14q-21 -18 -21 -42h-7l21 -175l-7 -21l7 -77v-105l-14 -14l-7 7h-7l-21 -7l14 -21v-35l-7 -7l7 -7v-14q0 -35 -14 -35l14 -35l-7 -21h-7l-7 7h-7l-7 -49v-7h14l21 14l42 -98l-21 -21q23 -55 49 -70h49q29 15 49 63l-7 35l7 49l-7 7v7l7 7v7l-7 42l7 42l-7 175v21 l7 77l-7 28l14 21l-7 35v14h7l-7 35v98l7 28l-14 70l7 35v42l-7 28l7 7v7l-7 98l7 21l-7 7v7l7 21l-7 49l7 28q-17 77 -77 77l-42 -14zM682 1497v-35l14 -14h7v14l-7 35h-14zM381 1427v-7l14 -14l7 7v14h-21zM773 1427v-7q44 0 49 -56h14v49l-14 14h-49zM339 1357v-49h-14 l-21 14l-7 -7v-21l14 -49h14v14l-7 7l7 35h14l7 -28h14v49l-7 35h-14zM605 1329v-7h14v21zM87 1315v-56h21l-7 28l7 21l-7 7h-14zM171 1301h14v14zM388 1315v-14l14 -14l7 21l-7 7h-14zM178 1280v-21h7v21h-7zM262 1245v-91h14v7l-7 21l14 14v14l-7 49zM87 1231v-49l14 -14 l14 14q-7 49 -21 49h-7zM871 1224v-21h7v21h-7zM703 1140q0 -21 -35 -21q0 -28 -42 -28v-49l7 7h7l-7 7v14h14l21 -14h14l7 28l21 -7v-14l-7 -70l7 -42l-7 -7l7 -7h7l14 70l-14 28l7 42h-7l7 7v42l-14 14h-7zM276 1056l-7 -7v-7l14 -14h14v7zM850 1056v-7l14 -14h7v21h-21z M759 1049v-7l14 -14h7v21h-21zM801 1007v-14l7 -7v-7l21 7v7l-14 28zM367 1014v-91l28 21l-7 35l7 21zM626 1007v-21h14v21h-14zM745 1007v-21h21l14 14l-7 7h-28zM318 930l7 -7h-7l7 -21h21v98h-7q-16 0 -21 -70zM675 1000v-14h7v14h-7zM759 965l-7 -21h28v21h-21zM808 951 v-7h21v7h-21zM290 916v-14h7v14h-7zM241 902v-14h14v14h-14zM682 839v-14h14v14h-14zM864 832l-7 -7v-7l14 -175h7v175zM318 790l28 -14v35h-7zM633 797l14 -14l7 7v7h-21zM815 783l14 -14v28zM80 783l-7 -35l7 -7h7l7 21l-7 21h-7zM192 762l21 -112l-7 -7h-7q7 -49 21 -49 l7 7v7l-7 119l7 28l-7 21h-7zM115 755l-7 -42l14 -14l-7 -28h21l-7 84h-14zM157 741l14 -14l14 21v7h-14zM815 741v-7h14v21zM80 734v-7l14 -14l7 7v7l-7 7h-14zM822 706v-98h14l-7 21l7 21l-7 42l7 7l-7 7h-7zM717 692l-7 -21q21 0 21 -28h21v7q0 36 -21 42h-14zM80 685 v-56l7 -7v-7l7 7h14l7 -7h7l-7 -7v-21h28v35l-7 35h-7l-21 -14h-7l-7 42h-14zM339 664l-7 -21l-84 14l-7 -21h14l-7 -35l7 -7l21 14l-7 21h7q21 0 42 -28l35 -7l7 7v7l-14 21l7 28l-7 7h-7zM87 608v-21h21v7l-14 14h-7zM409 601h7v-28h-14v7zM339 538v-21h7l14 14v7h-21z M206 503l7 -7v-21l-7 -49l28 -7v7l-7 84h-7l-7 -7h-7zM269 489v-14l7 -7l-7 -7v-28l7 -7l-7 -7v-21l14 -14l7 7v21l-7 7l7 7l-7 49v14h-14zM794 468l7 -7h42v14l-14 14h-14zM801 412v-14h14v14h-14zM416 230v-28h7v28h-7zM605 97v-14h14v14h-14zM339 34v-21h14v7zM507 20 l14 -14l14 14l-14 14z" />
<glyph unicode="1" horiz-adv-x="741" d="M453 1632h196l7 -21l7 -588q0 -98 -14 -98l7 -35v-175l7 -7l-7 -7v-7l7 -189l-7 -70l7 -42l-7 -210l7 -294l-21 -14h-287q-54 0 -63 28v98l7 42l-7 70v560q0 35 21 35v21q-21 0 -21 28v14h7l-7 49v161q0 161 -98 161l-98 7h-21q-16 0 -21 35l7 49l-14 84q0 52 133 77 q138 73 273 238zM614 1492v-21l14 14l-7 7h-7zM614 1464v-21h14v21h-14zM390 1422v-14h14v14h-14zM502 1002v-14h14v14h-14zM558 925l-7 -7v-7l14 -14h7v14zM341 771v-21l14 14l-7 7h-7zM341 120v-21h7v21h-7zM341 85v-42q14 0 14 21l-7 21h-7zM474 71v-42l14 -14v56h-14z M481 -6v-21h14l-7 21h-7zM481 -34v-28h7v28h-7z" />
<glyph unicode="2" horiz-adv-x="941" d="M452 1772q310 0 420 -259q35 -120 35 -217q0 -287 -427 -994v-21h84l21 -7l35 7h231l21 -21v-259l-21 -21h-756l-21 21v98l-7 42l7 35l-7 7v7q0 31 329 693q161 319 161 455v63q0 69 -56 98h-42q-56 0 -56 -245l-7 -105l-21 -14h-231q-60 0 -77 21l21 56l-14 42v42 q0 363 266 462zM592 260v-14h7v14h-7zM410 239l-7 -21l7 -7h14v7l-7 21h-7zM592 225v-14h7v14h-7zM508 197l-14 -35h28l-7 35h-7zM368 190v-21h14v7zM319 183l-7 -21l7 -7h7l14 14z" />
<glyph unicode="3" horiz-adv-x="961" d="M414 1691h112q144 0 266 -91q70 -66 70 -189h7v28q32 0 42 -182v-77q0 -181 -140 -280v-7q147 -72 147 -294l7 -196l-7 -56l7 -28q0 -200 -119 -350q-103 -105 -336 -105q-96 0 -182 42l7 21q-10 28 -21 28l-7 -35h-14q-124 84 -161 210l7 7q-35 126 -35 448l21 14h252 l42 -7l35 7l21 -21l-7 -21l7 -84v-56l-7 -77l7 -7v-7l-7 -7q9 -189 28 -189q98 0 98 70q0 98 14 98l-7 28l7 105l-7 112l7 7v7q-28 161 -112 161v7l-7 -7q-105 0 -105 63v182l21 21h56q140 0 140 126l7 35v140l-7 7l7 7v7l-21 126q-14 -14 -91 -21l-42 -140q11 0 21 -28 l-7 -7h7l-7 -7v-98l-21 -21h-77q-35 0 -35 14l-21 -14l-7 7h-14l-28 -7l-7 7h-7l-77 -7l-28 14l-28 -7q-14 44 -14 133q0 441 350 441zM715 1530v-35l14 -14l7 7v35zM680 1488v-14h7v14h-7zM582 1481l-7 -7l7 -63l21 14q-4 56 -21 56zM533 1446v-7h14v7h-14zM778 1418v-14 l14 -14v28h-14zM645 1208v-21h7v21h-7zM449 774v-28h7v28h-7zM750 319v-14h7v14h-7zM659 256v-14h14v14h-14zM169 172v-56h14v42zM400 95v-14h14v28zM358 95v-28h7v28h-7zM176 18v-21h14v7zM260 18v-14l14 -14v14zM316 11l-7 -7v-14l14 -14l7 7v14z" />
<glyph unicode="4" horiz-adv-x="1001" d="M576 1684l35 -7l126 7l105 -14l7 -28v-1099l14 -14h70l21 -21v-217q0 -54 -28 -63h-7l-28 7l-42 -7v-287l-21 -21h-322l-21 21v14h7l-7 84v119l7 7l-7 7v56h-308l-42 7l-35 -7h-28l-21 21v196l7 7l-7 7v21q28 159 252 959h35l-14 42l7 7h-7q28 153 49 189q61 -7 77 -21 l14 14h42q70 0 70 14zM443 1565v-21h14v7zM506 1544v-35h7v35h-7zM744 1299v-35l14 -14v49h-14zM331 529h154v693q-19 0 -119 -511q-35 -136 -35 -182zM618 1180v-21l14 14v7h-14zM730 641q14 -21 14 -56h14v77h-14q-14 0 -14 -21z" />
<glyph unicode="5" horiz-adv-x="985" d="M141 1679l21 -7l42 7l140 -7l49 7l21 -7l21 7l84 -7h231l7 7l7 -7h91l14 -14v-77l7 -175l-21 -14h-133l-7 7l-7 -7h-287l7 -175v-98h14q84 98 210 98q246 0 280 -329l14 -126l-7 -7v-7l7 -77v-14l-7 -56l7 -77q0 -469 -133 -546q-108 -98 -287 -98h-28q-336 0 -406 343 q-21 101 -21 252v84l21 21h308l35 -7l7 -105v-182q0 -133 70 -133q63 0 63 126l7 70l-7 70v28l7 56l-7 77v252q0 112 -70 112q-63 0 -63 -133q-7 -28 -42 -28h-287l-35 7l7 728l7 56l-7 7q0 91 35 91z" />
<glyph unicode="6" horiz-adv-x="969" d="M472 1691h56q112 0 112 -35h-7l7 -21h21v28q122 0 231 -203q42 -140 42 -259l-21 -14h-329l-21 21v140q0 45 -49 70h-42q-42 -24 -42 -63v-105l-7 -133l7 -112v-28h7q91 95 182 105q211 0 294 -231q21 -113 21 -294v-49q0 -479 -126 -532q-93 -112 -322 -112 q-280 0 -385 252q-42 68 -42 385v644q0 424 259 518q102 28 154 28zM591 1565v-14h21v14h-21zM591 1488l21 -14h21v14l-14 14h-14zM423 585l7 -21l-28 -91v-14l7 7h14v-14h7l-7 -7v-133q5 -175 49 -175h21q61 0 70 91v217l7 210q0 147 -70 147h-28q-49 0 -49 -217zM290 214 h14v14z" />
<glyph unicode="7" horiz-adv-x="837" d="M187 1632h21l77 -7l7 7l49 -7h70l126 7l70 -14l63 14l98 -7l7 -35v-315l-7 -7l7 -7v-7l-35 -154h7l-63 -343h-21v14h-14l7 -7v-7h-35q0 28 -14 28l-28 -14v14h-7l-14 -14v-7q28 -3 28 -21l-14 -14v-14l21 -7l56 14h7l7 -35v-42l-7 -42l7 -21l-126 -707l-7 -7h-329l-21 14 l161 875q14 0 14 28h-7l49 56l-7 7l-7 -7h-14l-7 7h-7l77 462h-161l-7 7l-7 -7h-161l-21 21v28l7 56l-7 77v98l7 35zM530 1268v-7l35 -7l7 7v7h-42zM551 799v-7h7q56 4 56 21v28h-7zM474 834v-28h14v28h-14zM516 778v-14h21v14h-21zM425 722q0 -42 42 -42h28v77h-14 q-37 -35 -56 -35zM530 743v-14h21v14h-21z" />
<glyph unicode="8" horiz-adv-x="965" d="M555 1744q151 0 266 -133q84 -123 84 -308v-63q0 -192 -140 -287v-7q154 -71 154 -427v-105q0 -388 -245 -469l-70 -14l-7 7v7l7 63l-7 28h-7q0 -14 -35 -14v-63l-14 -28q-21 0 -21 21h-14l-7 -28h-105l-49 14v-7q-154 47 -224 161q-37 41 -63 238l-7 210l7 49h-7 q28 273 70 273q0 14 70 84v7q-126 106 -126 322q0 354 224 427l7 -7q16 42 112 42h105zM373 1695v-91q42 16 42 28v14l-14 14l-7 -7v42h-7v-35h-7v35h-7zM471 1625l14 -14v14h-14zM429 1401v-147l-7 -70q0 -133 70 -133q56 0 56 154l-7 42l7 28q0 196 -42 196h-42 q-35 -16 -35 -70zM415 540l7 -84l-7 -42q0 -224 63 -224h28q44 0 49 140l-7 7l7 49v112q0 259 -49 259h-49q-42 0 -42 -217zM625 106l7 -21l21 21l-7 7h-7l-7 -7h-7zM625 64v-7h14v21zM576 -34h7v-14h-7v14z" />
<glyph unicode="9" horiz-adv-x="961" d="M428 1722q333 0 427 -217q42 -82 56 -273l-7 -7l7 -105v-420l-7 -203l7 -42l-7 -42l7 -7l-7 -35v-42q0 -310 -287 -413q-56 -21 -119 -21h-42q-420 0 -420 490l21 14h308q42 0 42 -42v-28l-7 -77q13 -84 77 -84q63 0 63 77v119l7 119h-7l7 21l-7 105h-21 q-56 -98 -182 -98h-14q-141 0 -238 154q-49 99 -49 259q0 119 28 140h-14v35l35 -7l7 7v28l-14 21l-28 -14l-14 21l7 70l-7 21q0 350 245 448zM400 1288v-21l7 -98l-7 -21l7 -49l-7 -42l7 -35l-7 -21l7 -77v-70q0 -45 49 -70h21q70 0 70 175v189l-7 63l7 7v7q0 224 -63 224 h-28q-56 0 -56 -161zM78 1064v-7h14v7h-14z" />
<glyph unicode=":" horiz-adv-x="569" d="M169 1321l84 -7v7l7 -7h7l49 7q91 -5 91 -21v-322l-21 -21h-238l-21 21v301q0 42 42 42zM193 681l84 -7v7l7 -7h7l49 7q91 -5 91 -21v-322l-21 -21h-238l-21 21v301q0 42 42 42z" />
<glyph unicode=";" horiz-adv-x="569" d="M124 1120h35l84 -7v7l7 -7h28l7 7l7 -7h84l7 -35v-21l-7 -28l7 -7v-7l-7 -147v-63l7 -7q-14 -42 -28 -42h-42l-63 7l-70 -7h-56l-21 21v322zM320 973l-7 -7v-21h21v14zM222 966v-21h7l14 14l-7 7h-14zM124 315h238v-147l7 -42q0 -265 -217 -371h-21l-14 14v70q0 20 56 98 l7 28q-63 11 -63 28l7 140h-7l7 7v7l-7 140z" />
<glyph unicode="&#x37e;" horiz-adv-x="569" d="M124 1120h35l84 -7v7l7 -7h28l7 7l7 -7h84l7 -35v-21l-7 -28l7 -7v-7l-7 -147v-63l7 -7q-14 -42 -28 -42h-42l-63 7l-70 -7h-56l-21 21v322zM320 973l-7 -7v-21h21v14zM222 966v-21h7l14 14l-7 7h-14zM124 315h238v-147l7 -42q0 -265 -217 -371h-21l-14 14v70q0 20 56 98 l7 28q-63 11 -63 28l7 140h-7l7 7v7l-7 140z" />
<glyph unicode="&#x3c;" horiz-adv-x="1196" d="M1024 1186h7v-245q0 -50 -147 -98l-378 -196l518 -259l7 -28v-238l-14 -14l-511 266l-7 21l-35 -7q-292 144 -301 161v196q21 37 861 441zM618 402v-21h14v21h-14zM527 395v-14h14v14h-14z" />
<glyph unicode="=" horiz-adv-x="1196" d="M184 973l182 -7l7 7h7l7 -7h7l56 7l28 -7l105 7h399q42 0 42 -42v-210l-21 -21h-826l-21 21v28l7 63l-7 70v49q0 35 28 42zM177 553h686q49 -2 49 -14l56 14h35l21 -21v-210l-7 -35h-42l-7 -7l-7 7l-245 -7h-126q-119 0 -119 14l-7 -7h-35l-49 7l-196 -14q-28 7 -28 42 v28l7 126l-7 63zM681 434v-14h21v14h-21zM450 350v-21h21l7 21h-28z" />
<glyph unicode="&#x3e;" horiz-adv-x="1196" d="M148 1258h7q795 -382 861 -434v-182q0 -46 -168 -112l-693 -350l-7 7v245q0 48 140 91q373 187 385 203q-519 247 -525 266v266z" />
<glyph unicode="?" d="M591 1815q293 0 392 -287q34 -69 49 -315l-7 -63v-42l7 -77l-7 -28l7 -21q0 -330 -175 -427q-65 -35 -133 -35q-94 0 -182 98h-7v-119q0 -42 -42 -42h-280l-21 21v427l7 35h35l7 7l7 -7h28l7 7l7 -7h175l7 7l7 -7h42q0 -98 70 -98h7q49 0 49 140v504q0 70 -56 70 t-56 -140v-189l-21 -21h-42q-42 0 -42 42h-7q0 -42 -21 -42h-119l-28 7l-28 -7h-35l-21 21q2 35 14 35l-14 35l7 42h7l7 -77h7l7 49v63l-7 7v7l-7 -7h-14v7l21 70l-7 35q0 158 217 280h7l21 -7q0 38 154 49zM178 1367h7v-21h-7v21zM213 373h301l21 -21v-315l-21 -21h-301 l-21 21v231l7 7l-7 7v70z" />
<glyph unicode="@" horiz-adv-x="1622" d="M899 1847l35 -7l7 7q306 0 497 -308q119 -197 119 -441q0 -582 -392 -742q-56 0 -56 -14q-102 0 -161 119q-107 -119 -203 -119l-21 21l-28 -14q-111 0 -210 210q-35 94 -35 287q36 534 322 644l70 14q91 0 196 -140q19 98 42 98l70 7h63l21 -14l-119 -882q7 -42 21 -42 h28q259 109 259 532v35q0 398 -336 560l-189 28q-113 -14 -238 -70q-336 -218 -336 -763q0 -431 322 -658q117 -63 245 -63h42q226 0 448 203h154l7 -7h7q-139 -232 -448 -336l-175 -28q-474 0 -672 532q-42 107 -63 343q15 739 476 959q99 35 231 49zM633 776v-21 q17 -252 126 -252h21q168 0 210 588v42q-16 196 -112 196h-35q-163 0 -210 -553zM1256 510v-14l14 14h-14z" />
<glyph unicode="A" horiz-adv-x="1017" d="M249 1760l49 -7l399 7l63 -7v7q36 0 49 -266l63 -455l-7 -49q28 -119 133 -980l-21 -14h-350q-17 0 -21 28l-14 196l7 21q-5 70 -21 70h-119l-7 -35q0 -257 -35 -280h-7l-56 14l-21 -7l-42 7h-42l-56 -14h-133l-21 14l63 511h-7l140 1232h14v7zM361 1508v-98 q0 -50 -14 -77l7 -49h7q0 24 21 42v189zM515 1291q-49 -535 -70 -616l14 -49h119l-49 665h-14zM326 1207l-7 -49l14 -21l-7 -35l7 -28l-21 -91q14 0 14 -21l-7 -35h14v-21q-35 0 -35 -49l-28 -7v-56l21 -7v56l7 -7h7v42h35v42l7 7l-7 7v28l14 42l-14 84v21q28 0 28 70 q-7 28 -42 28zM333 857l-7 -35v-7l14 -14h7v7l-7 49h-7zM284 563v-21l21 7v7zM347 507l7 -21h7v21h-14zM284 472v-21h35v14zM340 458v-35h7l14 35v14h-7zM382 465v-14h14v14h-14zM284 430v-14h35v14h-35zM340 402v-21h7v21h-7zM277 297v-21h42v21h-42zM277 248v-21h63v-14 l-7 -7v-7l7 -7h7q0 35 21 35l-21 21v7l-7 -7h-63zM340 185v-35h28v21zM340 101v-21l21 7v7zM340 66v-14l14 -14v14z" />
<glyph unicode="B" horiz-adv-x="981" d="M113 1689h28l42 -7l35 7l7 -7v-77l7 -84h7l7 21l-14 140l7 7h203l63 -7l49 7q145 0 266 -98q78 -94 84 -175l7 -7v-21h-21v-42h14v35q21 -4 21 -56v-98l7 -35h-7l7 -21q0 -121 -49 -196l-7 21l7 49l-7 7h-14v-77q0 -41 -56 -63l-14 14h-7q0 -35 -28 -35v-21q21 0 35 -28 l7 7h14q126 -81 126 -189l21 -126l-7 -7l7 -35v-91q0 -349 -112 -420q-23 0 -49 -21h-14l-7 28h-7q0 -56 -140 -56h-42l-21 14l-28 -14l-21 14l-42 -14l-35 7l-77 -7l-63 7l-70 -7h-49l-84 7l-7 -7l-14 21v497l-7 98l7 7v7l-7 84q0 94 21 119l-7 7l-7 21h-7l21 231l-14 84 v14h7l-7 84v231l-7 63l7 49l-7 70l7 49l-7 7l7 7h7l7 -7h7zM267 1661v-21l14 14v7h-14zM666 1633v-7h14v7h-14zM757 1605v-14h14v14h-14zM673 1584v-14h14v14h-14zM673 1556v-49h14v49h-14zM92 1493v-14h14v14h-14zM673 1465v-21l14 -14v21zM631 1416v-133q16 0 21 49l-7 56 l7 21l-7 7h-14zM799 1416v-7h14v7h-14zM463 1395l-7 -7v-378l14 -14h14l7 7h7l21 -21h7l42 56l7 77v140q0 133 -84 133zM589 1381v-21h7v21h-7zM190 1367v-21l14 14v7h-14zM148 1360v-28h14v14zM680 1360v-98h14v28l-7 42l7 21l-7 7h-7zM148 1318v-7l14 -14v21h-14z M197 1311v-28h14v14zM323 1311v-14h7v14h-7zM414 1290v-14h14v14h-14zM281 1262v-7h14v7h-14zM596 1262v-273l14 -14l7 70v84l14 14l21 -21v42h-7v-14h-21l-14 98v14h-14zM680 1248v-14h14v14h-14zM897 1213v-21l14 -14l7 7l-7 28h-14zM330 1178v-21h14v7zM729 1143v-21h14 v21h-14zM113 1136v-49h14l-7 49h-7zM862 1115v-49h14v49h-14zM778 1080v-63l14 -14l7 42l-7 35h-14zM253 1045v-49h14v49h-14zM162 1038v-14h7v14h-7zM421 1017l14 -14v14h-14zM603 954v-42h14v7l-7 35h-7zM645 947v-28h7l14 14zM694 919v-14h14v14h-14zM386 891v-56l14 -14 v56zM302 870v-7l14 -14v21h-14zM568 786v-56l14 -14l7 21l-7 7v7l7 28l-7 21zM442 667l7 -49l7 -385l21 -14q0 17 63 21l21 -63l-7 -21h14v63l-7 28q14 36 14 161v49l7 28l-7 28v14l7 7l-7 7v21l14 49q-30 119 -98 119v7q-42 0 -42 -70h-7zM407 527v-21h14v21h-14zM897 359 v-21l14 14l-7 7h-7zM897 303v-14h14v14h-14zM106 282v-21h14v21h-14zM855 275v-14h14v14h-14zM897 212l14 -14v28zM848 205v-7l7 -91l14 14v70l-14 14h-7zM631 184v-28h14v14zM771 86l-7 -21l7 -21l21 28zM813 86l-14 -21l21 -21q42 7 42 21v21h-7l-35 -7zM554 65l14 -14v28 zM603 72v-14h7v14h-7zM512 -19v-21h7v21h-7z" />
<glyph unicode="C" horiz-adv-x="989" d="M494 1790l14 -21v-63h14v63l14 14q14 0 14 -21l7 -7h7q0 21 14 21h7l14 -14l21 7q109 0 252 -189q63 -118 63 -427v-84l-7 -84h-42l-28 21q0 -21 -14 -21l-14 14v63h7q0 -28 28 -35l7 42l-7 84h-14q-5 -84 -21 -84l-14 14h-7v-77l7 -7v-7l-7 -7h-28l-7 49q-12 0 -21 -49 h-7l-7 7h-7l-21 -14l-28 14l-28 -7l-14 14l-21 -21l-35 21l-7 -7h-7l-14 21v84q0 385 -28 385l-49 7q-56 0 -56 -140l-7 -105l7 -7v-7q-10 -140 -21 -140l7 -21l7 -427v-119l7 -77l-7 -7v-7q0 -182 63 -182v-21h14q0 28 42 28l21 245l14 14l-14 154l21 21v7l35 -7h7l7 7 l21 -14l42 14h21q35 -2 35 -14l7 7h21l7 -7l28 14q14 -16 14 -49h21l-7 35l21 14l14 -21v-49h14l14 70l28 -7l-7 -49v-28l14 -14l-14 -42l7 -42l-7 -28l7 -56q0 -125 -42 -196l7 -7v-7q-31 -94 -70 -112h-7v21h-21v-56q-118 -119 -273 -119l-21 21v98l-14 14l-7 -7v-119h-7 q-16 0 -21 35h-7l-14 -42q-21 0 -21 21l-7 -7h-7q-212 0 -322 252q-35 147 -35 406v252l7 63l-7 35l7 56l-7 7v7l7 28h-7l7 7v112l-7 7l7 7v7l-7 35q7 231 42 231l-7 7v7q16 63 28 63h7v-21h14v49q0 35 42 56q0 20 42 42q0 23 56 49h21l7 -28h7q0 56 49 56q0 14 49 14v7 l7 -7h7zM284 1685v-28l14 -14v42h-14zM515 1678v-63h14v63h-14zM242 1657v-21h7v21h-7zM186 1643v-14l21 -21v21l-14 14h-7zM151 1580v-7l14 -14v35zM158 1545v-21h7v21h-7zM109 1468v-7h14v21zM200 1461l7 -7h7v21zM158 1468v-28l14 14zM158 1419v-28l14 14zM662 1349v-14 h7v14h-7zM347 1342v-14h14v14h-14zM74 1335v-21h14v7zM116 1314v-14h7v14h-7zM165 1307v-14h-7l7 -35v-112h14v126l-7 35h-7zM81 1251v-84q14 0 14 21l-7 63h-7zM123 1244v-21l14 -14l7 7v14l-14 14h-7zM130 1195v-49h7l7 42l-7 7h-7zM900 1188l-7 -77l7 -63l7 7h7l-7 7v7 l7 21l-7 98h-7zM354 1174v-119l14 -14l7 21q0 112 -21 112zM221 1160v-14h14v14h-14zM88 1153v-28h7v28h-7zM263 1146l-7 -7q7 -56 21 -56v49zM221 1104v-42h7q14 0 14 21l-7 21h-14zM130 1097v-63l14 -14v63zM88 1062v-98l14 -14v126zM270 1069l-7 -35l14 -14l7 7v28z M578 1062v-14h7v14h-7zM179 1048v-91l14 -14v14h7q-5 91 -21 91zM221 1041v-7l7 -42l-7 -21q5 -91 21 -91v14l-7 147h-14zM137 1006v-105h14v14h-7l7 49v28zM361 1006v-7l7 -154l7 -7h7v35l-7 35l14 63l-14 35h-14zM319 999v-42l7 -35h7v28l-7 49h-7zM270 985v-91l14 -14 l7 98l-7 7h-14zM277 859v-35l7 -49h7v70zM375 824v-21h7v21h-7zM277 747v-7h14v21zM193 747v-21l14 -14v21zM151 719v-42h14v7l-7 35h-7zM193 684v-28h14v42zM109 656v-14l14 -14v14zM60 635v-14h14v14h-14zM655 572v-56h14v56h-14zM746 558v-28h14v14zM879 558v-14h7v14h-7 zM116 495v-7l14 -14l7 7v7l-7 7h-14zM249 495v-63h14v49zM74 474v-21h7v21h-7zM165 474v-28l14 14v14h-14zM746 460v-28h21v14l-14 14h-7zM837 411v-14h7v14h-7zM207 383v-21h7v21h-7zM116 369v-14h7v14h-7zM662 250v-7h14v7h-14zM620 215v-70l14 -14v98zM480 208v-21h14v21 h-14zM753 152v-14l14 -14l7 7v7l-14 14h-7zM578 138v-42l21 7v28zM620 110l7 -49h7v56l-7 -7h-7zM529 110v-56l14 14v28zM305 68v-21h7v21h-7zM396 40v-35l14 14v7z" />
<glyph unicode="D" horiz-adv-x="965" d="M64 1741h133l7 -7l7 7h35l7 -7l7 7h161l14 -14l42 14h7l35 -7v-70l14 14v56h21l14 -14l21 14q154 -17 154 -63l7 -63v-49l14 -14v126h7q14 0 14 -35l21 -7l14 14q21 -26 21 -49v-119h7l7 7h7l-7 7v21l7 7l-7 7v63q23 0 42 -105q14 0 14 -42h7l-7 -35v-7l14 -63l-7 -175 l-14 -14v-7l21 -42l-7 -35l7 -7l-7 -35v-42l7 -56l-7 -21l7 -217v-168l-7 -28l7 -28l-7 -7v-7l7 -28h-7l7 -7v-28q-25 -322 -105 -322q0 -28 -112 -63l-7 7h-7l-35 -14l-7 7h-7l-35 -14l-7 7v7l-7 -7h-21l-14 14v70l-14 14v-84l-21 -21l-7 7l-49 -7h-14q-23 0 -49 21 l-14 -21l-21 14l-7 -7h-28l-7 28h-14q0 -35 -21 -35h-14q-23 0 -49 21l-21 -21h-63l-42 7l-35 -7h-7l-21 21v98l14 42l-14 56l21 133l-14 56l14 14l-14 21l7 7v35l-7 7l7 7v28l-7 49l7 28l-7 217v112h21v-21h14l14 42v7l-14 21l14 21q-14 0 -21 49l7 70l-21 7l-7 -7v42 l14 21v112h-21v14l7 91l-7 35l7 28l-7 112v168zM568 1706v-14h7v14h-7zM477 1657l7 -49v-28l-7 -7l7 -7v-126h-7l-28 7q-29 -10 -42 -35v-77l14 -56l-14 -21l21 -476l-7 -42l7 -189v-98l-14 -14l-7 35v63h-14v-224q0 -14 35 -14l21 -21q98 16 98 147v14l-7 63l7 126v77l7 63 l-14 56l28 56l-14 21l14 14v91h-7v-21h-21v28q0 49 21 49v112q0 91 -14 126l7 7v7q0 74 -56 133v147l-7 49h7l-7 21l-7 -7h-7zM568 1657v-56l14 -14v35l-7 35h-7zM519 1650v-105h21v49q0 52 -21 56zM211 1643v-14h14v14h-14zM393 1629v-126l14 -14h7v126l-14 14h-7z M708 1622v-175l7 -35h7l7 42l-7 168h-14zM435 1601v-28l14 14zM659 1587v-42h14v42h-14zM799 1580v-14l14 -14v28h-14zM351 1545v-7l14 -14v35zM449 1559v-21h7v21h-7zM666 1517v-112l14 -14v126h-14zM309 1489l14 -14v14h-14zM575 1489v-21l14 -14v35h-14zM183 1454l-7 -28 l14 -63l-7 -42v-21h14v56l-7 42l7 35v21h-14zM757 1447v-21h7v21h-7zM267 1433v-28l14 14zM358 1433v-21h7v21h-7zM855 1419l-7 -7v-14l7 -84h14l-7 49l7 49l-7 7h-7zM757 1405l7 -70v-21h14l-7 35l7 42zM267 1391v-28h14v14zM715 1391v-21h7v21h-7zM806 1384v-84l14 -14v84 zM631 1377v-21h7v21h-7zM232 1363v-14h7v14h-7zM92 1342v-49l7 -49l7 7h7l-14 63l7 28h-14zM631 1335v-63h21v7q0 52 -21 56zM673 1314v-49h14v35zM589 1272v-28q0 -126 21 -126v112q0 36 -21 42zM631 1251v-84l14 -14h7v98h-21zM316 1244v-42h14v42h-14zM365 1223v-70 l14 -14v84h-14zM813 1216v-7l14 -14v21h-14zM673 1209q5 -77 21 -77v42l-7 35h-14zM771 1209v-21h7v21h-7zM92 1153v-7l7 -7v-7l21 7v28h-14zM771 1167v-84l14 -14v98h-14zM813 1146l14 -14v28zM729 1153l-7 -7l7 -49v-42h14v84zM148 1125v-21l7 -63l-14 -35l14 -70h7l7 63 h-7l14 35l-14 14l7 21l-7 70zM197 1139l-7 -7v-42l14 -14l14 49zM281 1132v-70l14 -14v70zM372 1125v-14h7v14h-7zM92 1097v-21q21 -23 21 -42h7l7 49v21l-14 14zM323 1104v-42l7 -35h7l7 56l-7 21h-14zM645 1083l-7 -35l7 -21h21v14q0 36 -21 42zM820 1083v-56l14 14v42 h-14zM603 1076v-21h7v21h-7zM687 1076v-14h7v14h-7zM239 1048v-14h14v14h-14zM603 1041v-70h14v56zM778 1041v-49h14l-7 49h-7zM687 1034v-49l14 -14v49zM197 1027v-35l14 14v7zM330 1020v-21h14v7zM113 1013l-7 -7v-7l7 -7h7l7 7v7l-7 7h-7zM239 1013v-56l14 -14v70h-14z M869 1013v-35l14 14v7zM288 992v-21l14 14l-7 7h-7zM113 978l-7 -7v-7l14 -14l7 7v7zM330 943v-7l14 -14v35zM197 950v-70h14v56zM736 943v-42l14 14v14zM113 936v-14h7v14h-7zM827 915v-14l14 -21l-7 -7v-7l7 -42h7v105h-7zM155 922v-14l14 -14v14zM778 922v-49l14 -14v63 h-14zM239 887l7 -21h7v42q-14 0 -14 -21zM869 901v-21h7v21h-7zM162 880v-14h7v14h-7zM736 831v-14h14v14h-14zM869 831v-42l7 -105h14l-7 28l7 7v7l-7 35l7 63l-7 7h-14zM834 782v-35l14 -14v49h-14zM386 747l14 -14v28zM85 719l7 -49h7v63zM344 726v-63l14 14v49h-14z M834 705v-49l7 -140h7v14h7l-7 49l7 49l-7 21l7 7v7l-7 56zM876 642l-7 -21l7 -7v-42l21 -7v7l-7 70h-14zM302 551v-28l7 -35l14 14v14l-14 35h-7zM617 516v-7l14 -14v21h-14zM890 509l-7 -28l7 -84h7l14 56l-7 7v7l7 28v7zM218 502v-14h14v14h-14zM708 495v-70h7 q17 0 21 63l-7 7h-21zM806 481v-14h7v14h-7zM666 474v-28h14v28h-14zM92 467v-98h7l7 28l-7 70h-7zM351 453v-42l14 -14v42zM624 425v-28l14 14zM414 425h7l7 -21h-14v21zM134 411v-21l14 -14v35h-14zM841 390v-28l14 -14h7v28l-14 14h-7zM414 383h7v-14h-7v14zM358 355v-84 l14 14v70h-14zM582 334v-14h7v14h-7zM806 334v-14h14v14h-14zM183 320v-56h14v56h-14zM225 320v-21h14v7zM99 313v-14h7v14h-7zM141 271v-77l14 14v49zM225 264v-49h14v49h-14zM358 236v-28h14v14zM589 173v-14h14v14h-14zM260 152v-7l7 -35h7l14 14v28l-14 14zM225 145 l7 -21h7v14h7l-7 21zM547 159v-14h7v14h-7zM141 152v-21l14 14l-7 7h-7zM589 124l-7 -35v-14l21 -21v56zM316 117v-14l14 -14l7 7v7l-14 14h-7zM631 110v-7l14 -14v21h-14zM778 110v-14h7v14h-7zM141 89v-35h14v21zM365 89v-21h7v21h-7zM505 82l-7 -77h14v77h-7zM106 75v-14 h7v14h-7z" />
<glyph unicode="E" horiz-adv-x="757" d="M58 1733h91l7 -7l7 7h7l28 -7l49 7h308l-7 -35l21 -7v42h21l14 -14l28 14l7 -7h21l21 7v-7l7 -28v-294l-21 -21h-70l-21 14l-21 -14h-42q-14 0 -14 21l-7 7h-7l-7 -28h-42v-266l-7 -7l7 -7v-49l35 -7l7 7l7 -7h28l7 7l7 -7h28l7 7l7 -7h7l70 7q28 -7 28 -42v-182 q0 -14 -28 -14v-42l28 -35l-35 -28l-7 7h-28l-7 -7l-28 14l-28 -7l-14 14v7l7 28l-14 49h-14l7 -70v-14q0 -14 -21 -14l-7 7h-7q-56 -16 -56 -63l7 -35l-7 -21l7 -84v-70l7 -203l-14 -28l7 -7v-35h-14l-14 63q-17 0 -21 -28q17 -49 28 -49l21 7v-7l14 -28l35 14l21 -21 l14 35q-14 14 -14 91l-7 7h-7v-56l-7 -35h-7q-15 0 -28 147l21 7l7 -7h7l56 7l7 -28h7v21q21 0 21 -63l21 7v49l14 14l14 -14l-7 -7v-7l14 -98l-14 -42l14 -56l-7 -70h-21v35h-14l7 -35q-21 0 -21 -28q-14 0 -14 -21l-35 -7h-259q-35 0 -35 14l-42 -14h-105l-21 21v238 l-7 28l14 70l-7 7v28h7q14 0 14 -42h7v140h-7l-7 -7h-7q0 35 -14 35q7 77 21 77h14v28h-28v63l21 28l-14 70l7 7l-14 84v14h7l-7 84v259l14 42l-14 42v161l7 49h-7l7 7l-14 147l7 42l-7 7v7zM156 1712q0 -21 -14 -21l-21 14l-7 -7v-7l7 -7v-7l7 7h7l35 -7v35h-14zM289 1691 v-28l7 -35h7l7 56l-7 7h-14zM646 1691v-21h7v21h-7zM380 1670v-14h7v14h-7zM471 1649v-56h14v42zM205 1600l7 -70v-49h14l-7 105v21l-7 -7h-7zM380 1600v-7l14 -14v21h-14zM429 1600v-21h14v7zM562 1600v-49h14v35zM79 1593l-7 -84h7l-7 -21l7 -21h7l7 35h-7l7 7v7l-7 77h-7 zM128 1537v-14h7v14h-7zM436 1509l-7 -7v-14l14 -14l7 7v14zM436 1460v-14h7v14h-7zM219 1418v-14h7v14h-7zM261 1418v-21l14 -14v35h-14zM79 1404v-28l14 14zM401 1383v-28h7v28h-7zM79 1362v-42l7 -35h14v21l-14 21l7 28l-7 7h-7zM268 1320v-112l14 -14v112zM135 1306v-63 h14v63h-14zM359 1299v-21h14v7zM408 1264l-7 -35l7 -7h7v42h-7zM142 1180v-21h7v21h-7zM142 1061v-14h14v14h-14zM184 1040v-7h14v7h-14zM233 1040l-7 -7v-14h21v7zM324 1026v-14h7v14h-7zM408 1019v-49h14v49h-14zM275 1012l-7 -77l7 -21l21 21q-7 77 -21 77zM317 984 l7 -42l-7 -21l7 -7h14l-7 84zM100 991l-7 -35l14 -14h7v49h-14zM121 879h42l-7 49v49q-19 0 -35 -98zM184 935v-7l7 -49h14v14l-7 7l7 7v7l-7 21h-14zM233 914v-7l7 -35h7l7 21l-7 35zM275 900v-21l14 14l-7 7h-7zM324 893v-84l14 -119h7l7 21l-7 35l7 21l-14 126h-14z M373 893v-7h14v7h-14zM457 872v-28h14v14zM555 865v-14h42v21h-7zM275 858v-14h14zM100 851v-14h14v14h-14zM149 851v-14h7v14h-7zM415 851v-7h14v7h-14zM240 795l-7 -21l7 -21h7l7 21l-7 21h-7zM149 788v-14h14zM555 788v-21h7l14 14l-7 7h-14zM590 774l14 -14h14v28h-14z M282 781v-14h14v14h-14zM464 767l7 -7h7v21zM198 774v-14h7v14h-7zM471 753v-14h7v14h-7zM240 725v-35h7l14 14v14zM198 697v-35l14 14v7zM156 676l-7 -21l14 -168v-63l14 -14v112l-7 42l7 28l-14 84h-7zM338 676l-7 -21l21 -14v21zM114 627v-7h14v21zM380 613l7 -70v-14h14 v35l7 49l-7 7h-7l-7 -7h-7zM254 606v-42q14 0 14 21l-7 21h-7zM345 606v-21h7v21h-7zM114 592v-21l7 -42l-7 -7v-7l14 -84l-7 -42v-42h14v231l-14 14h-7zM254 550v-42h7l7 35l-7 7h-7zM345 529v-21h7v21h-7zM303 515v-7l-7 -77l7 -21h14v105h-14zM254 494v-112h14v7l7 63 q-9 42 -21 42zM345 480l-7 -28l14 -133l-7 -42l7 -7h7v196zM387 459v-84l7 -49h7l7 28l-7 49v70zM65 452h7v-21h-7v21zM65 410h7v-14h-7v14zM205 368v-42l-7 -35h-14l-7 7h-7v-21l7 7h21l7 -42h7q0 30 21 42l-14 42v42h-14zM240 312l21 -14h7l-7 21l7 35h-7q-21 -7 -21 -42z M394 319v-28h7v28h-7zM681 326h7l14 -14v-7h-7l-14 14v7zM485 305v-21h7l7 21h-14zM128 291v-21h7l7 21h-14zM660 291l7 -7v-7l-14 -14l-7 7v7zM688 284h14l7 -70v-7l-7 -7l7 -7v-105l7 -7l-7 -7v-91l-35 -7q-35 0 -35 14l-28 -14q-35 9 -35 21q35 0 35 21l28 -14l7 7v7 l-7 105l14 28l-14 70l7 21h14l21 -14l7 35v21zM86 256v-14h7v14h-7zM352 242l-7 -84l7 -7h7l14 77zM569 235v-91l21 -21l14 21v21q-28 37 -28 70h-7zM310 228v-49h14v35zM205 214v-21q0 -112 21 -112l7 98q-9 35 -21 35h-7zM527 179l7 -63h7l14 14v35l-14 14h-14zM674 172 v-14h-7l7 -21h7l14 14v7l-14 14h-7zM128 137v-84h14v84h-14zM170 116v-21h7v21h-7zM170 74v-63h14v7l-7 28l7 21l-7 7h-7zM541 39v-28h7l7 21l-7 7h-7z" />
<glyph unicode="F" horiz-adv-x="777" d="M108 1653h70l14 -14l28 14l28 -7l7 7h7l7 -7l49 7h49l21 -14l14 14h7l7 -7h7l-7 -35v-70q0 -42 42 -42l7 7q7 -77 21 -77v21l-7 42l7 21l-7 7v7l7 7l-14 112l21 7l7 -7l35 7h21l70 -7l7 7l28 -56q0 56 21 56h42l7 -35v-77l7 -182q-16 -47 -42 -56l-28 7l-7 -7l-21 7 l-7 28h-14l-7 -35h-42l-42 7q-63 0 -63 -56l-7 7h-7l-14 -21v-7l14 -84l7 7h7v-77l-14 -21v-7q16 -19 21 -70l-7 -7l35 -21l21 14h7l21 -14l14 14q14 0 21 -56h14v42l14 14q14 0 14 -21h7q14 0 14 21h7q14 0 14 -35h7q14 0 14 21l7 7h7l7 -21q-14 -44 -35 -49l7 -35v-21h21 v-28q-21 0 -21 -14l7 -7h7l7 7v-14l-21 -35l7 -49v-56h-14v-7l-7 7h-56l-7 42h-14l-7 -35h-21l-7 35q-14 0 -14 -35h-14q0 42 -21 42q-7 -33 -42 -63v-98h-14l-14 14v14l7 28l-14 70q-21 -7 -21 -42q0 -112 56 -112l7 -175v-294l-7 -7l7 -7v-28l-14 -14l-7 7h-7v-49l-35 7 q-14 -42 -28 -42q-19 0 -21 35q-14 0 -14 -21l-7 -7h-14l-7 7l-21 -14l-35 7l-21 -7q-56 7 -56 21v42l-7 126l7 63l-7 7h-14v-217l-14 -14l-7 7v91h-14l-14 -14v-84l-14 -14h-7v49l7 56l-7 77v161l-7 7l7 7v7l-7 49l7 56h-7l7 7v21l-7 28l14 35l-7 7v28q28 25 28 49l-28 7 v21l-7 28l7 28v7l-7 7l21 77h-7l7 7v14q0 35 -14 35l14 49l-14 84v42l7 49h-7l7 7l-7 105v77l21 21v-14h7l-7 -35v-21q4 -42 21 -42l7 28l-7 7v7l7 7v7l-7 63l7 105l-7 7h-14l-7 -56h-14l-7 42l-7 315zM444 1653l21 -14l-7 -70h-7l-14 14v56l7 7v7zM556 1611v-21h14v21h-14z M234 1604l7 -21l-7 -35l7 -42h14v14l-7 84h-14zM514 1541v-28h14v14zM339 1527v-7h14v7h-14zM563 1527v-21h7v21h-7zM654 1492v-14q0 -91 21 -91l-7 49v42zM115 1422l-7 -28l21 -14q14 0 14 21l-7 21h-21zM297 1394v-14h7v14h-7zM297 1345v-14h14v14h-14zM395 1331v-35h21 v21l-14 14h-7zM444 1331l-7 -7v-7h21zM206 1310v-28l7 -35h14v7q0 52 -21 56zM346 1310l-7 -28q7 -49 21 -49l7 7v7h-7l7 7v7l-7 49h-14zM395 1282v-14l14 -14l-14 -21l7 -21h7l7 7h7l-7 49v14h-21zM101 1254h14v-14h-14v14zM213 1205v-35l14 -14v14l-7 35h-7zM395 1191v-7 l14 -28h7v35h-21zM458 1198h7v-21h-7v21zM164 1086v-35l7 -7l-7 -7v-7l14 -161l-7 -21q7 -56 21 -56l7 7l-7 7l7 70v14h21v-21l7 -42l-14 -28q14 -42 28 -42l7 35l-7 49h7l-7 7v56l7 7q-5 21 -28 28l-14 -14h-14v63h7l28 -21l14 49q0 14 -21 14l-21 -7l-7 7v7l7 28l-7 21 h-28zM206 1065h21v14h-7zM115 1002l7 -21h21v7l-7 56q-14 0 -14 -42h-7zM409 1037l-7 -7v-7l7 -63l-7 -42l7 -56l-7 -7h-14l-14 98v63h-14v-56q0 -35 -14 -35l21 -231v-14h14l-7 42q0 35 35 70l14 -91h-7l7 -21h7v14h7l-7 7v28l7 7l-7 7v28h7q12 0 21 -49h21l7 7h7 q-10 56 -56 56l-14 245l-7 7h-7zM262 1002l14 -14v14h-14zM311 988v-7l14 -14v35zM269 974v-21h21v7l-14 14h-7zM451 953l-7 -21l7 -63v-14h14v63l-7 35h-7zM318 946l-14 -21l-7 7h-14l-14 -14q0 -28 35 -28l7 -49v-42l14 -14h14v35l-7 7l7 7v35l-7 7l7 7v21q0 36 -21 42z M542 918v-28l14 -14v28zM577 883l14 -14h7v28h-7zM500 883v-56l14 -14v56zM626 869v-7l14 -14l7 7v28h-7zM388 834h14v-14h-14v14zM276 813v-14h21v14h-21zM640 806v-21h7v21h-7zM185 778l-7 -49v-49h14l7 21l-7 77h-7zM143 771v-70h14v35l-7 35h-7zM591 729v-21h14v7z M234 715v-35h7v35h-7zM325 708v-35h7v35h-7zM640 701v-21l14 14v7h-14zM367 638l14 -14h21l-7 28h-14zM234 645v-21h7v21h-7zM185 638v-7h14v7h-14zM241 561l-7 -7v-7l7 -7h14v7zM171 372v-14h7v14h-7zM430 337v-7l14 -14h7v21h-21zM402 120v-28h14v28h-14zM206 99v-7 l14 -14v21h-14zM304 99v-21l14 -14v35h-14zM206 50v-84h14v98zM444 29v-21h7v21h-7zM465 -48l7 -7v-21l-14 -14h-7v28z" />
<glyph unicode="G" horiz-adv-x="989" d="M411 1739h7q16 0 21 -35h7q2 35 14 35l28 -7l21 7q11 -28 21 -28h7l14 28q210 -47 210 -126q0 -21 14 -21v35h7q70 -48 70 -112v-14q70 0 70 -308l-7 -7v-7l14 -98l-7 -21h-14l-21 7l-35 -7h-182l-21 14l-14 -14h-7l-21 14l-14 -14l-28 21l-7 -7h-7l-7 49l7 7l-7 35v49 l21 28l-7 56l7 42q-35 105 -77 105h-28l-42 -70l14 -21l-7 -7v-28l7 -7l-7 -7v-728h-21v14h-7q-7 -56 -21 -56l-7 7v7l7 7v7l-7 7h-21l7 -49h14l7 7h7q0 -19 35 -42l7 -21l-7 -35l7 -70l-14 -14l21 -28v-7l-7 -7l28 -105l-7 -21l14 -42v-147h7l7 7h7l-14 147q0 70 49 70 q42 0 42 210v189l-14 14h-21l-7 -7h-7l-14 21v21l-7 224l7 7h63l7 -7l21 7l21 -14l42 14v-7l7 7h189l42 -7l28 7l14 -21v-623l-7 -7l7 -7v-35h-14l-7 7h-7v-63q28 0 28 -14l-7 -56l7 -28l-7 -21l7 -63l-7 -7h-28q-14 0 -14 28l-7 7h-7q0 -42 -42 -42h-35l-7 7l-7 -7h-70 l-21 21v42q0 25 28 56h-14q-5 35 -21 35q0 -35 -49 -35q0 -54 -35 -70q0 -39 -140 -84h-70q-36 0 -42 21l-7 -7h-14l-21 21v77l7 98l-7 28l7 7v7l-14 105l7 21l-7 21h-21l-7 -28h-14l-14 63h-7l-7 -35l7 -42h14l7 7q28 -4 28 -49h7l-7 -7v-7l7 -259l-7 -7q-83 41 -119 105 v42l-7 -7h-7l7 -7v-14q-42 0 -91 189l7 35h14v-14h21v14l-7 7v7h7l-7 21h-21v-14h-7l-14 35l7 84l-14 42v609q0 105 28 182l-14 42l14 154l7 -7h21v56q0 52 77 105q0 21 28 35l7 -7v-49h7l14 14v70h21v-63l14 -14h7v42l-7 49l56 28l14 -14v-70l14 -14l7 7h7l-7 84v21z M530 1683v-21h7v21h-7zM530 1648v-28l14 14zM306 1641v-56h14v56h-14zM467 1606l-7 7h-14l-14 -63l21 -14h7l14 28v35q21 0 21 14v14h-7zM579 1613v-140h14v140h-14zM166 1578v-7l14 -14v35zM264 1564v-21l14 -14v49zM796 1578v-21l21 7v14h-21zM173 1529v-70h14v35l-7 35 h-7zM138 1522v-42h14v42h-14zM362 1452l-7 -7v-14l14 -14h7v21zM635 1452v-84h14v84h-14zM320 1424v-7l14 -14l7 7v28h-7zM733 1424v-28h14v28h-14zM677 1396v-14l14 14h-14zM180 1375l7 -21h7v28l-7 -7h-7zM369 1340v-42h14v42h-14zM236 1312v-119h14v105zM187 1305v-42h21 v28l-14 14h-7zM824 1305v-56h14v56h-14zM285 1298l-7 -42l14 -154h7v63l-7 56l7 56v21h-14zM103 1291v-35l14 -14l-7 -35v-42h14v49l7 7l-7 21l7 21h7v-21h-7q16 -42 28 -42l14 28q-14 21 -14 56h-21v-14h-14q0 21 -14 21h-7zM866 1284v-14h7v14h-7zM187 1235v-21h21v7 l-14 14h-7zM194 1186v-7l14 -14v21h-14zM600 1179v-42l14 -14v56h-14zM642 1179v-35l14 -14l7 7v28l-14 14h-7zM152 1165v-21h7l14 14v7h-21zM110 1151v-14l14 -14v28h-14zM558 1137v-7h21v21h-7zM194 1095v-14l7 -35h7v63zM341 1095v-56h14v42zM68 1081v-21h14v21h-14z M285 1046l7 -35h14v56h-7q-14 0 -14 -21zM166 1004v-21h7v21h-7zM68 927v-14l14 -14l7 7v7l-14 14h-7zM348 892l-7 -7l7 -49h14l-7 28l7 21l-7 7h-7zM117 864v-21h21v7l-14 14h-7zM299 857v-14l-7 -70l7 -42h21v14l-7 7l7 21l-7 84h-14zM614 787l-7 -7v-7l7 -21l14 14v7z M250 752h-28q0 21 -14 21l-21 -28l-21 7v-35l35 7v-7l7 -28h7q14 0 14 28q42 0 42 63h-7q-14 0 -14 -28zM348 759l-7 -21l7 -7h14v14zM390 759l-7 -28q7 -42 21 -42v70h-14zM523 738v-14h-7l14 -42h7l7 35v21h-21zM348 689v-42h14v42h-14zM110 619v-7l28 -21v42h-14z M614 619v-7h14v21zM166 626v-35l14 -14v49h-14zM215 584v-21h21v7l-14 14h-7zM306 563v-42q4 -42 21 -42l7 77l-7 21h-7zM250 570v-14h21v14h-21zM131 542v-21l14 14v7h-14zM264 542l-7 -7l7 -21h14v14zM628 458v-14h7v14h-7zM754 451v-28h21v14l-14 14h-7zM82 402l-7 -7v-7 l14 -14h7v14zM579 402v-14h14v14h-14zM124 395v-7l7 -35h14v42h-21zM180 381v-42h14v42h-14zM362 374v-21l14 14l-7 7h-7zM628 367v-35h7v35h-7zM320 360l-7 -7l7 -35l-7 -21l7 -21h14l7 35v7q0 36 -21 42zM586 360l-7 -7v-14h21v7zM705 360v-7l14 -14h7v21h-21zM173 318 v-14l14 -49l21 14l-14 63h-7zM810 325v-35h14v21zM138 318l-14 -42l14 -119v-21l21 -7v168zM852 276l7 -35l-7 -21l14 -140l-7 -21l7 -49h7l7 112l-7 98l7 35l-7 21h-21zM187 248l-7 -49l7 -42v-77h14l-7 7v7l21 28v21l-7 7v7l7 7h7l7 -7h7l-7 -7v-7l7 -21h14v14h7l-7 7v7 l7 35l-7 7h-7l7 7v21h-7l-21 -14h-7l-21 21h7l-7 21h-7zM369 248v-273l21 7v14l-7 21l7 35v112l-14 63l14 14v7h-21zM229 234v-7h14v7h-14zM817 234v-14h7v14h-7zM418 220v-14h7v14h-7zM334 185v-28h7v28h-7zM677 157v-21h7v21h-7zM628 150v-56h14v42zM593 143l-7 -7v-7 l7 -77l14 14l-7 21l7 42zM411 122v-56h14l7 42l-7 28zM229 115v-21h14v21h-14zM544 66v-14h7v14h-7zM411 24v-77h7l14 14v28l-7 35h-14zM460 -46v-21h7v21h-7z" />
<glyph unicode="H" horiz-adv-x="969" d="M50 1637h140l7 -70l21 7v63h14l14 -14l28 14q14 -16 14 -49q12 0 21 49h14l7 -35h7l28 35l28 -14l14 14h14l7 -35v-371l-7 -49l7 -7h-7l7 -7v-91q0 -10 -28 -21q0 -33 49 -56l21 14l28 -14l28 7q7 -56 21 -56v77l-7 7l7 7v7l-7 70l7 42l-7 42l7 105l-7 259v49l14 14 q9 -42 28 -42q0 49 21 49l14 -42l-7 -28l7 -70l-7 -70h-7l-14 14v84l-7 7l7 7v7l-14 14l-7 -63l7 -28l-7 -63v-112h21v91l7 35h7l14 -14v-56l7 -56l-7 -35l14 -112l14 14l-7 42q0 49 14 49l21 -7l7 7v7l-14 21l-7 -7h-7l-14 14v112l14 14h7v-63h14v7l-7 84l-21 -14h-7l-7 35 l7 7v7l-7 140l7 21h231q7 -70 21 -70l7 70h7l14 -14v-182l-7 -7l7 -7v-154h-14l-7 7h-7v-63l7 7h21l-7 -42l7 -21l-7 -7l7 -35v-119l-14 -21v-49q2 -35 14 -35v-14h-7l7 -385v-385l-14 -14l-21 7l-7 -7v-14l21 -7l7 7l14 -21v-161l-21 -21h-147q-14 0 -14 35h-14 q0 -35 -35 -35h-70l-42 7l-21 -7l-14 21v112q2 35 14 35l28 -14l14 14h49v7l-35 70l-7 -35l-7 7h-14l-35 -7q-14 27 -14 77v182l14 14l14 -14l14 21l-14 42l-7 -7h-7l7 -7v-7l-14 -14l-7 70l28 42v7l-28 14l7 35v70q-27 0 -35 49h-7q0 -42 -14 -42t-14 35h-14q0 -35 -42 -35 v-84l7 -28l-7 -7l14 -154l-7 -42l7 -35l-7 -70v-28l-7 -7l7 -7v-98h-21v98l-14 14l-7 -7h-7l7 -7v-77h14v-21h-14v-14h14v-7l7 7h21l7 -84l-7 -7v-7l-7 7h-14v-56l-21 -21l-28 28l-14 -28l-35 7l-21 -7l-21 7l-7 -7h-7l-28 14l7 35v112h-14v-154l-35 -7h-105l-21 21v56 l-7 175l7 63l21 7l7 -7v21q-35 0 -35 42v7l14 63l-14 28q5 35 35 35v56l-28 7v63q28 0 28 21l-14 56l-14 679v238l-7 28l7 7v7l-7 63zM330 1581v-21h14v7zM162 1560v-14h-7l7 -49l7 -462l7 -7h7v7l-7 518l-7 7h-7zM106 1504v-14h21v28h-7zM246 1497v-7l14 -14v21h-14z M295 1462v-28l14 14v14h-14zM792 1441l-14 -21l7 -7h21v14zM883 1434v-14h-7l7 -21h14v35h-14zM344 1378v-63h14v49zM295 1357v-70h14v56zM799 1259v-21h14v21h-14zM400 1203v-21l14 14l-7 7h-7zM890 1203v-21h14v7zM806 1175v-42l14 14v28h-14zM631 1133l-7 -7v-21h21v14z M806 1077v-168l14 -14v182h-14zM491 965v-14l14 -14v42zM582 958v-21h7v21h-7zM806 867l14 -14v28zM407 825v-28l14 14zM449 818v-14h7v14h-7zM365 615v-91l14 -14l7 7l-7 49v63zM547 538v-14h14v14h-14zM379 412v-21h7v21h-7zM554 328v-14h14v14h-14zM554 279l7 -7h7v21z M701 181v-7l-7 -91l14 -14l21 7v63q0 36 -21 42h-7zM806 111v-7q35 0 35 -49q16 0 21 35l-14 35zM750 111v-28h21v28h-21zM659 55l14 -14v14h-14zM295 34v-126h21v42l-7 70l7 7l-7 7h-14zM841 27v-42h21v7l-7 35h-14z" />
<glyph unicode="I" horiz-adv-x="485" d="M75 1773h98l28 -7l28 7l14 -21v-77l-21 -21l-28 28v-14h-7l7 -70v-105h7l21 21v56l-14 21v35l14 14l21 -56v-119l21 -7l7 49l-7 21l14 42h7l14 -42v-7h-14v-28l21 -7l7 56l-7 7v7l7 56l-7 105l14 42l28 -14q0 28 14 28h56v-14h7l-7 -7v-42l14 -133l-7 -49l7 -105v-595 l-14 -56v-7q2 -35 14 -35l-7 -7l7 -49v-14l-7 -168l7 -56l-7 -35l7 -42l-7 -28l7 -112v-182l-21 -21h-28q-70 0 -70 14l-42 -14l-56 7l-7 -7h-7l-7 7l-84 -7h-42q-14 0 -21 56l7 28l-7 147v84h7l21 -14l7 7v7l-7 49l-7 -7h-21v7q0 126 28 147v14q-21 26 -21 49v28l7 63 l-7 70v14l7 56l-7 77v224l-7 112l7 7v7l-7 98v84l7 84l-7 7l7 7h7q0 -21 14 -21h7l7 42l-7 28l7 21l-7 7h-14l-7 -56h-7l-7 21l7 35l-7 56l14 77l-7 21zM194 1752v-63h7v63h-7zM103 1738v-21h14l-7 21h-7zM341 1731l-7 -35l7 -7h7v42h-7zM152 1710v-7l7 -21l-7 -42h14v70 h-14zM334 1661l14 -14v28zM103 1640v-21l14 -14l7 28l-7 7h-14zM341 1556v-21h7v21h-7zM159 1486v-42h14v7l-7 35h-7zM299 1479v-21h7v21h-7zM110 1430v-84h21l7 49l-7 35h-21zM152 1395v-7h7l14 14v7h-7zM250 1402v-21l14 -14v35h-14zM75 1367v-14l14 -14v28h-14zM355 1227 l-7 -49v-63q28 0 28 77l-14 35h-7zM299 1136v-21l14 -21v-98l14 -14v140l-14 14h-14zM257 1122q5 -98 21 -98v105zM271 961v-98l14 -14l14 28q-14 15 -14 77l-7 7h-7zM320 905v-21h7v21h-7zM376 737v-14h7v14h-7zM96 730v-21h14v21h-14zM320 723v-21l14 14l-7 7h-7zM285 695 l7 -7h7v21zM236 674v-35h14v35h-14zM334 485l-7 -21l7 -7h14v14zM110 457l-7 -35v-56q0 -52 21 -56v147h-14zM152 359v-63l14 14v35zM152 254v-63q0 -14 56 -21l7 -7v-49h14l-7 21l7 35v28l-14 14h-14v-14q-12 0 -35 56h-14zM117 233v-21h7v21h-7zM292 212v-14h21v28h-7z M68 121v-21h7v21h-7zM117 121v-63q14 0 21 56l-7 7h-14z" />
<glyph unicode="J" horiz-adv-x="641" d="M193 1536h210l63 -7l21 7l21 -14l28 14l14 -21v-105l7 -28l-7 -21l14 -497v-392l-14 -56l14 -49v-210q0 -371 -224 -371l-42 -7l-42 7l-7 -7h-7l-35 7l-7 -7h-7l-35 14l-7 -7v-7l-35 7l-7 -7h-7l-28 7h-7l-7 -7h-7l-14 21v266l14 21l21 -14l84 28l7 -7l14 63l35 -7v42 h-14l-7 -7h-7l-7 7l7 434v231l-7 28l7 7l-7 84v70l7 77l-7 7v7q10 76 35 119v14q-21 0 -21 14v21l7 21l-7 35v35l7 77l-14 42zM508 1515l-7 -63l7 -35l-7 -35l7 -21l-14 -49l14 -49h21l7 28l-21 224h-7zM221 1487l7 -35h7l7 28l-7 21zM452 1480v-70l7 -7v-7l-7 -7h14v-21 l-14 -21h21l14 42v14l-21 77h-14zM396 1417l14 -70l-7 -21l14 -84l21 21h7l-7 21l7 21h21v-14h14q0 32 -42 49q-14 27 -14 77v49q-16 0 -28 -49zM368 1410v-105l14 -14l7 21h-7l7 7v91h-21zM333 1333v-14h14v28zM459 1340v-7h14v7h-14zM242 1298l-7 -49l7 -7h7l7 7v7l-7 35 l7 7h-14zM340 1298v-21h7v21h-7zM340 1221v-14h-7l7 -21l14 14v7zM375 1214v-21h14v21h-14zM515 1200l-7 -42l7 -7v-7l-7 -35q11 -28 21 -28l7 35l-14 84h-7zM417 1179v-7l21 -21l14 14q-10 28 -21 28zM431 1123v-21l14 14l-7 7h-7zM522 1053v-21h14v7zM431 1046v-98l7 -49 h7v133zM501 416v-35h14v35h-14zM235 220v-14l14 -14l7 21l-7 7h-14z" />
<glyph unicode="K" horiz-adv-x="989" d="M71 1669h14l21 -14l21 14h7l21 -14l14 14l21 -14l35 14l21 -14l21 14l7 -7h7l35 7l14 -14l42 7l14 -14l7 7v7l35 -35l-7 -70v-14l7 -28l-7 -7l7 -84v-63l-7 -63l7 -70v-189q21 0 154 595q27 35 63 35l56 -7l56 7h7l28 -7l28 7h42l21 -14l21 14l42 -7l-77 -280h-14l-7 35 l-35 -35q-7 70 -21 70v-14l7 -70h14l7 7h7l21 -35q-28 -161 -119 -469l63 -252v-7l-14 -21v-28h14v14q26 0 168 -665h-77l-63 7l-70 -7h-35l-35 7l-42 -7h-42q-14 0 -14 21l7 21l-28 28l7 7v7q-28 63 -28 175v105h-14v-35h-14q-35 219 -77 357h-7l-7 -56l7 -105v-315 l-7 -133l7 -63l-21 -14h-210l-77 7l-56 -7l-14 21v42l7 35l-14 105l7 35l-7 49l7 161l-7 49l7 70v161l7 7l-7 7v238l-7 371l7 28l-7 70v14l7 280zM694 1648v-21l21 -7v28h-21zM645 1641v-21h14v21h-14zM239 1599v-21h14v7zM148 1592v-21h7v21h-7zM372 1578l14 -14v28z M701 1578v-21h14v21h-14zM743 1578v-7h14v7h-14zM750 1564v-28h7v28h-7zM876 1543v-28h14v28h-14zM827 1501v-28q4 -42 21 -42v35l-7 35h-14zM701 1473l7 -21l-7 -56l7 -49h14v112l-14 14h-7zM568 1445v-49l7 -105h28l-7 35v7l7 35l-21 21v56h-14zM750 1438v-28h14v28h-14z M617 1424v-21h14v21h-14zM652 1417v-28h14v14zM666 1298v-35h14v35h-14zM750 1291v-7l7 -35h14v35zM617 1270l-7 -7v-7l21 -21v21zM673 1249v-21h7v21h-7zM253 1193v-28h14v14zM484 997l7 -21l21 14l-7 21zM575 1011v-7h14v7h-14zM169 962v-91h14v91h-14zM624 948l14 -14 l7 7l-7 21zM127 948v-7l14 -14v21h-14zM127 885v-28h14v28h-14zM687 710v-35h7v35h-7zM736 661v-7h21v21h-7zM603 430v-168l14 -14v168zM281 395v-91h14v91h-14zM155 381v-49h7v49h-7zM190 360l7 -35v-105h7l21 21l-7 70v42l-14 14l-7 -7h-7zM155 325v-98h21v84l-14 14h-7z M246 304v-49h14v35zM750 297l-7 -35v-14l14 -14h7v49zM701 234v-21h14v21h-14zM841 234v-14h14zM610 185v-14h7v14h-7zM841 129v-14l21 -7v21h-21zM806 115v-42l14 -14v56h-14zM736 80l21 -7l21 7l-14 14h-14zM211 87l-7 -21l7 -21l14 14v14zM113 66l14 -21l-14 -42h28l7 35 l7 -7h21v14l-7 35q-14 -14 -56 -14zM386 17l7 -21h14l7 21l-7 21h-7q-14 0 -14 -21zM358 31v-21h7l14 14v7h-21z" />
<glyph unicode="L" horiz-adv-x="717" d="M57 1741l28 -7l49 7h49l7 -7l7 7h21l14 -14l28 14l28 -14l14 14h105q21 0 21 -28l-7 -35l7 -84v-777l-7 -98l7 -7l-14 -105l14 -91l-7 -126l14 -77q-17 -49 -28 -49l-14 84h-7l-7 -91l7 -7l35 7h7q14 -72 14 -196l7 -7h14l-7 147h7l-7 7v7l14 14q15 -58 28 -63l-7 -49 v-49l7 -70l-21 -14h-56l-63 7l-70 -7h-28q-35 0 -35 14l-42 -14h-112l-21 21v28l-7 196l7 42l-7 21l21 84v21l-14 56v63l14 56v14l-14 56l7 42l-7 70l7 49l-7 56l-7 476l7 385zM127 1062v-28l7 7h7l-7 21h-7zM190 789v-28l-7 -49h7q0 -21 -21 -21v-7q21 0 21 -28h7l14 14v56 l-14 14l14 28l-7 21h-14zM232 761v-7h14v7h-14zM323 740v-14h-7l7 -7v-56l-7 -35l7 -7h7q14 0 14 21q0 98 -21 98zM274 670l7 -35h-42v-35l-7 -7l7 -35l42 42l7 -35h7l14 70q-14 0 -14 63q-17 0 -21 -28zM232 677l14 -14v14h-14zM92 628v-77h21l7 49q-7 23 -28 28zM190 614 l-7 -49l7 -21l21 21v35l-14 14h-7zM155 607l-7 -7v-7l7 -28l-7 -28v-7l14 -14l7 84l-7 7h-7zM323 586v-21h7v21h-7zM106 446v-77l14 14v49zM386 390v-21h7v21h-7zM470 334l7 -7v-49h-7l-14 14v28zM561 334h14l14 -14q-16 0 -21 -35l-21 21v14zM505 327h14l7 -28l-7 -7h-14 v35zM596 327h21v-28h-21v28zM344 299v-35l14 -14v49h-14zM197 264l14 -14l14 14l-14 14zM162 264v-21h7l14 14v7h-21zM512 257h14q0 -35 14 -35l-7 -21l7 -21h7l7 21l-7 35l7 21h21l7 -35v-189l7 -7v-7h-7l7 -7v-7l-14 -14h-14l-7 21l7 7h-7q-14 0 -14 -21l-7 -7h-7l-14 14 v49l7 7l-14 77zM603 229h14q35 0 42 -168v-21l-7 -7l7 -7v-21l-21 -21h-14l-21 21v63l-7 105zM540 173l-14 -56l14 -84h14v126zM169 61v-35h21v35h-21zM211 33v-7l14 -14v35zM344 26l14 -14v28z" />
<glyph unicode="M" horiz-adv-x="1286" d="M69 1713h105l21 -21v-91h14v91l21 21h315q21 -77 98 -784h14v7q0 142 56 532l-7 7q23 226 35 238h14l70 -7l98 7h287l21 -21v-105l-7 -49l7 -84v-756q0 -35 -21 -35v-21q21 0 21 -35v-630l-21 -21h-294l-21 21v315q2 105 14 105l-14 56v602h-7l-14 -14v-14 q0 -161 -112 -1064l-7 -7h-210q-25 0 -42 238l-105 805h-7v-1022l-21 -21h-91l-21 21v84l14 56v7q-21 25 -21 84v49l-14 14v-42l-7 -112l7 -7v-7l-7 -7l14 -126l-21 -14h-14q-35 0 -35 42h-14v-7l7 -21l-21 -14h-42q-42 0 -42 56v315l7 42l-14 133l7 42l-7 49l7 56h-7l7 21 l-7 84l21 35v21l-14 21v70q12 84 28 84h7l7 -7h7v21h-21l-7 -7l-21 7v140l-7 98l21 35v161l-7 63l7 28l-14 133v21zM160 1573v-231l14 -14l7 28l-7 49v154zM111 1419v-7l7 -28l-14 -21q11 -28 21 -28h14v7l-14 56v21h-14zM181 1160l-7 -7v-7l7 -42l14 14v28zM762 1160v-42 h14v7l-7 35h-7zM181 1097v-105q0 -50 14 -77l-7 -28l7 -161l7 -28h7l7 21l-7 7l7 105v14l7 7l-28 147v84zM475 873v-14h7v14h-7zM244 866v-14h7v14h-7zM104 859v-28h14v14zM118 712l-14 -14v-21h14v-7l-7 -49l7 -21l21 21v21q-14 13 -14 70h-7zM202 691v-14l7 -35h7l7 49 h-21zM153 684v-7l7 -35l14 14v28h-21zM244 607v-14l14 -14v28h-14zM118 586v-7l7 -70h7l7 49zM265 530v-14h7v14h-7zM125 488v-14h-7l7 -49v-35l-21 -21l-21 7v-14h21v-21q4 -44 42 -84v140q0 91 -21 91zM265 390q0 -14 -28 -14l-7 -7v-7l49 -7l7 7v7zM951 383v-14h14v14 h-14zM167 208v-21h21l-7 21h-14zM195 187l-7 -7l7 -35h14v28z" />
<glyph unicode="N" horiz-adv-x="1017" d="M111 1660h63l7 -7l7 7h70q14 0 14 -28q14 0 14 28h7l28 -7l7 7h7l21 -7l42 7v-7l7 -28v-42q35 0 49 -126l154 -588l21 7l-14 28l7 21l-7 84v175l7 7l-7 7v105l7 133l-7 28q15 0 21 63l-14 14v56l21 63h21l7 -7l7 7h14l28 -7l7 7h7l7 -7h7l63 7l42 -7l28 7l21 -7l21 7 l14 -28l-7 -35v-14l7 -7l-7 -7v-175q-14 0 -14 21h-14v-56q28 0 28 -14v-49l-7 -7l7 -7v-56l-14 -14l-7 7v-28q28 0 28 -21l-7 -42l7 -7l-21 -56v-14q21 0 21 -21q-5 -49 -14 -49l14 -21l-7 -7v-224l-7 -63l7 -70v-343l7 -28l-7 -28v-21l7 -7l-7 -7v-7l7 -217v-14l-14 -14 l-7 7l-42 -14l-7 7l-7 -7h-7l-21 7l-77 -7l-56 7l-56 -7h-7q-42 0 -42 42l7 28l-21 21v7h21v49h-14q0 -28 -14 -28l-28 119l7 49q-37 0 -56 175q-10 0 -77 280l-7 7v7h-14l7 -105l-7 -70h7l-7 -7v-28l7 -7l-7 -7l7 -84v-329l-7 -63l7 -42l-21 -14l-42 7l-91 -7l-35 7l-42 -7 h-63l-21 21l7 21l-7 70v252l7 42l-7 35v35l7 7l-7 7v21l7 7l-14 77h7l-7 7v21q0 14 28 14v7l-28 7l14 112l-7 7v14h7l-7 105v413l7 7l-7 7v49l7 7l-7 7v49l7 21l-7 35v84l14 42l-14 35l14 14v7q0 35 -14 35q7 56 21 56zM706 1632l7 -7h7l7 7v14h-7zM314 1632v-42h14v28z M181 1618v-35l7 -49h7l7 28q-4 56 -21 56zM356 1618v-14l14 -14v14zM314 1562v-21l14 -14l7 7v14l-14 14h-7zM279 1555v-28h7v28h-7zM146 1548v-28h7v28h-7zM230 1548l-7 -35l7 -21h14v56h-14zM230 1464v-70l14 -14v98zM713 1478v-14h14v14h-14zM272 1457v-42l14 -14v56h-14 zM188 1450v-28l14 -14v42h-14zM902 1450v-14h7v14h-7zM713 1408v-14h14v14h-14zM363 1387v-14h7v14h-7zM916 1394h7v-14h-7v14zM104 1366v-7l14 -14l7 7v14h-21zM146 1345v-14h7v14h-7zM111 1324v-14h7v14h-7zM853 1317v-49h14v49h-14zM237 1296l-7 -28h21v7l-7 21h-7z M279 1289l-7 -7v-7l14 -14l7 7v7zM405 1275l14 -14h7l7 21l-7 7h-7zM363 1282v-14l14 -14l7 7v21h-21zM902 1282v-35l14 -14v35zM678 1233l-7 -28l7 -7l35 14l7 -7v-7l-7 -35h14l7 21l-7 7l7 7q-14 0 -14 35h-7v-14h-7l-21 14h-7zM853 1233v-7l7 -35h14v42h-21zM111 1219 l-7 -7v-7l7 -7h7l7 7v7l-7 7h-7zM811 1212v-14h14v14h-14zM160 1191v-14h7v14h-7zM230 1191v-7l14 -14l7 7v7l-7 7h-14zM370 1170v-42h14v56zM678 1184v-7h14v7h-14zM195 1170l-7 -35l7 -7h14v42h-14zM811 1142l7 -7h7v21zM678 1149v-21h14v21h-14zM860 1149v-14h14v14h-14z M720 1121v-35h14v35h-14zM678 1114v-35l7 -42l-7 -21h14l7 56l-7 42h-14zM468 1100v-14h7v14h-7zM370 1058l7 -35h7v35h-14zM510 1023v-14l14 -14h7v28h-21zM118 1009v-49h14l-7 28l7 21h-14zM209 974v-14h7v14h-7zM769 953v-21h14v21h-14zM167 918l-7 -7v-7l14 -14l7 7v7z M377 911v-14h14v14h-14zM419 883v-7l14 -14l7 7v14h-21zM510 813l14 -14v28zM559 806v-14h7v14h-7zM734 806v-21h14v21h-14zM475 792v-14h7v14h-7zM300 778v-70q0 -21 -42 -21v-14q38 0 56 -21h7l-7 7l7 21l-7 77v21h-14zM559 757v-98h14v35l-7 49l7 7l-7 7h-7zM258 729v-14 h7v14h-7zM650 729v-21h14v21h-14zM608 722v-28h21v21zM216 701v-42l14 14v28h-14zM139 694v-21l14 14l-7 7h-7zM139 652v-14h14zM559 631v-14l7 -35h14v14l-7 35h-14zM307 596v-21h14v7zM608 596v-14l14 -14l14 14l-21 14h-7zM699 596v-21h7v21h-7zM181 561v-21l14 -14l7 7 v28h-21zM272 561v-21h14v21h-14zM664 561v-28l14 14v14h-14zM748 533v-84l14 -14l7 7h7q-21 40 -21 91h-7zM223 526v-28h14v28h-14zM671 519l-7 -35h14v35h-7zM223 449l7 -7h7v21zM839 456v-14h14v14h-14zM230 435l-7 -28h21v7l-7 21h-7zM314 435v-28h21v28h-21zM489 435 v-14h14v14h-14zM664 428v-70h14v70h-14zM755 407v-21h14v21h-14zM230 351v-14h7v14h-7zM664 330v-35l7 -49h7v84h-14zM755 330l-7 -49q14 -17 14 -126h7l7 35v77l-7 49l7 7l-7 7h-14zM797 323v-35h14v21zM888 323l-7 -21q0 -77 21 -77v84zM580 309v-28h7v28h-7zM622 309v-21 h14v7zM531 274v-21l14 -14l7 7v14l-14 14h-7zM846 253v-14l7 -7l-7 -21l7 -21h14l7 35q-10 28 -21 28h-7zM580 232v-42h14v7l-7 35h-7zM895 197v-21h7v21h-7zM111 155v-21h14v21h-14zM762 141v-63h14v63h-14zM853 106v-14h7v14h-7zM622 64l7 -21h21v14l-14 14l-7 -7h-7z M328 29v-14h7v14h-7zM636 29v-14h21v7zM286 8v-14h14v14h-14zM769 8v-70h14l7 28l-7 42h-14zM202 1v-14h7v14h-7z" />
<glyph unicode="O" horiz-adv-x="1005" d="M462 1682q5 -21 28 -28q0 28 14 28h7l7 -7l7 7h14q180 0 287 -147q105 -105 105 -315l7 -21l-7 -28l7 -133v-77l7 -280l-7 -49h7l-7 -7v-28l7 -7l-7 -7v-35q0 -406 -42 -406q0 -74 -84 -161h-21q-12 0 -21 35l7 21l-7 49h-14v-14h-7l7 -70v-56l-49 -35l-14 -14h-7v21h-7 l-14 -35h-14l-7 49h-14v-21l-7 -35h-21v14l-7 49l7 7l-7 7h-7q0 -70 -21 -98l-28 14l-14 -14h-7l-28 7l-7 -7q-169 19 -238 70q-175 160 -175 350l14 35l-14 49l7 56q0 35 -14 35l7 7v7l-7 252l7 56l-7 77v322q16 0 28 21l7 7q0 21 -21 21v7l14 14l-7 49v28q0 192 210 322 q89 42 168 42zM476 1493l14 -14v28zM343 1465v-21l14 14l-7 7h-7zM616 1395v-14h7v14h-7zM441 1304v-322l7 -7l-7 -7v-98l-14 -21v-14h14l7 -189l-14 -42l7 -63v-7l-7 -35l7 -42l-7 -35l7 -77v-42l-7 -28q17 -126 63 -126q56 0 63 84l7 -7h14v28h-7l-7 -7h-7l-7 7v7l14 140 l-7 7v7l7 7v7l-7 21l14 70l-14 21l7 42l-7 378v364l7 -7h14l7 21l-7 35h-14v-28h-7q-14 0 -21 42h-21l-7 -7l-21 7q-49 -32 -49 -84zM287 1374q7 -42 21 -42v28l-14 14h-7zM343 1325v-21h14v7zM210 1269v-35h14v35h-14zM161 1220v-21l7 -35h14v56h-21zM252 1220v-56h7l14 14 v28l-14 14h-7zM119 1192l7 -7h7v21zM343 1185v-14l14 -14v28h-14zM210 1150l-7 -35l7 -7h14v42h-14zM392 1136v-49h14v49h-14zM168 1108v-7l7 -28l-7 -21l7 -7h7v49zM217 1003v-7h14v7h-14zM588 989v-14h14v14h-14zM98 905l-7 -7v-7l14 -14l14 14v7zM630 891v-14h14v14h-14z M98 856v-14h7v14h-7zM413 849v-14h7v14h-7zM679 835v-28l14 14zM364 800v-28h14v14zM322 793v-133h7l7 7h7l-7 84v42h-14zM679 786v-42h14v7l-7 35h-7zM217 702v-21h7l14 14v14zM140 653v-14h7v14h-7zM147 527v-14h14v14h-14zM651 527v-21l14 14l-7 7h-7zM693 499v-21 l14 -14v35h-14zM826 492v-7l14 -14v21h-14zM609 478v-28h7v28h-7zM105 457v-14h7v14h-7zM112 310v-35l14 14v7zM203 296v-14h14v14h-14zM203 254l14 -14v28zM112 261v-42l14 -14v42zM574 177v-21h7v21h-7zM574 128v-7l14 -14l7 7v7zM441 107v-28l14 -14v42h-14zM532 107v-14 l14 -14v14zM707 100v-14h7v14h-7zM672 44v-14h14v14h-14zM532 16v-7l14 -14v35zM581 16v-35h14v35h-14zM539 -19l-7 -70l7 -28h7l7 35l-7 35l7 21l-7 7h-7z" />
<glyph unicode="P" horiz-adv-x="917" d="M70 1705h133l7 -28h14q0 28 14 28h49l21 -14l21 14h7l21 -14l14 14h7q14 0 14 -21l7 -7h7q11 28 21 28h91q52 0 56 -28l-7 -21l14 -231h14v154h21l14 -63l-7 -42l7 -105l-7 -42h-7q-14 0 -14 21h-7l-14 -14v-21l14 -14h7l7 7h7l14 -14l-7 -7l7 -84v-63l7 -35h21v35l-7 7 l7 21l-14 70l7 28l-7 28l7 28l-7 7v7l7 7l-7 35v56l-7 105l7 35l-7 98l14 14h7l7 -35v-70l-7 -7l7 -42h7q14 0 14 21l-7 112l21 7q182 -84 182 -308l-7 -7h7q0 -28 -28 -28q0 -14 21 -14l7 -21h-7l7 -7v-14l-7 -7l14 -35l-14 -49l14 -63v-21q-18 -284 -56 -315 q0 -19 -63 -70h-14v112l-14 14l-14 -21v-14l14 -105l-7 -7h-14l-7 7h-7l-21 -21l-7 7v28l7 35l21 -14h7l7 21l-7 35v21l-21 7v-14h-7l7 -7v-28h-7l-21 56v63l-14 14l-7 -42l7 -56l-7 -7h-7l7 -84v-28q0 -28 -84 -28h-63l-7 7q-49 -9 -49 -21v-35l-7 -63q14 -27 14 -77v-371 l-7 -42l7 -35v-49l-21 -21h-21l-56 7l-77 -7h-182l-7 7h-7l7 35v28l-14 21v525l-7 28l7 7l-7 84v140q2 84 14 84l-7 49v21l-7 644h7l-7 7v42zM525 1670l-7 -63l7 -7h7l7 7h7l-7 35v28h-14zM126 1607v-21l14 14l-7 7h-7zM259 1593v-7h14v7h-14zM133 1558v-63l14 -14l7 7v70 h-21zM308 1544v-49h14v35zM497 1509l28 -28h7l14 14l-7 7v7l7 28l-7 7zM350 1537v-7l14 -14v21h-14zM707 1537v-105h7q21 7 21 42v14l-14 49h-14zM217 1502v-21h7v21h-7zM672 1446v-49l14 14v35h-14zM266 1425l14 -14v28zM448 1404v-434l14 -14h28q77 0 77 161l-7 70l7 105 q0 112 -119 112zM679 1362l-14 -49l7 -7h28v21l-7 35h-14zM224 1327v-28l14 -14l7 35l-7 21zM413 1222v-21h7v21h-7zM231 1215v-14h14v14h-14zM693 984v-21l14 14l-7 7h-7zM609 774v-21h14v21h-14zM518 711v-21h14v21h-14zM350 634v-21h7v21h-7zM371 116v-21h14v7zM105 53 v-14h7v14h-7zM336 53v-28h7l7 7h7l-7 21h-14z" />
<glyph unicode="Q" horiz-adv-x="965" d="M418 1753h14l28 -21q0 21 14 21h14l7 -7l7 7h28l14 -112h7l7 42l-7 56l7 7h14q14 0 14 -21l7 -7h7q0 21 14 21q17 0 21 -70h14v35l14 14q117 -57 154 -119l-7 -35l7 -7h7l21 7l14 -42v-49l-7 -35h-14l-7 49h-21l-7 -77q0 -35 14 -35l-7 -35v-49l21 -21l14 14 q21 -34 21 -91v-21l-7 -7l7 -7v-7l-7 -28q5 -42 14 -42l-7 -7v-7l14 -14l14 63l-7 7l7 21l-7 56h7l14 -14v-7l-7 -28l7 -28v-7l-7 -7l7 -7v-7l21 -518q0 -296 -63 -413q-49 -68 -175 -112v-14q0 -77 70 -77v-35h14v14l-7 7v7l7 7h133q14 0 21 -49q0 -112 -28 -112h-7v-21h28 v-14l-14 -14h-105l-7 -7l-7 7h-7l-56 -7l-49 7l-7 -7h-7l-70 14l-7 -7h-7q-154 0 -154 168l-7 119v63l-28 168h-7v-14q0 -102 14 -154l-7 -42v-28l7 -7l-7 -7v-28l7 -7v-7l-7 -7h-7q-14 0 -14 28h-14v-21q-109 0 -217 140q-58 77 -70 182l21 21v63h-14v-35h-14l-7 28h7 q-14 37 -14 147l7 175l-7 7h7l-7 7v77l7 70l-7 35l7 42l-7 140v77l14 14l7 -7q49 -17 49 -28l14 -14l7 35q-10 29 -35 42l-7 -7h-7l-14 14l-21 -14l-7 42q0 255 133 413q21 0 21 21l7 7h21v-63h21v28l7 35h7q21 0 21 -28l-14 -182q14 -21 14 -56h7l14 119l-14 42l14 112 l-7 42l63 21l7 -7h7q7 21 42 21zM453 1718l-7 -35l7 -35l14 14v42zM369 1704v-35h7v35h-7zM488 1683l14 -49h7v63h-7zM593 1697l-14 -28v-14l14 -28q14 0 14 21l-7 49h-7zM264 1697v-21h-14v7zM327 1690v-35h7v35h-7zM453 1634v-14l-7 -133l14 -21q-21 -28 -42 -168l-7 -7 l14 -42v-28l-7 -77l7 -7v-7l-7 -7l14 -413l-7 -7h7l-7 -21l7 -7v-7l-14 -42l7 -105v-189l14 -98l-14 -14v-7l14 -14h7v21h21l7 -49l-7 -21h-7q-5 35 -21 35v-98q0 -182 21 -182v28l7 63l-7 70v49l14 14l7 -49v-56l21 -7v98l-14 42l7 28l-7 28l7 7h21v-7q0 -105 21 -105l7 42 l-7 21l7 28l35 -7v175h7q14 0 14 -28l7 -7h7l7 42l-7 63h-14q0 -35 -14 -35h-7q0 35 -35 42v63l14 42l-14 28l7 126l-7 175l7 98q28 0 28 28l-7 7h-7l-7 -7h-7l-7 7v7l7 161l14 14v21l-14 14l14 49q-28 62 -28 112l7 35q-37 37 -70 42l-7 7v7l7 35l-14 84l7 28l-7 7h-7z M411 1599v-14h14v14h-14zM628 1599v-14l21 -21l14 21l-21 14h-14zM488 1564l7 -42l-7 -7l7 -7h7l7 7v63h-7zM369 1571l-7 -70h14l14 28v7q-14 0 -14 35h-7zM726 1557v-14h7v14h-7zM327 1536v-14h-7l7 -49h14v14l-7 7l7 21l-7 21h-7zM642 1536l-14 -14v-7l14 -14h7v35h-7z M775 1536l-7 -35h14v35h-7zM593 1529v-35l14 14l-7 7l7 7l-7 7h-7zM544 1522v-14l14 14h-14zM726 1522v-56h14l7 56h-21zM684 1515v-49h7l14 14l-7 35h-14zM236 1473v-14h21v14h-21zM880 1466q16 0 21 -49h-7l7 -7v-14l-7 -7l14 -28l-21 -14l-7 7v21l7 7l-7 7v7l7 21l-7 42 v7zM103 1445v-21l14 -14v35h-14zM726 1445v-21l14 -14v35h-14zM733 1403q0 -63 -14 -63q5 -84 28 -84q28 0 28 -14v-7q0 -14 -21 -14l-21 7v-28q63 0 63 70v7q0 35 -35 35l-21 63l7 21l-7 7h-7zM838 1410h14v-21h-14v21zM285 1375v-21h7v21h-7zM845 1382h7v-14h7l-7 -21h-7 l-14 14v7zM691 1347l-14 -28l14 -77l-7 -7l7 -70v-161q31 0 42 -35h7q28 45 28 70v28q-21 0 -21 77l-7 7h-7v-56l-7 -35q-21 0 -28 98l7 7v7l-7 28l14 14v7l-14 21v63l7 35l-7 7h-7zM285 1340v-21h7v21h-7zM852 1333v-14h-14zM901 1333l7 -7v-84l-14 -14l-14 35q4 70 21 70z M271 1256v-7l14 -21v-147h7l7 7h7l-7 42l7 28l-14 119zM824 1207v-14h14v14h-14zM824 1179v-7l-7 -49l7 -70v-7h14v84l7 28l-7 21h-14zM383 1144l-7 -28l-35 14l-7 -7v-7l7 -35h21v21l35 -28h7v7q-4 63 -21 63zM782 1144v-56h14v56h-14zM656 1032v-7l14 -14v21h-14zM124 997 v-7h14v7h-14zM124 983v-28l14 14zM691 983q0 -35 -14 -35l-7 21l-7 -7h-7l7 -84v-28l14 14l-7 28l7 35h7q14 0 14 -21l7 -7h7l21 7v49l-35 28h-7zM82 969v-42l14 -14h7v21l-7 35h-14zM614 969v-49l14 14v21zM292 962l-7 -7v-14h21v7zM390 955v-7l14 -14v21h-14zM558 948v-28 l21 -7l7 7v7l-21 21h-7zM614 906v-49l14 -14v49zM579 836v-84l7 -35l14 14l-7 98v7h-14zM754 759v-7l14 -14v21h-14zM96 752v-21h14v7zM712 738l7 -119h7l7 35l-7 7v7l7 28l-7 42h-14zM670 717v-14h14v14h-14zM754 710v-21l14 -14l7 7v14l-14 14h-7zM677 640v-14l7 -217h14 v175q0 52 -21 56zM635 591v-35h7l14 14l-7 21h-14zM719 584v-21h7v21h-7zM852 549v-14l14 -14l7 7v21h-21zM817 528v-14h14v14h-14zM600 507v-49h14v49h-14zM376 486v-91l7 -105h7q0 71 14 112v42zM733 472v-28h14v28h-14zM334 451v-14h14v14h-14zM642 416v-28h7l14 14v14 h-21zM334 409l-7 -21l7 -70v-84l-14 -14l-14 14h-7v-70h21v49h14l7 -42l14 14l-14 154l7 42v28h-14zM292 402v-21l14 -14v21zM292 304l7 -7h7v21zM544 318l14 -14v-77l-14 -14l-7 7v49zM264 234l-14 -21l14 -42l14 14v35zM215 227v-42l14 -14l7 49l-7 7h-14zM698 227v-21h14 v21h-14zM166 213v-21h14v21h-14zM341 157l-7 -7v-28h21v21zM264 150l-7 -28l7 -98h14v35l-7 42l7 28l-7 21h-7zM572 122v-84l14 -14v35l-7 49l7 7l-7 7h-7zM313 101v-98h14v98h-14zM222 87v-35h7v35h-7zM537 52v-14h7v14h-7zM495 10v-21h7v21h-7zM537 10l-7 -49l7 -28l14 14 l-7 63h-7zM579 10v-21h7v21h-7zM621 3v-14l7 -35h7v14h7q-9 35 -21 35z" />
<glyph unicode="R" horiz-adv-x="941" d="M124 1628l7 -7h7l21 7l7 -28h21q14 0 14 21h14v-35h7l21 14h7l14 -112h7l7 42h14l14 -28v-7l-7 -77l21 -28l7 49l-7 63h42l-7 7v21h14v21l-21 21q0 -21 -14 -21l-28 21h-7l-7 -7h-7l-14 49l-35 -7l-7 7v7h14v7l7 -7h35l49 7l14 -49h7l14 42h56q4 -28 21 -28l14 14l28 -28 h7v14h14v-21l14 -56v-56h21q0 42 14 42h70l21 14q7 -63 21 -63l21 7q16 -19 21 -70q14 0 14 28l7 7h7q14 0 14 -35h21l7 42l-7 7v7l7 7v7l-14 84h7q46 0 112 -224v-28l-28 -7v-42h14v35h14l7 -35v-70l7 -7l-7 -7v-7q-11 -280 -49 -280h-7v42h-7q0 -98 -49 -98l-70 -28v-7 q182 -81 182 -231l-14 -70l7 -21l-42 -7l7 -7q42 0 42 -126v-203l7 -28l-7 -28v-98l7 -42q-9 -35 -21 -35l-14 14q0 -21 -14 -21l-7 7l-35 -14l-28 7l-28 -7l-7 7v56h-7l-7 -7h-7l7 -35v-7l-7 -7v-7l-21 7l-49 -7v7l-7 -7h-63q-42 0 -42 49l7 35l-7 63v28l14 14h21l21 -14 l7 7v21q0 14 -49 14q-14 35 -14 126v294l7 7q-14 147 -70 147v7l-7 -7h-42v-567q0 -14 -28 -14v-14q28 -23 28 -63l-7 -35l7 -42v-35l-21 -21h-28l-35 7l-42 -7h-35l-28 21h-14v-14h-14v14q0 14 21 14l7 7v7l-7 7l-7 -7h-42v-35l-14 -14l-7 7l-35 -7h-56q-14 0 -21 70l7 21 l-7 28l14 84l-14 105q4 77 14 77l-14 140h7l-7 7v7l7 7l-7 7v84l7 7l-7 7v105l-7 70q12 177 42 231l-7 7v7h21q0 -21 14 -21l7 35l35 -7l7 7v14l-14 14l-21 -7v28q0 14 21 14v21q-30 0 -35 70l-7 7h-7l-7 -7l7 -7v-7q-14 -16 -14 -49h-28l-7 238l7 21l-7 42v224l7 35l28 -21 q17 42 35 42zM131 1600h14v14zM299 1614l7 -21h7v21h-14zM404 1614v-21h7l7 21h-14zM635 1607h14q14 0 14 -21l-7 -35h-14l-14 14zM691 1600q63 -32 63 -49l-7 -7h-7q-63 12 -63 49l7 7h7zM82 1572v-28h7v28h-7zM481 1558l-7 -28l7 -7l-7 -7h21l-7 7l7 7v14zM131 1516v-91 h14v77zM166 1502l14 -21v-126l7 -77l-7 -35l7 -7h7v14h7l-7 7v14l7 63l-7 70v21l7 42l-14 49h-7zM740 1502h7v-14l-14 -14l-7 7v7zM222 1481l-7 -7v-28q0 -56 35 -56v-21l-28 -7v-21h14v-7l-14 -21l21 -21l14 14h7v-42q0 -14 42 -14l21 -21l21 14h7q7 -70 21 -70h7v42l7 7 l-21 84l7 42v35h-14v-7l-7 -70h7l-14 -21l7 -7v-21h-14q-17 0 -21 28h-14v-14h-7l-7 35h14v-14h21q2 28 14 28q-19 51 -42 63l-35 91q0 -31 -14 -42l-21 7l7 7v21zM355 1467v-7h14v21zM439 1432v-7l14 -14h7v21h-21zM810 1432v-14h14v14h-14zM712 1376v-14h7v14h-7z M243 1341h21v-28h-7l-14 14v14zM131 1327v-7l7 -28l-7 -28v-7l14 -14l7 7h7l-14 42l7 28l-7 7h-14zM425 1313v-42h-14v-35l-7 -7v-7l7 -7h7l7 7l7 -84h-7l7 -7v-14l-7 -7l7 -7v-91q0 -49 -14 -49l7 -21h77q35 21 35 49h14l-7 -21q5 -105 21 -105l21 21q-21 69 -21 126l7 7 h56q0 -21 14 -21h7v21l-7 49h-7q0 -28 -14 -28q-16 0 -21 35l7 21l-14 77h-14l-7 -63h-7l-7 7h-7l7 35v35q0 35 -14 35l7 7q-16 98 -98 98h-14zM89 1320v-21h7v21h-7zM628 1285v-14h7v14h-7zM229 1257v-14h7l7 7h7l-7 21zM817 1229v-21l14 14v7h-14zM719 1222v-14h7v14h-7z M719 1187l-14 -35l7 -35h14l21 21q-10 49 -28 49zM628 1173v-70l14 -14l7 35v35l-14 14h-7zM677 1152l14 -14l7 7v7h-21zM145 1145v-35h7v35h-7zM761 1138q0 -35 -35 -35l14 -14v7q35 0 35 -42h14v42q0 36 -21 42h-7zM684 1110v-14h7v14h-7zM859 1110v-28h7v28h-7zM817 1103 v-35l-7 -7l7 -7v-42l-7 -42l21 -49h7l7 56l-7 21l7 56l-7 49h-21zM859 1075v-14h7v14h-7zM733 1047v-49h7v49h-7zM278 1033v-21q0 -35 -14 -35l-21 7l-7 -7v-49l14 -14q0 28 14 28t14 -28l7 -7h14l14 14l-14 28l7 21q-7 63 -21 63h-7zM187 1012l7 -7h7v21zM61 1012h14 l14 -14v-7h-28v21zM586 991l7 -70h-7q9 -49 21 -49h7v35l-7 42l7 35l-7 7h-21zM635 984v-28h14v28h-14zM733 984v-49h7v49h-7zM684 977q0 -49 -14 -49h-35l7 -35l-7 -7l14 -14l7 7h14q16 0 21 -49h7q0 56 21 56q14 0 14 -21h14q0 49 -35 49q-20 0 -21 63h-7zM327 970v-21h7 v21h-7zM418 935l-7 -63h21v28l-7 35h-7zM495 921v-14l7 -35h21l7 28l-14 35h-7zM145 914l7 -7h14v21h-7zM320 928v-7l14 -14v21h-14zM194 900v-7h14v7h-14zM292 872v-14h7v14h-7zM635 837v-14h21l7 21l-7 7h-7zM607 837v-21h7v21h-7zM558 809v-28l14 -14v42h-14zM208 781 v-21l14 14v7h-14zM250 774v-21h7v21h-7zM516 753v-77h14v63zM740 739l7 -70l14 14v14l-7 7l7 7v14l-14 14h-7zM474 697v-14h14zM600 683l14 -14v28zM117 662v-28h7l28 7l28 -14v14l-7 35h-28zM299 676l7 -21l-21 -42l14 -49h14l7 35l7 -7h28v28l-7 7v7q-21 0 -21 -21l-14 14 v49h-14zM614 641h14v14zM747 655l-7 -63l7 -7h7l7 7v49zM243 606l14 -14l7 7v21h-7zM173 599v-21l14 14v7h-14zM215 578v-21h7v21h-7zM173 557v-42h7v42h-7zM68 536v-14l14 -35l21 14l-14 35h-21zM117 522v-7h28v7l-14 14zM565 522v-28l14 -14h7l7 21l-7 35h-7zM607 515v-21 l14 -14h7l14 14l-7 21h-28zM306 501v-14h7v14h-7zM670 494l14 -14v14h-14zM740 494v-7l14 -14h7v21h-21zM796 487v-7h14v7h-14zM838 487v-14h14v14h-14zM82 466v-21h21v14zM222 452v-42h7l14 14v14l-14 14h-7zM82 424l-7 -28l7 -7h7v35h-7zM621 417v-14l-7 -35l7 -42v-28h14 l7 112l-7 7h-14zM845 417v-21h21v21h-21zM838 368v-7h7l14 14v7h-7zM572 361l7 -35l-14 -14l14 -49l7 7h7l-7 49v42h-14zM831 305l7 -7h7l7 7v14h-7zM89 305l7 -35h-14v-21h21v56h-14zM243 95l-14 -21l7 -7h21v14zM327 95v-21h14v21h-14zM271 74l14 -14h7l14 14l-14 14h-7z M96 81v-14h7v14h-7zM103 39l14 -14h21v14h-35zM229 32l7 -21h7l14 14v14h-14l-7 -7h-7zM229 -24v-35h14l14 14v35h-14zM782 -31v-21h7v21h-7zM684 -80v-14l35 7v7l-14 14h-7zM145 -80v-7l14 -14h7v21h-21z" />
<glyph unicode="S" horiz-adv-x="933" d="M441 1790q89 0 112 -35l21 14q112 0 238 -154l28 -77v-14l-7 -7v-7q26 0 35 -280l-21 -14h-84l-7 7l-7 -7h-175l-7 7l-7 -7h-7q-42 7 -42 21v21h14l-14 21l14 63v7q-29 140 -56 140h-14q-70 0 -70 -112v-63q0 -139 175 -238q315 -230 315 -420q12 0 21 -175h-7l7 -7v-49 l-7 -7l7 -7v-14q0 -14 -28 -14l-7 -7v-14q23 0 35 -14q-11 -103 -35 -140l7 -7v-7q-31 -85 -63 -98v21h-14l7 -35q-119 -126 -308 -126l-7 28q-38 -2 -63 -28l-28 28l-21 -14h-7l-14 14l-7 -7h-7q-77 14 -77 42h-35q-70 27 -70 133v14l-21 -7v-42h-7q-45 31 -77 189l14 14v7 q-21 26 -21 49v98l-7 77l7 21l-7 35l28 14l126 -7l21 7l7 -7l70 7h91l21 -21q-4 -84 -14 -84l-49 -7l-7 7l7 7v14l-14 14h-7v-21l7 -7l-7 -7v-7l7 -21l-7 -56l7 -35h14l7 7h7q12 -15 21 -98q18 0 56 -49l42 -7l49 21q14 98 28 98l7 -7l-7 -35l7 -28l21 21v21l-7 7l14 28 l-42 7q0 228 -126 301q-288 222 -336 329l-49 210l7 35l-7 21l7 21l-7 49q14 299 168 371l7 -7q4 28 21 28q14 0 14 -21h14q0 28 14 28h7l7 -91l14 14v63l7 35l35 -7l14 14h7l7 -7l28 14q11 -28 21 -28h7q2 35 21 35zM553 1734l-14 -42l14 -63v-91l7 -35h7q21 0 21 28 q-21 36 -21 70q4 63 21 63l14 -14v21h-28v49l-14 14h-7zM413 1706v-84q14 0 14 21l-7 63h-7zM238 1678v-21h14v21h-14zM721 1671l7 -49v-14h7l14 14v42l-14 14l-7 -7h-7zM189 1643v-7l14 -14v35zM364 1636v-21h21v21h-21zM588 1622l7 -7h7v21zM280 1629v-14l14 -14v14z M672 1629v-49h7l14 14v35h-21zM553 1475v-28l14 14v28zM560 1419l-7 -35v-42l21 21v21l-7 35h-7zM560 1265v-14h7v14h-7zM112 1244v-14h21v14h-21zM294 1153v-7h21v21h-7zM252 1160v-28h21v28h-21zM406 789v-35h7v35h-7zM98 593v-14h7v14h-7zM147 565v-28h7v28h-7zM231 551 l7 -35l-7 -7h-7l7 -21h14v14h7l-7 21l7 21h14l14 -84l-7 -56l7 -7h7l7 7v161h-28v-14h-14v14h-7zM343 495h21v-7l-7 -35h-14l-14 28zM238 446l-14 -70v-7h21v77h-7zM98 341v-14h7v14h-7zM133 334v-49h21l7 35l-7 21zM609 341l-7 -7v-21h14l7 7h7l7 -7v7l7 -7h21v21h-21z M189 334v-49h14v49h-14zM686 334q5 -77 21 -77v63l-14 14h-7zM280 299v-21h7l7 21h-14zM777 271v-14l7 -49l21 21l-14 42h-14zM231 103l7 -35h14q0 42 42 42v14l-14 14q-49 -21 -49 -35zM182 68l7 -7h14l14 14l-14 14zM385 82l-14 -70l7 -7h14v77h-7zM511 82v-14h7v14h-7z M280 75v-7h14v7h-14zM469 68l7 -70h7l7 63l-7 7h-14zM280 19q0 -12 42 -21v7l7 -7h14l14 14v14h-7l-49 -7v7z" />
<glyph unicode="T" horiz-adv-x="893" d="M442 1701l7 -7l-7 -21l14 -77h21l7 35l-14 63l7 7h28l28 -7l49 7h273l7 -35v-280l-7 -35q-106 0 -168 14l-28 -7l-7 7q-21 -24 -21 -140h7q0 -21 -21 -21v-21h14v-14l7 -42l-28 -56h-14q-7 56 -21 56h-7v-14h-7l7 -7v-63l-14 -14q0 21 -14 21q-16 0 -21 -35h-7l-14 49v35 h-14q-12 0 -21 -49q-21 0 -21 -21h-7l-42 49l-14 -49h-7l-7 21l7 7v21l-14 21v56h-21v-49h-35v-35l35 -14v-7q-21 0 -35 -28v-105q4 -42 21 -42q2 35 14 35l-7 35v28h7l14 -14v-35h14l7 56h7q12 0 28 -42h7l7 63h21l-7 -7v-7l14 -14h7l-7 49h28l-7 -7v-7q13 0 21 -63l-7 -7 v-7l7 -112v-35h7l14 14v7l-7 70l7 42h14l7 -49v-21h14v35l21 21l14 -35h7l14 49h14q12 -49 21 -49l-14 -56l14 -112l-7 -7l7 -84v-210l-7 -63l7 -70v-301l-21 -21h-343l-21 14l7 7l-7 84v623l7 77l-7 35l7 7v7l-7 21q28 45 28 126q-19 33 -28 98l7 21l7 280h14l7 -21l-7 -7 v-7l21 -49l-7 -21h14v21l7 35h14l7 -42h14l7 35v7q0 14 -42 14v14h-7l14 21l-28 49h14v7l7 -7h14l28 7l42 -21l49 35l28 -7v21l-14 14l-21 -14l-28 14l-7 -7h-7l-21 7l-14 -14h-7l-7 28l7 7h-14v42q-12 63 -28 63l14 28q-42 0 -42 98h14l14 -14v-35h14l7 42h14l14 -42h21v28 h7q14 0 14 -70l14 14l-7 49q14 0 14 28l7 7h7zM78 1694l14 -14v-63h7l21 21l28 -14q0 70 14 70q13 0 21 -63h7q0 63 14 63h14l7 -35h21v35h21v-28q16 -84 35 -84q-18 -45 -35 -49l-14 14v35h-14v-56q0 -25 -21 -42q-28 7 -28 28l7 21l-7 7h-7l-7 -70l-21 21l7 7l-7 21h-14 v-7l7 -21l-7 -42l14 -14l28 7v-7l-7 -42l7 -28h-14l-14 35l7 28h-21v-70h-21v98h-21v-21h-14l-14 49l7 21h7q14 0 14 -35h21l14 49l-28 21h-21q0 -21 -14 -21h-7v7l21 28q-15 0 -28 56l7 28h-7q7 56 21 56zM120 1687h7v-28h-7v28zM36 1540h7l14 -14v-14h-21v28zM36 1505h14 v-14h7l-7 -35h-14v49zM36 1442h21q0 -35 35 -35l7 -35v-14l-49 -7l-14 21v70zM274 1442l14 -14v-7l-7 -7l7 -7v-21l-7 -35h-7l-21 21l14 42l-7 21l7 7h7zM596 1428v-21h7v21h-7zM652 1414v-14h7v14h-7zM225 1400l14 -21v-7l-14 -14h-14l-7 28zM456 1351v-21h14v-7l-14 -21 q14 -18 14 -63h7l7 49l-7 70zM386 1351l7 -21h7v21h-14zM393 1316l-7 -21l7 -21h7q0 28 14 28l21 -14v7q0 12 -42 21zM505 1316v-21l21 -21l14 14v21zM554 1295h21v14h-7zM526 1211v-28h7v28h-7zM526 1176v-35l14 14v7zM302 1162v-21h21v7l-14 14h-7zM463 1036h21v-7h-21v7z M610 1029h7l21 -21l-21 -84h-14q0 28 -14 28q7 77 21 77zM512 973h7l14 -14l-7 -35h-14l7 7l-7 7v35zM554 966h7v-14h-7v14zM316 861v-21h7v21h-7zM582 861l-7 -21l7 -7h7l7 7l-7 21h-7zM449 854v-70h14v35l-7 35h-7zM407 756v-28h14v14zM589 756l-7 -7v-7l14 -14h7v14z M323 700v-56h14v56h-14zM498 700v-21h14v21h-14zM330 434v-14h14v14h-14zM554 434v-42l21 -21l7 21q-9 42 -28 42z" />
<glyph unicode="U" horiz-adv-x="965" d="M59 1720h70l28 -7l28 7h70l42 -14l14 14h28q77 0 77 -21v-119l-7 -126l7 -70h-7l7 -7v-168l-7 -112l7 -21l-7 -49l7 -224l-7 -49l7 -77v-266q0 -189 42 -189q63 0 63 98v133q0 32 28 49l-7 35v98l7 7l-28 98l7 7l-7 245v140l7 28l-7 28v56l7 7v7h-7l7 7v7l-7 56 q0 35 21 35v7q-21 0 -21 49v56l7 7l-7 7l14 161l-14 42l7 21h28q0 -21 14 -21q4 28 21 28l21 -35v-14l-7 -21h7l7 -7h7q0 62 14 77q49 -17 49 -28v-21h-7l-21 14l-7 -35q0 -12 42 -21l7 -28q16 0 21 35h14l7 -35h21q14 0 14 42h14l7 -42h7q0 70 21 70l21 -21l7 21l-7 28 l7 21h21v-84l7 -7l-7 -7v-14l21 -28v-7l-14 -21l7 -21l-7 -42q16 0 21 -98v-14h-7l7 -140v-364q0 -40 -35 -77v-14q14 -14 28 -98l-7 -21l7 -70l-14 -28l14 -42l-7 -203l7 -7v-7q-7 -56 -21 -56l-21 7l-7 -7v-7q0 -14 28 -14q0 -112 -175 -252q-106 -49 -175 -49h-84 q-205 0 -343 196q0 25 -28 56v14h28v35h-21l-7 -28h-7l-28 154l7 49l-7 126v63l14 14l14 -175h14l7 21l-7 21l7 21q-10 196 -28 196q0 -21 -14 -21l-7 7v35l7 42q-14 30 -14 112v35l7 70l-7 42l7 91l-7 21l21 112v21l-14 77v336l-7 7q14 42 28 42zM829 1720v-35h-14l-7 28 l7 7h14zM199 1699v-91l14 -14v70l-7 35h-7zM241 1692v-91h7l7 7h7l-7 7v77h-14zM724 1699l14 -14v-28h-14v42zM563 1685l-7 -35l14 -14l7 7v7l-7 35h-7zM108 1678v-119l7 -84h7l7 70l35 -7l7 7l-7 70h-7q0 -36 -21 -42l-14 105h-14zM150 1664v-21l14 -14v49zM381 1615l7 -7 v-7l-7 -28l7 -7h7v70q-14 0 -14 -21zM66 1622v-77l21 -7v42h-14l7 21l-7 21h-7zM339 1615v-21h7v21h-7zM199 1566v-7l14 -14v35zM710 1531q-24 -42 -49 -42v-14l7 -7l-7 -7v-21l14 -14q14 0 14 21l-7 21q16 0 35 56v7h-7zM346 1440v-70h14v56zM206 1426v-21h14v21h-14z M297 1412v-35h14v35h-14zM248 1405l-7 -21l14 -42l21 7v42l-14 14h-14zM682 1377l28 -14h7l14 14l-21 21h-7zM115 1391v-49h14l-7 49h-7zM626 1391l-7 -7v-7l21 -21v14l7 7l-14 14h-7zM164 1335v-28h14v28h-14zM122 1300l-7 -7v-14l14 -14h7v21zM535 1286v-14l7 -7l-7 -7 l7 -49v-28h14v35l-7 70h-14zM80 1265l-7 -63l7 -7h14v56zM164 1216v-14l14 -14l14 14v14l-14 14zM122 1223v-21l7 -28l-7 -21h21l-7 21l7 28l-7 21h-14zM227 1216v-14h7v14h-7zM584 1209v-49l14 -14v63h-14zM269 1195l-14 -35h7l7 -7h7l7 7v21zM304 1118v-21h21v7l-14 14h-7 zM591 1083v-56h14v42zM682 1083v-49l14 -14l7 7v21l-7 35h-14zM689 1013v-21h7v21h-7zM276 985v-7h14v7h-14zM871 950v-21h14v21h-14zM829 943v-7h14v7h-14zM605 754v-7h14v21zM108 705l-14 -21l21 -196l-7 -21q5 -77 21 -77l7 7l-14 133l7 105h21l7 -84v-42h14v14l-7 84h7 l-7 7v7l7 49h-14l7 35l-21 -7zM696 677v-14l14 -14l7 7v21h-21zM745 677v-35h21v35h-21zM787 663l14 -14l7 7l-7 21zM556 649v-7l7 -35h21l7 35v14l-14 14zM612 663v-28h14v28h-14zM647 642v-7h21v21h-7zM199 635v-21h7v21h-7zM45 635h7v-21h-7v21zM248 628l-7 -56l7 -7h7 l7 7v42zM339 579l-7 -7v-7q11 -28 21 -28v28zM563 579v-14l14 -14h7v28h-21zM619 572v-14h7v14h-7zM164 453v-14h7v14h-7zM857 362v-28h14v28h-14zM808 306l-7 -7v-7h21zM815 243v-14h7v14h-7zM171 208v-7h14v7h-14zM276 12l-7 -7v-21h7l14 14z" />
<glyph unicode="V" horiz-adv-x="1033" d="M31 1657h63l35 -7v7l21 -14l-7 -7v-7l14 -42v-63l14 -14v14l-14 126l21 7l7 -7l70 7h154q21 0 21 -28l14 -161l-7 -42q14 -18 14 -70h7l-7 -7v-7l14 -126l-7 -21q21 0 42 -427l7 -21l-7 -7v-7l21 -175q16 0 35 350l7 21l-7 7l7 7v35q31 595 49 595l-7 7v14l14 63h21 l21 -14h7v14h126l7 -7l7 7h35l7 -7l7 7h84l7 -7h7l7 7l14 -21l-7 -35l21 -42v-35q-4 -182 -21 -182l7 -7v-7l-42 -350h7q-119 -988 -119 -1064l-21 -14h-196l-56 14l-56 -14h-14l-63 7l-63 -7l-105 7l-14 112l7 35l-7 21h7q-30 0 -77 518l7 21l-7 42v42q-30 0 -77 497l14 21 l-28 56l7 7h-7l21 35v35q-45 0 -63 308zM101 1636v-7l14 -28h7l7 35v7h-7zM892 1615v-21h7v21h-7zM836 1601v-70l21 -7v84zM297 1580v-21h14v21h-14zM801 1573v-42h14v28zM752 1545v-21h14v21h-14zM115 1524v-63l14 -14v63zM164 1489v-21h7v21h-7zM850 1398v-21h14v21h-14z M899 1356v-7l14 -14v21h-14zM150 1272l7 -7v-7q0 -21 -42 -21v-21h14l28 7l21 -7l14 35l-14 42zM122 1286v-14h7v14h-7zM213 1244v-28h21v28h-21zM290 1223v-14h21v35zM262 1230l-7 -7v-7l7 -7h14v7zM164 1104v-14h21v14h-21zM220 1097l-7 -21l7 -7h14l7 21l-7 7h-14z M143 1027v-77h14l-7 28l14 28l-7 21h-14zM738 873v-21h7l7 21h-14zM675 817l-7 7h-14l-14 -14l7 -42h7l7 28h14l7 -21l-7 -7l35 -28v7l-7 7l7 7h-7l7 7v7l-7 7v7q0 35 21 35v7l-14 14h-14q-17 0 -21 -28zM157 796v-28h7v28h-7zM472 663l-7 -7l7 -21h7l7 21l-7 7h-7zM360 635 v-14h21v14h-21zM605 565h14v14zM710 467v-14h7v14h-7zM822 236v-7l14 -14v21h-14z" />
<glyph unicode="W" horiz-adv-x="1554" d="M42 1780l7 -7h343l63 -924l-7 -35q14 -24 21 -140l21 21l-7 35v35l7 7l-7 7q42 561 84 903l7 7h7l-7 21q6 63 21 63h273l7 7l7 -7h28l7 7q56 0 56 -35l7 -49l-7 -21q15 0 28 -343h7l-7 -7v-7l14 -98l-14 -28l14 -21l-7 -7l7 -84v-63l14 -56v-14l14 -287l7 -7h7 q0 196 28 196l-7 7v7q0 322 42 322l-14 91q40 497 63 497h14l56 -7l140 14l140 -7l7 -7v-7l-168 -1736l-35 -7h-420q-33 0 -112 679v7h7l-7 7v63l-14 77v28h-14l-21 -147h7l-7 -21h-7l-21 14v-21h28q-61 -679 -91 -679h-14l-315 -7l-35 7l-49 -7q-56 0 -56 140l-154 1610z M1267 1696l14 -14l7 7v7h-21zM1393 1619l-7 7l-28 -7v-14l14 -21l-7 -42l21 -14q0 21 49 21v14l-14 21v7h14v14l-28 56q-14 0 -14 -42zM1281 1591h7l-14 -49l7 -49l-7 -42l7 -28h14q0 21 21 21l21 49h-7l7 7v7l-7 63l-7 -7h-7l-14 14v7h14l7 -7h7l7 35h-14v7q-42 -9 -42 -28 zM1386 1591h7v-14h-7v14zM1309 1556h14v-21h-14v21zM1323 1514v-35h-21l-14 14v7zM1148 1325v-21h14v21h-14zM1253 1311v-7h14v7h-14zM1281 1304l7 -21h14v28h-7l-7 -7h-7zM175 1150v-14h14v14h-14zM273 1115l7 -7h7v21zM231 1101v-21h14v21h-14zM959 849v-7h28v28h-7z M840 849v-21h14v21h-14zM833 807l7 -7v-7l-7 -7l7 -7l-7 -7l21 -14l7 21l-7 7h7l-7 21h-21zM714 786v-21h7v21h-7zM203 765v-28h7v28h-7zM245 737l-7 -49l21 -14l7 7v21l-14 35h-7zM581 632v-28h7l35 7v14l-7 -7zM364 240l-7 -7v-7l7 -28l14 14v14z" />
<glyph unicode="X" horiz-adv-x="1013" d="M135 1636l7 -7h245l14 -14l28 14q12 0 77 -427l7 -7h7l77 434h308v-14h7q-119 -658 -126 -777l189 -959h-14l-7 7l-35 -14l-7 7l-70 -7h-196q-34 0 -126 574h-7q-63 -552 -84 -574h-336l-21 14l133 973l-35 210l7 28q-12 0 -21 35l7 7v7q-84 390 -84 483h49zM401 1594 v-49l14 14v21zM163 1251v-7l14 -14v21h-14zM884 -58v-28h42q-14 28 -42 28zM884 -93v-7l14 -14v21h-14z" />
<glyph unicode="Y" horiz-adv-x="945" d="M35 1737h7q105 -2 105 -14l56 14h175q84 -514 84 -616l7 -7v-7h7q5 42 14 42l-7 7v7q80 574 105 574h329v-7q-105 -462 -154 -602q-28 0 -28 -14l21 -35l-105 -469v-217l-7 -63l7 -70v-189q0 -91 -21 -91h-315l-21 21v112l7 56l-7 77v245q0 23 21 49l-105 434l7 21 l-35 98l7 49v35q0 38 -35 42l-49 196l7 7v7q-12 0 -77 308zM161 1562v-14h7v14h-7zM203 1562v-14h14v14h-14zM224 1212v-63l14 -14l7 7v35l-7 7v7h7l-7 21h-14zM294 1170l-21 7l-7 -7l7 -49h49l14 14v14l-7 35h-7zM364 1170l-7 -21l7 -21h21v7l-7 35h-14zM420 1170l-7 -7v-7 l14 -14l7 7v7zM511 1156v-14h14v14h-14zM518 1128v-14h7v14h-7zM602 1128v-14h14v14h-14zM637 1121l7 -21h14l7 21l-7 7h-7l-7 -7h-7zM518 1002v-70h14l7 35v21l-14 14h-7zM651 995v-21h7v21h-7zM238 988v-7h14v7h-14zM280 988l-14 -49l21 -7v-7l-7 -7l7 -21h7v70l-7 7v7 l7 7h-14zM378 939v-56h14v56h-14zM518 897v-42h14v42h-14zM378 806v-28h14v28h-14zM287 743v-28h7l14 14l-14 14h-7zM364 183v-28h7l7 7h7l-7 21h-14zM406 183v-21l14 -14h14v21l-14 14h-14zM455 176v-7l14 -14h7v21h-21z" />
<glyph unicode="Z" horiz-adv-x="781" d="M86 1745h336l56 -7l56 7h182l14 -14v-301q-21 -142 -280 -1064l7 -21h84l70 -7l63 7h35l21 -21v-315l-21 -21h-658l-14 14l-7 140l7 35l-7 35l294 1183h-238l-21 21v168l7 77l-7 56v7zM569 1521v-21h21v7l-14 14h-7z" />
<glyph unicode="[" horiz-adv-x="569" d="M107 1705h154l91 -7l77 7h49l21 -21v-210q0 -25 -21 -42l-35 7l-28 -7v-154l-7 -56l7 -77v-259l-7 -28l7 -28v-119q0 -49 -14 -49l7 -7v-42l-7 -35l14 -126l-7 -63l7 -7v-7l-7 -28v-7l7 -7l-14 -28l7 -7l-21 -7v-14h7l7 7h7l7 -35v-28l28 -14l35 14l7 -7v-91l7 -28 l-7 -28v-7l7 -7l-7 -7v-7l14 -77l-28 -14l-56 7l-35 -7l-63 7l-7 -7l-35 7h-28l-28 -7l-7 7h-7l-63 -7l-49 14v14l7 -7h7l7 7v21q0 14 -21 14v35q2 35 14 35l-14 28l-7 301q0 126 35 126h7l14 -42v-56l14 -14h7v98q-14 77 -77 77v7l7 21l-7 35l7 28l-7 84v385l-7 28l7 7 l-7 42l7 252v196zM275 1278l7 -21h7v28l-7 -7h-7zM135 620h14v14zM226 571v-35l14 14v21h-14zM107 480v-14h7v14h-7zM331 417v-21h14v7zM240 410v-14h14v14h-14zM373 410v-42h14l7 35l-7 7h-14zM289 389v-14h7v14h-7zM296 361v-21l14 14l-7 7h-7zM156 340l7 -21h14v7l-14 14 h-7zM163 305v-14l14 -14v28h-14zM135 193l-7 -7l7 -49h21q-4 56 -21 56zM177 144v-14l7 -35h14v35l-14 14h-7zM317 116v-21h14v21h-14zM135 95v-42h14v28zM317 74v-7h14v7h-14zM443 11v-7l14 -14l14 14v7l-14 14zM142 11l-7 -35l7 -7h14v7l-7 35h-7z" />
<glyph unicode="\" horiz-adv-x="777" d="M313 1747l98 -427l-7 -21q30 0 105 -385l210 -875l-7 -21q17 0 35 -91l-7 -7h-231q-56 0 -56 119l-133 532l7 7h7l21 -14h7v14l-14 14l-7 -7q-41 0 -154 602q-21 27 -140 553l7 7h259zM404 1278v-35h7v35h-7zM355 1257v-7h14v7h-14zM404 557l-7 -7v-14l14 -14h14v14z M439 543v-14l7 -35h14v63h-7zM593 410v-14h-7l21 -28l7 35v7h-21zM586 340v-7h21v21h-7zM411 270v-14h14v14h-14zM446 214l-7 -7v-7l7 -7h7l7 7h7l28 -7v14zM670 67v-14h7v14h-7z" />
<glyph unicode="]" horiz-adv-x="569" d="M115 1717h364l21 -21v-133l7 -42l-7 -35v-28l7 -7l-7 -7l7 -35l-7 -175v-315l7 -28l-7 -28v-49l-91 -7q0 -21 28 -21l21 7q0 -68 42 -105l7 -21q-12 -49 -21 -49l14 -42l-7 -28l7 -21l-7 -70l7 -154l-7 -28h-14l-7 21h7l-14 28q-56 -6 -56 -28l7 -7h-14v-35h21l21 14 q0 -21 28 -21l14 14l14 -14v-126l-7 -28l14 -119l-21 -14h-56q-21 0 -21 49l-42 -7v-42l-28 7l-49 -7h-126q-35 0 -35 14l-7 -7h-14l-14 14v63l7 7l-7 7v84l14 14l7 -28l-7 -7h7l-7 -21l7 -28l-7 -28l21 -14v161q0 14 -28 14l-7 7v14q52 0 56 -21l-7 -21q7 -56 21 -56h7 l-7 70q0 63 42 63v7q0 40 -35 77v14q28 11 28 21l-21 21q11 98 28 98l-14 42l7 7q-28 0 -28 21q2 35 14 35l-7 49v133l-7 7l7 7l-7 147l7 189l-7 7h7l-7 7v119l7 70l-7 56l7 28q0 21 -35 21l-56 14v70q0 189 28 189zM304 1234v-14h14v14h-14zM353 1157v-35h14v35h-14z M269 1136v-21h7v21h-7zM318 1059v-7h21v21h-7zM185 1059v-14h7v14h-7zM234 982v-7h14v7h-14zM283 968v-28h7v28h-7zM241 947v-21h14v7zM234 905l14 -14v14h-14zM290 870l-7 -35l7 -7h7l7 7v35h-14zM241 856v-84h21v49l-7 35h-14zM206 821v-14l7 -7v-7l-7 -7l7 -7h7v42h-14z M248 730l7 -7v-7l-7 -21l7 -7h7l7 7l-7 56q-14 0 -14 -21zM199 737l7 -7v-42h21v21l-7 35h-7l-7 -7h-7zM290 744l7 -49h14v49h-21zM381 744v-7l14 -14v7zM423 744v-14h21v14h-21zM339 737v-7l7 -21h7v28h-14zM220 562l-14 -14q21 -37 21 -84h14l-7 35v49zM402 471v-42l7 -35 h14q-5 77 -21 77zM451 471l-14 -35l7 -21h14l7 35v7zM276 457v-14h7v14h-7zM360 408l7 -49l7 7h7l-7 56zM318 387v-14h7v14h-7zM283 331v-21h7v21h-7zM318 324v-14l14 -14l7 21l-7 7h-14zM374 317l-7 -7v-42h28v7q0 36 -21 42zM430 296h21l-7 -7v-7l7 -7h-14zM234 275v-21 h21v21h-21zM283 275v-7h14v7h-14zM311 268v-21h14l14 14l-7 7v7zM206 128v-14h7v14h-7zM248 93v-21h14v21h-14zM437 30l-7 -21l21 -14v21zM122 16v-28l14 14v14h-14z" />
<glyph unicode="^" horiz-adv-x="961" d="M453 1344h140q49 0 77 -133q93 -215 126 -350q24 -12 147 -378l-7 -7h-56l-56 14l-28 -7h-7l-7 7l-35 -14l-14 21v63l-14 14q-14 -11 -14 -77q-24 0 -91 245l-98 252l-35 -91h-14v-28q-49 -203 -77 -203l7 -28q-48 -161 -70 -161l-42 -7l-28 7l-21 -7v7l-7 -7h-133v7 q42 149 329 854zM334 1036v-21h14v21h-14zM691 910q0 -28 -21 -28v7l-21 -7v-21l14 -14q42 21 42 42h7l-7 21h-14zM600 812l14 -14h7v28h-7zM698 812v-35l7 7h7l-7 28h-7zM663 693v-14h7v14h-7zM705 665l-7 -7v-7l14 -14h7v14zM257 560v-7l21 -7l7 7v28h-7zM768 574v-56 l14 -14q5 42 14 42q-10 28 -21 28h-7zM229 539v-42h14v14h7l-7 28h-14zM810 525v-21h14v21h-14z" />
<glyph unicode="_" d="M142 119l56 -7l7 7h7l7 -7h7l35 7l112 -7h35l42 7l70 -21q0 16 84 21l56 -7l7 7h7l28 -7h7l7 7l7 -7h42l7 7l7 -7h14l28 7l28 -7h7l7 7l7 -7h70l42 7l35 -7l7 7h7l28 -7h28l7 -35v-56l-21 -21h-462l-77 7l-21 -7l-28 14l-42 -14l-7 7l-84 -7h-245l-14 14l-7 -7h-21 l-14 14q0 98 91 98z" />
<glyph unicode="`" horiz-adv-x="682" d="M356 1306q46 0 119 -168q50 -74 63 -126l-7 -7h-7l-98 7l-7 -7h-7q-58 0 -161 126l-168 168l7 7h266z" />
<glyph unicode="a" horiz-adv-x="881" d="M437 1430l7 -7l7 7h7q28 -7 28 -28l-7 -42l7 -28l-7 -56l7 -35h7l14 70l-14 14q11 28 21 28l7 -7v-28l-7 -7v-7l21 -14h14l-7 7v14l14 14q-4 40 -21 63l14 28h7q54 0 70 -35l7 7h14q21 -7 21 -42v-70l-7 -28l14 -63h-7l7 -21q14 0 21 56l-14 140h14q21 -7 21 -42l-21 -35 q10 -29 35 -42l7 7v7l-7 21l7 7h7q21 0 21 -77h7v63h7q19 -9 63 -210h-7l7 -7v-49l-14 -21l7 -28l-14 -14v-7h21v-21l-7 -7l14 -28l-7 -28l7 -7v-7h-7l7 -7v-14l-7 -28l7 -21l-14 -14v-14l14 -42l-7 -21l7 -21v-14h-7l7 -189v-315q0 -14 -28 -14v-119q28 0 28 -14 q-7 -28 -42 -28q-84 0 -84 14q-31 -14 -91 -14l-70 7l-56 -7q-14 32 -14 91v7h-7l-77 -84q-80 -42 -119 -42l-21 14l-21 -7q-84 0 -161 91q-56 68 -56 210v217q0 165 112 217l56 42h21v-28q4 -42 21 -42v7l-7 77q252 108 252 182v56q0 210 -63 210l-7 7h-14q0 -21 -14 -21 h-7v49l-7 35l7 42v35h-28q0 -23 -42 -28q0 21 -21 21l-7 -7v-14l7 -7l-7 -7v-112h21v119h7q56 -23 56 -35v-21l-7 -7l-28 -14q0 -35 -14 -35q0 -56 49 -56v-140h-7q-14 0 -14 21l-21 -14l14 -35l7 7h21v-56l-7 -7l7 -7v-42l-49 -7l-28 7v-7l-35 14l-21 -7l-7 21h-14l7 -7v-7 l-14 -14q-70 0 -70 28l7 35q-28 0 -28 49q16 0 21 35l-21 14h-7q0 -21 -21 -21l-21 -49v-21q0 -35 56 -35l7 -7v-7l-7 -7h-21l-7 7l-35 -14q-19 0 -35 35q10 56 21 56l-14 70q0 291 245 392q65 21 119 21q7 -56 21 -56q0 63 21 63zM731 1318h7l14 -14h-7zM717 1206v-21 l14 -14v49zM766 1171l-7 -35l7 -35h14v56zM724 1150v-35h7l7 28l-7 7h-7zM290 1010l-7 -7v-49l14 -14h7v56zM682 982l7 -35h14v49h-7zM150 982v-7l21 -7l7 7v7l-7 7zM220 919v-14l14 -14l14 14v7l-7 7v7q21 0 21 14v28h-7q-21 0 -21 -49h-14zM213 954v-14h14zM157 919v-14 h14l14 14l-14 14zM290 919v-42h14l7 42h-21zM696 877v-7h14v7h-14zM563 849v-14h21v14h-21zM521 821v-28h14v28h-14zM437 814v-28h14v28h-14zM311 702v-28h7v28h-7zM570 695v-7h14v7h-14zM220 632l7 -21l14 14v14h-7l-7 -7h-7zM367 429q0 -238 49 -238h14q49 0 49 49v112 l7 63l-7 70v98l7 35l-7 7h-21q-91 -88 -91 -196zM227 555v-49h14v49h-14zM717 520v-14h7v14h-7zM717 450v-21h7v21h-7zM192 415v-63l14 14l-7 21l7 21l-7 7h-7zM717 394v-7h14v7h-14zM717 359v-28l14 -14v42h-14zM591 317v-63l-14 -21l21 -21h7v105h-14zM549 226l-7 -21 q9 -35 21 -35h7v21l-7 35h-14zM199 205v-49l14 -14l7 7v7l-7 49h-14zM598 184l-7 -63l7 -7h14l-7 70h-7zM157 156v-7l14 -14h7zM696 142v-28h7l21 7l14 -14h14v21h-14v7l-7 -7h-14zM647 107l-14 -14h-14l-7 7h-7l-14 -35l7 -21h14l21 14h14l21 -7v7l7 7v7q-14 32 -28 35z M703 107l-14 -21v-7l7 -35h7q21 0 21 28l7 -7h21l7 21zM549 79v-7l21 -7v14h-21zM780 65v-35h7l7 28l-7 7h-7zM563 37v-21h7l7 21h-14zM696 23v-14h14v14h-14zM563 9v-21l14 14l-7 7h-7zM255 -19v-21l14 14l-7 7h-7z" />
<glyph unicode="b" horiz-adv-x="957" d="M73 1709q21 0 21 -35h7l7 7h7l-7 7v14l21 7l14 -21v-147l-7 -7l7 -7v-70h21l21 49l-7 28l7 -7h7v14q-21 0 -21 14v14h7q16 0 21 -35q14 0 28 42l21 -7v-42l14 14l-7 28l14 14l-7 28v7h7l7 -28l21 14l-7 42q6 63 21 63h7l7 -98h-7l7 -28h7l7 7h7l-7 84v21l14 14h63l7 -35 v-350l14 -14h7q85 105 161 105l14 -14l14 21q112 -15 112 -56h7l21 14h14q0 -21 28 -21l28 -35l-7 -21l7 -7v-7l-7 -28l7 -7h7l7 35q24 0 35 -140l-7 -42q14 -27 14 -77v-399q0 -26 -28 -70l21 -14v-14h-7l14 -133l-7 -56v-28l7 -35q0 -268 -175 -343l-70 -14v7l-7 -7h-7 q-110 0 -224 140q-12 -112 -28 -112q-98 0 -98 49v7h-7q0 -56 -28 -56l-175 7l-7 -7q-14 31 -14 112v266l14 28l-14 28l28 77l7 -7h14l14 14v7l-7 7l7 7v7l-7 35l7 7l-7 7h-7l-7 -63q-35 10 -35 49l7 7l-14 70l7 28v7l-7 7l7 7l-7 189v392l21 28l-7 7l7 35v56h7q16 0 21 -35 h7l14 49v28l-7 7l7 7q-7 167 -28 210h-7l-7 -56l7 -7v-28h-7l-7 7h-7l7 42q-3 65 -21 84v14zM248 1513q0 -63 -14 -63h-14l-7 7h-7l-7 -28l7 -35h14l7 35l42 -14q-5 98 -21 98zM381 1506v-56h14v42zM297 1464v-28h14v28h-14zM339 1436v-14h7v14h-7zM157 1429v-14h7v14h-7z M94 1422l7 -7v-7l-7 -21h-14v21zM339 1408v-21h14v7zM255 1387v-21h14v21h-14zM297 1380v-21h14v21h-14zM339 1352v-21h14v21h-14zM206 1331v-14h14v14h-14zM528 1324v-14h14v14h-14zM255 1317v-21h14v21h-14zM339 1317v-14h7v14h-7zM206 1289l7 -7h7v21zM794 1303v-56h14 l-7 56h-7zM388 1289v-28h14v28h-14zM577 1289l-7 -7v-7l14 -14l7 7v7zM619 1289l-7 -7v-14h14v-7l7 7h7l35 -7v21zM157 1268q6 -63 21 -63l7 21l-7 42v14h-7zM255 1282v-28l14 -14l7 21l-7 21h-14zM339 1282v-7q0 -77 21 -77v70l-14 14h-7zM710 1282v-28h14v28h-14z M437 1275v-21h14v21h-14zM206 1261l7 -70l-7 -21l7 -42v-42h14v63l-7 42l7 7v7l-7 7v7l7 35l-7 7h-14zM752 1261v-35h14v21zM668 1240v-14h-7l7 -21h7v35h-7zM430 1212l14 -14l14 14v14h-14zM479 1212l14 -14l14 14l-14 14zM801 1226v-21h7v21h-7zM710 1219v-28h14l7 21 l-7 7h-14zM409 1037l14 -14h7l-7 -49v-154l-21 -28v-35h14v-21l-14 -21v-7q21 -27 21 -63v-98l-7 -7l7 -21l-7 -7l14 -105l-7 -35l7 -7l-7 -7q0 -175 56 -175l28 -7l28 49l-7 35l14 49l-7 56l7 98l-7 161v70l14 14q8 -63 21 -63v63l-7 7v7l-7 -7h-7q-14 0 -14 49h-7l7 7 l-7 119l7 63l-7 21q0 63 28 63v49q-36 22 -56 98q-63 -30 -63 -49q-14 -84 -28 -98zM535 1177v-14l14 14h-14zM619 1135v-7h14v21zM171 1142l-7 -77l7 -70v-14h14l7 84q-14 11 -14 77h-7zM262 1086l7 -56h7l7 49l-7 7h-14zM80 1079v-28h14v28h-14zM129 1079l-7 -35v-7h21v7 l-7 35h-7zM717 1079v-35h14l-7 35h-7zM850 1079l7 -56h7v14h7l-7 42h-14zM213 1072v-35h21v14zM584 1072l-7 -7v-21l14 -14l7 7h7q-9 35 -21 35zM626 1051v-14h7v14h-7zM276 953v-14h7v14h-7zM87 946v-14h14v14h-14zM318 946v-14h7v14h-7zM710 946v-7l14 -14h7v21h-21z M276 869v-21h7l14 14v7h-21zM94 848v-35l7 7h7l-7 28h-7zM227 827h7l-7 -7l7 -49v-14h14v35l-7 49zM325 820q0 -35 -14 -35l21 -28l14 56l-7 7h-14zM178 792v-21h28v21l-14 14zM276 806v-21h14v7zM598 806l-7 -7v-42h14l7 35zM367 799v-21h7v21h-7zM864 792v-7h14v7h-14z M556 764v-21h7l7 21h-14zM374 722v-56h14l-7 56h-7zM682 722v-14h7v14h-7zM241 652l-7 -91h7l-7 -21h-7l-21 14l-14 -14l14 -21l-14 -35l14 -77h14l7 7h7q-10 28 -21 28l14 42l-7 35h14l21 -77h14l7 28l7 -7h21q2 28 14 28l-7 35v49h7q21 0 21 -105l7 -7h7l7 35v28l35 7 l-7 28l7 28v7q-49 0 -49 56h-7q0 -65 -28 -70q0 21 -49 21l-14 49h-7zM101 631v-14h14v14h-14zM192 631v-28h14v28h-14zM283 631v-14h14v14h-14zM605 582v-7h14v7h-14zM563 575v-42h14v42h-14zM136 491q19 -70 28 -70l7 7v49l-7 35h-14q-14 0 -14 -21zM605 512v-14h14v14 h-14zM696 505v-35l14 -14l7 7l-7 42h-14zM563 498v-14h14v14h-14zM654 491l-21 -28l-14 14h-14v-7l7 -35q21 0 21 21q14 0 14 -21h21v42zM745 491v-21h7v21h-7zM115 435v-14h7v14h-7zM115 351v-14h14v14h-14zM612 351v-28h7l14 14v14h-21zM220 239v-21h14v21h-14zM591 155 v-14h7v14h-7zM409 148l-7 -35q5 -35 21 -35q2 28 14 28l-7 42h-21zM87 106v-21l14 -14v49zM367 92v-42h7l7 42h-14zM500 64v-21h14v21h-14zM136 50v-14h7v14h-7zM318 43v-56l7 -7v-7l35 14v56h-42z" />
<glyph unicode="c" horiz-adv-x="901" d="M458 1366q77 0 77 -42h14q0 21 14 21q143 -49 203 -147l7 -35v-14q42 0 42 -63l7 -28l7 -42h7l-7 -7v-35l21 -84q-18 -91 -28 -91l-56 7l-56 -14h-98l-42 7l-7 -7h-7q-49 0 -49 35h-7q7 56 28 77q0 14 -21 14v28l7 28q-23 131 -42 140l-35 -7q-10 28 -21 28 q-14 -42 -14 -182v-28l-7 -7l7 -7v-35l-7 -77l7 -35q-14 0 -14 -21l14 -28l-14 -21l7 -119v-147l7 -42l-7 -35l7 -35l-7 -21q7 -159 49 -168h35l42 21v231l7 84h-7l7 21l105 7h21q21 0 28 -91l-7 -63v-28l21 -161l-7 -28l21 -28l7 7v56l-7 28l7 28v63l14 14l7 -7h7v28 q-49 17 -49 28l7 28l-14 56v49q0 21 147 21l14 -21v-70l-14 -105l7 -21q-14 -16 -21 -126q-104 -245 -245 -245v14h-14v-7l7 -21l-7 -7h-21l-7 7l-42 -14l-7 7v21l14 14l28 -21h7v63h-21q0 -35 -14 -35h-7q-7 91 -21 91l-7 -7l14 -105q0 -28 -56 -28v-7l-7 7h-35 q-266 39 -266 217l-21 -14q-18 0 -56 196l7 7v7l-7 7v7l7 21l-14 63v133q2 35 14 35l-14 112l7 98v189q1 70 14 70l-7 7q44 203 105 203q2 51 161 112l7 -7v-28h7l14 14l-14 21l42 14v-7zM353 1324v-7h21v21h-7zM353 1289v-14l14 -21l-7 -7v-7l7 -7h7v56h-21zM185 1254v-7 h14v7h-14zM227 1254l-7 -7v-7l7 -49h14v49zM269 1254v-14h14zM409 1219l7 -35h7v35h-14zM325 1121v-14h7v14h-7zM367 1121v-28l14 14v14h-14zM101 1093v-7l7 -77l-42 -63l14 -42h42v21l7 84l-14 14v70h-14zM185 1093v-14h14v14h-14zM367 1072v-28l14 14zM696 1072v-21l14 14 l-7 7h-7zM325 1051v-21h14v21h-14zM325 1002v-42l14 -14h7v21l-7 35h-14zM185 995v-28l14 -21l-7 -70l14 -28l-7 -7h7l-7 -7v-7l7 -77v-7h14v91h14q0 21 14 21v70h-7v-35q-35 9 -35 105h-21zM59 988v-14h14v14h-14zM283 904q11 -28 21 -28l7 21l-7 28h-7q-14 0 -14 -21z M297 834v-21h7v21h-7zM115 820l-28 -49l14 -14l7 7l7 -7h21v56zM241 799l7 -21h14v28h-7l-7 -7h-7zM171 799v-63l14 14l-7 49h-7zM297 785v-56l7 -7v-7l21 7l35 -7l-7 35l-14 -14q-34 0 -35 49h-7zM171 722v-133h14v21l-7 35l7 42v21zM297 708v-14h7v14h-7zM346 687v-63 l7 -42l-7 -21l7 -7h7v133h-14zM297 666q5 -98 21 -98v98h-21zM213 659v-21l14 14l-7 7h-7zM80 631l7 -49l49 21v28h-56zM213 624v-98h7l14 14v70l-14 14h-7zM171 519v-14h14v28zM353 505v-35h14v35h-14zM227 421v-35q4 -42 21 -42v77h-21zM178 365v-28h14v14zM640 365v-28 l21 21v7h-21zM101 344v-35l-7 -42l21 -28v105h-14zM591 302l7 -161l7 -7h7v77l7 77l-7 35h-7q-14 0 -14 -21zM178 316v-28l14 14v14h-14zM780 302l7 -7h7v21zM234 288l7 -7h7v21zM549 246l7 -42h14l7 42l-7 21zM780 246l7 -35h7v35h-14zM241 225l-7 -35v-42l7 -70 q14 0 14 42h7l-7 35v56zM787 183v-21h7v21h-7zM199 148v-21h14v21h-14zM283 120l-7 -28l7 -21h14v49h-14zM605 92v-28h14v14zM241 64v-14h7v14h-7zM199 50v-49h14l7 35l-14 14h-7zM164 36l-7 -35l7 -7h14v42h-14zM696 15v-14h21l-14 14h-7z" />
<glyph unicode="d" horiz-adv-x="949" d="M608 1725h35l56 -7l56 7h63q0 -35 14 -35h7q0 28 14 28l7 -7v-7q-11 -56 -35 -56v-28h28l-7 -7l14 -56v-7l-21 -28l7 -28l-7 -7l7 -21l14 -455h-7l7 -7v-126q0 -14 -28 -14v-42q28 -24 28 -49v-14l-14 -28l14 -42v-28l-7 -28l7 -28v-21l-14 -49l21 -413l-7 -112l7 -7 q0 -35 -63 -35h-98l-35 7l-42 -7h-112l-21 21v63h-14q-109 -112 -224 -112q-135 0 -217 182l-21 217l7 84l-7 42l14 35l-14 21l7 7l-7 70l7 294l-7 154l7 42l-7 7v7q0 229 140 301h14v-49l7 -35h14v42l-7 42q0 28 77 28v-42l14 -14l7 7v21l-7 7l7 21h21q74 0 175 -91h14v266 q2 35 14 35l-14 42v21q0 21 112 21zM699 1697v-14h14v14h-14zM699 1662l-7 -7v-7l14 -14h7v14zM524 1648l7 -21h21v14h7v-14h21v21h-56zM608 1648l7 -21h28v14h7v-14h21v21h-63zM783 1620v-119q21 0 35 63q21 0 21 14v7l-42 35h-14zM615 1592l7 -21h7l7 21h-21zM699 1578 v-98l35 7v42h14q-35 38 -35 63zM622 1536v-14h7v14h-7zM580 1501v-21h14v21h-14zM615 1494v-21h14v-42l14 14l-7 49h-21zM664 1480v-21h14v35zM804 1431v-35h21v35h-21zM223 1403l-7 -7v-14l14 -14h7v21zM132 1361v-56h14v42zM811 1312v-21l14 -14v49zM314 1319v-28l14 -14 h7v42h-21zM804 1242q4 -42 21 -42l7 42l-7 21zM139 1235v-28h7v28h-7zM769 1235v-49h14l7 42l-7 7h-14zM454 1228v-28h7v28h-7zM384 1081l7 -308v-504q0 -54 35 -70h28q42 0 42 175v679q0 133 -42 133q-70 0 -70 -105zM104 1137v-28h14v28h-14zM818 1137v-49h14v35zM55 1039 v-21l14 14l-7 7h-7zM650 899v-21h14v7zM699 885v-21h7v21h-7zM846 829h7v-14h-7v14zM118 794v-35h14v35h-14zM118 696v-42h7l14 14v14l-14 14h-7zM83 668v-168h14v168h-14zM41 381q4 -42 21 -42v56h-7zM685 388v-28h14v14zM776 381v-35h7v35h-7zM48 297v-7h14v21z" />
<glyph unicode="e" horiz-adv-x="929" d="M459 1326q295 0 392 -308l21 -161v-42l7 -7l-7 -7l7 -119v-112l-21 -21h-98q-126 0 -126 28h-7q0 -21 -28 -21l-14 14l-21 -14l-21 14l-21 -14l-7 7h-7l-42 -14l-7 7h-7q-49 -7 -49 -21v-56l7 -42l-7 -21l7 -70l-7 -28q0 -231 42 -231h21q63 9 63 63v217l7 70l-7 7l21 14 h98l84 -7l84 7h42q14 0 21 -70q0 -423 -210 -511q-79 -49 -203 -49q-427 0 -427 525q0 21 21 21l7 7v21l-28 7l7 35v105l-7 245q35 392 105 392q88 112 161 112l7 -7h7q0 24 140 35zM312 1284v-14h7v14h-7zM235 1109v-35h7v35h-7zM410 1011v-224h98v189q0 80 -35 91h-28 q-35 -18 -35 -56zM235 1053l-7 -77l7 -70v-7l-7 -7v-7l21 -14h7v126q0 52 -21 56zM536 675v-28l7 7h7l-7 21h-7zM571 647l7 -28h21v28l-14 14zM613 647v-21l21 -21v49zM676 654v-49h14v14l-7 35h-7zM270 486v-7l14 -14v21h-14zM312 451v-21h14v7zM235 430v-21l-7 -63l7 -21 h7l14 84l-7 21h-14zM137 409v-14h7v14h-7zM774 402v-7h14v7h-14zM774 360l14 -14l7 7v7h-21zM781 325v-14h14v14h-14zM186 276l7 -21h7v28l-7 -7h-7zM193 241v-21h14l-7 21h-7zM151 136v-14l14 14h-14z" />
<glyph unicode="f" horiz-adv-x="569" d="M294 1646h56l21 -14l14 14q23 0 28 -119h7v91l-7 7l7 21h28v-63q14 0 14 -21l-45 4v21h7q0 -21 14 -21l52 -32l-14 -21q0 -12 35 -21v35l-66 25v14l21 84l80 -4l14 -14h-7l7 -7v-7l-7 -7l7 -7v-63l-14 -56l14 -14v-21l-21 -21h-56q-14 0 -14 28h-7q0 -42 -42 -42l-7 -7 v-105h42l7 -7l7 7h70q21 0 21 -77v-133l-21 -21h-63v-203l-7 -7l7 -7v-154l-7 -7l7 -7v-42l-7 -28l7 -7v-7l-7 -7v-7l7 -35l-7 -28l7 -7v-21h-7l7 -70v-217l-7 -28l7 -28v-35l-7 -49l7 -63v-91l-21 -21h-21l-7 7l-7 -7h-287l-21 14v14h7l-7 84v252l7 77l-7 7v7l7 7l-7 49 v665h-56l-21 21v189l21 21l7 -7l49 7v70q0 100 35 133q0 77 28 77l7 -7l-7 -7v-14l14 -14l7 7v35l-7 7l7 7q0 21 49 21v14h14l7 -7h7zM224 1611v-7h14v7h-14zM399 1464l7 -35h14l21 21l-21 35zM245 1296v-14h7v14h-7zM245 1240v-21h14v21h-14zM294 1240v-21l14 -14l7 7v7z M378 1240v-7h14v7h-14zM420 540v-21l14 14l-7 7h-7zM441 190l14 -14v14h-14zM413 1l-7 -35v-14l14 -14h7v49zM273 -34v-28h21v42h-7zM182 -55l14 -14v14h-14z" />
<glyph unicode="g" horiz-adv-x="949" d="M307 1357q182 -37 182 -119h42q0 35 21 35v28l-7 7v7l21 14h266q56 -5 56 -84v-833q0 -14 -28 -14v-7l28 -28l-7 -7l7 -84v-161l-7 -35h-7q-21 0 -21 91v7h-21v-14l7 -84h-49l-84 -7v-56l28 -21v14h7v-21l42 21v7l-7 35h21q0 -42 14 -42t14 21l-7 21h14v-42h14v-7l35 14 v-7l7 -21q0 -221 -273 -329l-175 -21q-254 0 -350 161v49q-35 0 -35 112v14l14 21l56 -14l63 14l91 -14l112 7q28 -79 56 -91h21q56 0 70 105v56l7 7l-14 42v35h-14q-72 -70 -203 -91q-177 0 -245 196l-14 126l7 140l-7 56h7l-7 7v7l21 70l-14 42l7 28l-7 35l7 28l-14 28 l7 7v7l-14 28l7 49v147q0 191 133 280h21l7 -56h7l7 28l-7 35q28 21 84 21zM132 1259v-7h14v7h-14zM216 1168v-14l14 -14h7v28h-21zM223 1112l7 -7v-168l14 -14h7l7 7h7l7 -7v-42h14l-7 49v28q-35 0 -35 49l-7 42l7 7v7l-7 56l-7 -7h-7zM412 937l7 -42l-7 -91h-7l-7 21h7 l-14 35h-14l-7 -28h-7l-35 28l-7 -28q-14 0 -14 28h-14l-7 -56l7 -7h14q0 21 14 21h7l14 -49h14v21l21 -7h14l21 7v-7l7 -28l-7 -7v-7l7 -35l-7 -98v-35h-14l21 -28v-14l-7 -77l7 -21l-28 -42q14 0 14 -21l-7 -21l7 7q21 0 21 -28l42 -21l56 21l-7 70v105q28 30 28 56v21 l-7 28l14 42h21v21q-28 0 -28 14v28q-24 378 -42 378l-35 14q-56 0 -56 -168zM139 1091v-21h7v21h-7zM265 1084v-35l14 -14v49h-14zM370 1042v-70l14 -14h7l-7 70v14h-14zM601 1021v-56l14 -14v84zM188 951v-7l14 -14v21h-14zM139 944l-7 -7v-14h21v7zM230 895l7 -21l14 14 v14h-7l-7 -7h-7zM237 867l-7 -28h14v28h-7zM846 762l14 -14v14h-14zM342 741v-14h14v14h-14zM671 657v-147l21 -49v-7h7l7 35q-7 63 -21 63l7 21l-7 63v21h-14zM622 622v-35h7l14 14l-7 21h-14zM727 503v-14h-7l7 -7v-56l-14 -14l-14 35h-7v-42q-56 -7 -56 -21l7 -7v-7l35 7 l14 -14l7 7h21l7 -7q21 5 28 28l-7 77v21l-14 14h-7zM783 433l-14 -49l21 -14l7 7l21 -7q28 11 28 21l-28 28l-7 -7h-7l-7 21h-14zM846 356v-14l-49 7h-14v-21h14l49 7l7 -7v28h-7zM839 216v-7h14v7h-14zM566 76l-7 -7l14 -84h7q14 0 14 21q-9 70 -28 70zM622 62v-14h7v14 h-7zM664 62v-56l-14 -14l-14 42h-14l-7 -35v-14l21 -7l7 7h7l35 -7v7l-7 42v35h-14zM734 55h7v-21h-7v21zM76 -71v-14h14v14h-14zM223 -211v-28h14v28h-14zM272 -218v-14h14v14h-14zM314 -218v-14l14 -14l7 7v21h-21z" />
<glyph unicode="h" horiz-adv-x="937" d="M65 1625l7 -7h7l21 7l14 -14l28 14l21 -7l35 7l7 -7l49 7h56l42 -7l35 7h21l14 -49l-7 -168v-161h14q114 91 196 91l7 -7h49q2 -35 21 -35q0 21 14 21l14 -21v-91l14 -56v-49h14v77l14 14q5 -35 21 -35v91l14 14l35 -49v-7l-7 7h-7l-14 -14l21 -21l7 28h7l28 -84 q-9 -35 -21 -35q-7 56 -28 56l-7 -42q16 -42 28 -42h7q14 0 14 28h7l14 -161v-623l-7 -70l7 -63v-259q0 -35 -42 -35v-7l-21 7l7 7v14l-14 14h-7v-21l7 -7v-7l-7 -7h-147l-28 7l-28 -7h-63l-21 21v21q21 213 49 252l7 21l-7 7h-7l-21 -21h-7l-14 56l7 49l-7 84v168l7 161 l-7 70l14 28l-7 28q7 77 21 77l-28 49v63q0 59 -42 77h-7q-63 0 -63 -140h-21v-21l7 -7l-7 -7v-21l28 -56l-7 -203v-91q0 -49 -14 -49l7 -7v-7l14 -238q-7 -84 -21 -84l-14 35h-14l-7 -7h-7l-14 14h-14q0 -35 -35 -35v-21h35l21 -14l14 14v-7l42 14l7 -7v-14q0 -59 -21 -84 v-7h14l14 -21l-7 -7v-7l7 -35l-7 -42v-42l-42 -7v7l-7 -7h-294l-21 21v126l7 84h7l21 -14l7 7l-14 56l14 28h14l14 -63h7v70l-7 35h-14q0 -21 -14 -21l-7 7l-14 -21v-35h-21v14l14 42l-7 7h7q-14 27 -14 77v21l28 21l35 -14l21 21l14 -14h7v63l7 42l-7 63q-13 0 -21 -63 l7 -42v-21l-14 -14l-28 7l-7 -7l-7 7l-14 -14l-21 63v574l7 35l-7 42v490l7 42l-7 28l7 7h7zM65 1590l14 -14h7v28h-7zM751 1296h14l7 -28h-7l-14 14v14zM639 1275v-35l7 -35h28v49q-21 0 -21 21h-14zM688 1261l7 -35h7v49zM772 1240l7 -7v-7l-7 -28l-14 14v14zM695 1219 l-7 -70l7 -42v-56h7l14 14v56l-7 7l7 7v21q-14 14 -14 63h-7zM653 1030v-42h14v28zM107 988v-14h14v14h-14zM576 848l14 -14v28zM765 848v-112q2 -35 14 -35l21 7l14 -35h21l-7 7l7 7v28q0 14 -21 14l-21 -7v7l-21 119h-7zM79 785v-21l14 14v7h-14zM723 708l-7 -35v-35 l14 -49h14l49 -7l7 7v7l7 -7h21v7l-7 7v7l-7 -7h-14l-14 63h-7v-14h-21q-19 53 -35 56zM674 694v-14h-7l7 -21h14v14h7l-7 21h-14zM632 687v-28h7l7 21l-7 7h-7zM814 666l7 -7l-7 -7v-28h7l14 14v7l-7 7v7l7 7h-21zM632 645v-21h14v21h-14zM219 477v-28l14 -21l-14 -84 l21 -14h7v7l-7 119l7 35h-14zM366 484v-35h14v21zM275 477v-35h21v14zM275 421v-7h21v7h-21zM366 421v-126h21l-7 7l7 7v91l-7 7v7l7 7h-21zM275 407l7 -7l-7 -7l7 -35v-28h14v56l-7 7v7l7 7h-21zM317 407l7 -21h7l7 21h-21zM632 379l-7 -7v-7l7 -7h-28v-21q28 0 28 -21 l7 -7h7l14 28q0 35 -28 42zM324 358v-21l14 -14h7l-7 35h-14zM555 358v-21l14 -14v35h-14zM149 197v-56l21 7v7h-14v7h14v21l-14 14h-7zM289 197v-14l14 -14v28h-14zM632 169l-7 -7v-14l14 -14l7 7v14zM758 162l-7 -7v-7l14 -14h7v14zM800 162l-7 -7v-7l14 -14l7 7v7z M149 120v-14l21 -7v28zM296 113v-35l14 -14l7 7v21zM632 113l-7 -7v-28l14 -14l7 7v28zM254 99v-21h7l14 14l-7 7h-14zM338 99v-14h-7l7 -21h21l14 14l-28 21h-7zM618 43v-21h28v21h-28z" />
<glyph unicode="i" horiz-adv-x="455" d="M34 1721h35l35 -7l42 7l63 -7l21 7l28 -14l14 14l14 -14l28 14l21 -21h14l14 14q42 -9 42 -21v-49l-7 -35l7 -42v-56l-21 -21h-84q-35 0 -35 14l-42 -14h-77l-77 7l-28 -7l-14 21v175zM111 1406l7 -7l49 7h28l63 -7l70 7h56l21 -21v-427l-7 -133l7 -21l-7 -70v-21 l-14 -21q21 -4 21 -56v-63l-7 -91l7 -98v-126l-21 -35q21 -34 21 -63l-7 -105l7 -77l-21 -14h-56l-56 7l-77 -7h-147l-21 21v462l7 7l-7 7v154l7 84l-7 91l7 91l-7 140v364l14 14h7l42 -7zM370 1196v-21l14 -14v35h-14zM335 853l14 -14h7v28h-7zM118 846l-7 -7v-7l7 -7h7 l7 7v7l-7 7h-7zM118 769v-14h35l-14 14h-21zM160 769v-14h21v14h-21zM349 769l-7 -7v-7l21 -14h7l-7 7v7h14v7zM349 734v-7h21v7h-21zM349 699v-7h21v7h-21zM265 545v-7h14v7h-14zM363 489l7 -21l14 14v14h-7l-7 -7h-7zM230 377v-7h21v7h-21zM55 237v-14h7v14h-7zM132 237 v-21h28v21h-28zM244 237v-14h14v14h-14zM335 237v-21h14v21h-14zM335 62v-14h21v28h-7z" />
<glyph unicode="j" horiz-adv-x="505" d="M323 1599l42 -14l7 7q21 0 21 -21h14q0 21 14 21h14l7 -35v-175l-21 -21h-315q-42 0 -42 35l7 168l7 28h105l28 -7l28 7h77zM211 1571v-14h7v14h-7zM113 1550l7 -7h14v21h-7zM169 1564v-14h7v14h-7zM169 1508v-14l14 -14l7 7v7l-14 14h-7zM85 1277h322l35 -7v-539l-7 -28 l7 -28v-231l7 -42l-14 -42l7 -7v-7l-14 -21l14 -21v-280l-7 -105l7 -7l-42 -14v-21q35 0 35 -21q-46 -210 -203 -210q0 -14 -119 -14h-105l-21 21v189l21 21h21l7 -7h7l42 49l-21 77l7 98v21l7 7l-7 7v301l-7 98l7 28l-7 21l7 77v35l-7 7l7 7v70l-7 7l7 7v119l7 56l-7 77 v203l-7 35zM295 276v-7h21v21h-7zM344 101v-7h14l14 14v7h-14zM302 73l14 -14v28zM309 52v-14h7v14h-7zM106 -88v-21l7 -7v-7l21 7v28h-28zM176 -109v-14l14 14h-14zM309 -123l7 -7h7l7 7v14h-7z" />
<glyph unicode="k" horiz-adv-x="929" d="M84 1725h105l42 -7l21 7l7 -7v-7l84 14l7 -7h7l28 7l42 -7v-105l-7 -35l7 -42v-98l-7 -35l7 -42v-133l7 -28l-7 -28v-42q0 -59 -14 -91l7 -7h14l105 371l35 7h252l14 -14l-140 -567l140 -623l-7 -21q49 -139 49 -210l-7 -7h-301q-56 0 -56 161l-77 357h-7l-7 -7l7 -210 v-14l-7 -77l7 -7v-7l-21 -84q21 0 21 -98l-21 -14h-56l-56 7l-77 -7h-140q-21 5 -21 56v49l7 7v7h-7l7 7l-7 84v371l7 63l-7 70v476l7 42l-7 35v49l7 77l-7 21l7 7l-7 49v266zM308 1690v-42l14 -14v56h-14zM91 1424v-14l14 -14h14v28h-28zM196 1424l-7 -7v-7h21zM105 1347 l7 -7h7v21zM210 1067v-28l14 -14l7 21l-7 21h-14zM357 150q0 -26 -35 -42l-7 -28l7 -7h14l42 14v63h-21zM84 108v-35h14l14 14q-14 0 -14 21h-14zM119 87v-7l28 -7l7 7v7h-14v7z" />
<glyph unicode="l" horiz-adv-x="455" d="M50 1637h350l21 -21v-399l-7 -7l7 -7l-7 -35v-7l7 -7v-7h-7l7 -7v-14q0 -35 -28 -35v-14q28 0 28 -21l-14 -21l7 -7v-21l7 -119h-7l7 -7v-7q-5 -84 -21 -84q21 -36 21 -70v-301l-7 -329l7 -196l-21 -14h-336l-21 21v91l14 112l-14 56v777l7 98l-7 70v21l7 35l-7 42v28 l7 56l-7 77v238zM239 1252v-14h-7l7 -7v-21l-7 -7v-7l21 -14l49 14v7q-37 0 -49 42l-7 7h-7zM337 1252v-14h14v14h-14zM92 1210l-14 -42q70 -23 70 -63l-7 -21l7 -7h21l14 49l-21 56l14 14v7l-21 7l-21 -7zM351 1098v-21h7l14 14l-7 7h-14zM134 993l7 -7h21v21h-14zM288 993 l7 -7h21v7l-14 14zM372 797v-14h21v7zM155 517v-14h14v14h-14zM211 230v-7l14 -14h7v21h-21zM176 174v-70h21v35l-7 35h-14zM225 174l-7 -42l7 -21h14v63h-14zM358 139l7 -49v-14h7l14 14v21l-7 7v7h7l-7 21h-7l-7 -7h-7zM127 139l-7 -21l14 -49h21l-14 70h-14zM316 139v-35 l7 -35h21l-7 49v21h-21zM92 132l-7 -7v-14l7 -35l14 14v28zM274 118v-21l14 -14v14h7l-7 21h-14z" />
<glyph unicode="m" horiz-adv-x="1454" d="M631 1474q158 0 252 -154l56 49l21 -7l7 21l-7 21q77 70 175 70q196 -43 196 -189q14 0 14 -35q14 0 14 -84h7l-14 -49l7 -7l-7 -7l7 -7h-7l14 -42v-140l-7 -28l7 -49v-812l-21 -21h-42l-7 7l-7 -7h-259l-14 14v14l-7 91l7 21l-7 112v175l7 56l-7 77v497q0 154 -42 154 h-28q-42 0 -42 -175v-665l-7 -70l7 -63v-217l-21 -21h-315l-21 21v602l7 70l-7 63v168l7 161q0 126 -63 126h-14q-42 -22 -42 -77v-189q0 -175 -14 -175l14 -49l-7 -28l7 -112v-49l-7 -203l7 -21l-7 -21l7 -182v-84l-21 -21h-203q-35 0 -35 14l-84 -14l-14 21v56q1 70 14 70 l-7 7v7l7 21l-14 217l35 7v21l-14 14l-14 -14h-7v7l7 77l-7 56l7 42l-7 203v609l21 21h322l14 -14v-98h7q109 140 196 140zM1086 1397l-7 -70l7 -7v-42h7l14 14q0 35 -14 35l14 63h-7l-7 7h-7zM1135 1390v-14l21 -21v35h-21zM1002 1362v-14l49 -49h7l7 21q-16 42 -28 42h-35 zM624 1348v-14h7l14 14h-21zM1289 1313v-21h7v21h-7zM1142 1306v-7l14 -14v21h-14zM1191 1306l-7 -7v-7l7 -7h7l7 7v7l-7 7h-7zM1198 1229v-21h7v21h-7zM680 711v-14h7v14h-7zM85 501v-7h14v7h-14zM274 438v-28l7 -7v-7h-7l14 -42l7 7h7l7 -7v14l-14 21l7 7l-7 7l14 14 l-21 21h-14zM134 424v-14h21v14h-21zM106 298l-7 -7v-14h7l14 14l-7 7h-7zM106 270l-7 -7v-28h21l7 21zM1282 88v-21h7v21h-7zM1282 60v-7h14v7h-14zM1093 46l7 -21l14 14v14h-7l-7 -7h-7z" />
<glyph unicode="n" horiz-adv-x="937" d="M595 1379v-56l7 7h7l-7 7v42h35q57 -5 98 -63q31 0 63 -70q26 0 42 -280v-7l-14 -21l-7 7h-28v-21l7 -7v-7l28 14q14 -27 14 -77v-217l-7 -7l7 -7v-35l-7 -63l7 -28l-7 -21l7 -42l-7 -56l7 -28l-7 -35l7 -168v-203l-21 -21h-63l-63 7l-70 -7h-133l-14 14v287l-7 7l21 84 v7l-14 21l7 7l-7 49v7l7 28l-7 49v455h14l-14 21l-28 252l-14 14l7 7l-7 49v21q0 35 42 35v14h14l14 -49l42 28v-7l-7 -21l7 -7h14v7l-21 49q14 0 14 28l7 7h35zM315 1358l21 -105h7l7 7h7q21 -28 28 -91h7l7 49l-7 7l7 7l-7 7h7l-7 7v7l7 35h21v-42h-14l21 -77l21 14 l50 -25v-21q-71 25 -71 4l-42 -21l-21 -49l7 -7v-21h-21v21h-7v-63l21 -28v-56q0 -56 -49 -56v-7l-7 -112l7 -21l-21 -49l21 -21q0 -12 -42 -21l7 -35h7l7 7h7q9 -49 21 -49l21 7l-7 21q7 49 21 49h7v-21l-7 -7l7 -21l-7 -7l14 -84l-14 -28l7 -35v-21l-7 -28l7 -7v-7l-7 -98 l7 -329l-21 -21h-14l-28 7l-49 -7h-231l-21 21q5 105 21 105l-21 35v7l7 21l-7 35v7l7 42l-7 21q12 0 21 42q-21 133 -21 273v140l7 7l-7 7v7l7 7l-7 7v7l7 42h7v-21h7q14 0 14 21q14 0 14 -21l7 -7h7l7 7v7l-7 84h-14v-21h-14l-28 49v28l7 7l-7 7v35l7 7l-7 7v7l7 35l-7 28 h7q-14 37 -14 147v105q0 84 21 84l7 7l21 -7l14 -28q37 0 70 35l14 -42h7l28 21q2 -35 21 -35q7 56 21 56l7 -49v-49h21v7l-14 21l21 63h14v-49l7 -7l-14 -42l21 -14q14 0 21 42l-14 70zM777 1232v-49l7 -35h14v84h-21zM791 1106v-56h7l7 35v21h-14zM763 1015v21v-21z M763 980v21h-7zM798 994v-14h7v14h-7zM763 924l7 7v14h-14zM707 896v-56h14v21l-7 35h-7zM574 889v-21h7l14 14l-7 7h-14zM756 854v-7l14 -14v21h-14zM336 805l14 -14h-14v14zM350 756h7l7 -35v-14l-14 -14l-14 14v35zM504 581v-21h14v21h-14zM280 455v-7l21 -7l14 21v21h-7 zM84 287v-21q0 -42 -35 -42v-77l7 7h21q0 -28 28 -42l7 7v7l-14 133l7 21l-7 7h-14zM56 196h14l14 -14l-14 -14l-14 21v7zM14 112v-7h14v21zM49 105v-7l14 -14l7 7v7zM154 56v-14h7v14h-7zM196 7v-14h14v14h-14zM21 0v-14h21l-14 14h-7zM63 0l-7 -49h21l-7 49h-7z" />
<glyph unicode="o" horiz-adv-x="913" d="M435 1426l21 -14l21 14l21 -7l-7 -49l14 -14l14 28l-14 28h14v7l21 -7v-49l14 -14h7q0 -21 -21 -21v-21h21q14 3 28 35l-7 7l7 7h-7l7 7v14q0 14 -28 14v21q173 -45 238 -154q84 -131 84 -364l-7 -21h-14v21l-7 35h-14l-7 -35q7 -49 21 -49l7 7h7l14 -189l-14 -42l7 -35 v-14h-7l7 -105q0 -353 -154 -455q-101 -77 -203 -77v-7l-21 14l-63 -14q-70 11 -70 21l-21 -7q-147 0 -245 182q-56 129 -56 336h7l-7 7v7l7 7l-7 7v7l7 28l-7 28l21 70l-14 147v42l7 63l-7 70v42l21 112h-7l49 147q76 110 133 126q58 40 189 56zM456 1398v-35l14 14v7z M456 1307v-49l7 -7l-7 -7v-14l7 -28q-5 -35 -35 -35l-21 -126h7l-14 -28l14 -91l-7 -21l7 -21l-7 -70v-182l7 -203l-7 -7v-7q0 -224 42 -224l42 -7l21 28h7v-42l-7 -7l7 -7v-7l-14 -14l-14 42l-21 -7l14 -133v-14l-14 -14h-7v14h-14l-7 -35v-14h7l7 7l7 21h7l28 -14l14 28 l-14 28l7 21h7l21 -14q28 14 28 42l-7 42q14 0 14 -42h21q4 63 14 63q-11 15 -21 140h-14q0 -49 -21 -49q0 21 -28 21l-7 21l7 231l-7 119l7 7v7l-7 77v70l7 7l-7 7v70h7l14 -14v-35h14v56l-14 14l-7 -7h-7l-7 7v7l7 21l-7 35v21l7 7l-7 7v112q-28 74 -42 196h-14zM274 1300 v-7l14 -14v21h-14zM512 1300v-14h7v14h-7zM680 1300v-35l14 -14h7l7 28l-7 21h-21zM365 1279v-14h7v14h-7zM421 1244l-7 -7v-63h21v56zM645 1244v-42h7l14 14v7zM365 1216l7 -7h7v21zM239 1202v-21l14 14l-7 7h-7zM197 1181v-28h14v28h-14zM841 1034v-28h7v28h-7zM568 1013 v-21l-7 -63l14 -112l-7 -21l7 -7h14l7 70l-7 28l7 7v7l-7 42v7l7 28l-14 35h-14zM806 915v-28l7 7h7l-7 21h-7zM260 880v-14h14v14h-14zM533 817l7 -42l-7 -21l7 -7h7l7 7l-7 35l7 21l-7 7h-14zM589 656v-21h14v21h-14zM148 453v-21h14v21h-14zM155 411v-7l14 -14l7 7v7 l-7 7h-14zM183 404v-7h21v7h-21zM568 334v-14h14v14h-14zM785 327v-21l7 -35h14v42l-14 14h-7zM617 250v-49l-7 -35l7 -42v-63h21v7l-14 56l14 63l-7 63h-14zM708 243v-7l14 -49h7l7 21l-7 7h7l-7 28h-21zM554 180h14v-28h-14v28zM715 173v-21h14v21h-14zM162 166v-21h14v7z M442 152v-21h7v21h-7zM393 26v-21l14 -28h7l7 21l-7 42h-7zM358 26v-21h7v21h-7zM624 5v-7l14 -14l7 7v28h-7z" />
<glyph unicode="p" horiz-adv-x="897" d="M602 1405h7q2 -28 14 -28l-7 -21l-35 7v-14l13 19l15 -33q6 24 13 -37h21v14h7l35 -7l7 21l-7 35h14l21 -21l8 -257l14 -14l14 14l-7 140l14 14l-7 7l-1 47q-16 0 -28 28v7l49 35l-7 7l8 -26h7q84 -51 84 -266v-63q0 -14 -21 -14q17 0 28 -133l-7 -42l7 -77v-217l-7 -147 l7 -35l-7 -63h7l-7 -7v-91l-7 -35h-7l-7 35v105l-7 42l7 35l-7 21l-7 -7h-7l7 -7v-49l-7 -63q0 -133 28 -133v-7q-14 0 -14 -28l-7 -7h-14l-7 28l7 28q-10 70 -28 70q0 -56 -14 -56l-21 21l-7 -7v-21l14 -14h7l7 7h7v-42h-7l-21 14v-63l14 -14h7v14h14v-14l-7 -7v-7l14 -14 v-14q-70 -84 -168 -84q-123 0 -210 133h-21v-308h-35l-35 7l-105 -14q-28 11 -28 21v35h-14v-35l-21 -21h-105l-21 21v175l7 133l-7 168v399l7 63l-7 70v385l7 7l-7 7v63l7 7l-7 7v7l7 35l-7 49q14 0 21 56h7l28 -7l7 7h7l21 -7l-7 -35h7l7 7h7l-7 7v21l35 7h14 q35 -2 35 -14l42 14h70l14 -14v-7l-7 -7v-7l21 -7q9 35 21 35h7v-7l7 -63l-7 -28q9 -35 21 -35h7q60 74 77 74q12 -70 21 -70l-7 -35v-21h-14q-16 0 -77 3h-7l-7 -28l7 -42l-14 -42h7l-14 -42v-98l14 -21l-7 -91l7 -294v-119l7 -98l-7 -35l7 -7v-7l-7 -21q0 -78 77 -91 q0 -21 14 -21h7v7l-7 28q14 18 14 70h7l-7 49v70l7 77l-7 7v7l7 42l-7 42l7 28l-7 133v182h14l7 -7h7v91l-7 -7h-7l-14 14l7 7v7l-7 42l7 7q0 87 -38 214l52 -21l-49 10l49 32l-35 24l-14 28q30 16 35 35h-7q0 33 98 49zM651 1384h7v-14h-7v14zM721 1384h14l21 -21h-21 l-14 14v7zM217 1363v-21h7v21h-7zM762 1305l8 -75h7l-1 75h-14zM483 1237v-7l21 -7v14h-21zM91 1160v-7l14 -14v14h7l-7 21zM140 1167l-7 -7v-7l7 -7h7l7 7v7l-7 7h-7zM819 1160v-21h21v21h-21zM98 1097l-7 -42q11 -77 28 -77l7 77l-7 42h-21zM812 1090q21 -24 28 -63h14v7 l-21 63zM63 1083l-7 -63q21 0 21 28l-7 35h-7zM742 985v-21h7l14 14v7h-21zM112 964v-105h14v70l-7 35h-7zM63 943v-28h14v28h-14zM525 950v-49h-21v14l7 7v7l-7 7zM161 929v-126l14 -14v56l-7 42l7 35l-7 7h-7zM763 838l-7 -7v-28h7l14 14v7zM525 824v-77h14v63zM112 810 v-21l14 -14v35h-14zM161 733v-35l14 -77h14v7l-7 105h-21zM805 649l7 -21h7v28l-7 -7h-7zM763 523l14 -14v-42h-14v-14l-7 -42l21 -49h7v21l-7 35h63v7l-14 14l-21 -14q-17 0 -21 28l7 49l-7 7l7 7l-7 7h21q0 -21 14 -21h7v84l-14 14q0 -49 -14 -49h-7l-7 98q-21 0 -21 -126 zM728 523v-42h14v7l-7 35h-7zM791 292l-7 -35l7 -21l21 28q-10 28 -21 28zM441 75v-21h14l-7 21h-7zM469 75v-7h14v7h-14zM777 82h14v-21h-14v21zM259 68v-14h7v14h-7zM763 33v-7h14v7h-14z" />
<glyph unicode="q" horiz-adv-x="929" d="M260 1415q141 0 259 -154v-21h21v28q0 21 -28 56l14 35l-7 21l21 7q45 0 77 -35h14v28h14l7 -7l70 14l14 -28h14q4 28 21 28l7 -7l7 7h70l21 -21v-35l-7 -63l7 -105v-553l-7 -70l7 -63v-147l-7 -119h-21v-49h7l7 7h7l7 -7v-49q0 -14 -28 -14v-21q28 0 28 -56h-7l7 -7v-56 l-7 -98l7 -28l-7 -35l7 -49l-21 -14h-77l-77 7l-7 -7h-7l-7 7l-84 -7h-49l-35 7v49l7 35l-14 98l14 126h-7q-96 -126 -168 -126l-63 -7q-96 0 -182 112q-56 93 -56 259v189l-7 42l14 98l-7 42v70l-7 35l7 7h7l21 -7v7l7 21l-21 35l14 14v21l-14 21v7l7 7l-21 70l21 14 l-14 112l7 7v7l-14 49l14 84h14l7 -7h7l14 14h7q14 -71 14 -224l14 -49l14 14l-14 168l14 42l-14 133h21q0 -35 14 -35l7 42l-7 42h21v-28h7q14 0 14 42zM337 1380v-28l14 -14v42h-14zM288 1352v-7l14 -14l7 7v28h-7zM778 1359v-77l-35 7h-7v-28q12 -84 28 -84q0 42 14 42 l14 -14h7q0 42 14 42l14 -28l14 14v42l-14 14h-14l7 -7v-14l-14 -14l-14 105h-14zM379 1352v-21h7v21h-7zM652 1345v-119h21v112zM106 1324l7 -7v-7l-7 -56h-7l-14 14v14q4 42 21 42zM617 1268l-7 -7v-7l14 -14l14 14zM484 1240v-56h14v70zM428 1198l21 -7v-14l-49 -77 l7 -168l-7 -56l7 -63v-7l-7 -28l7 -28v-35l-7 -28l7 -49v-161q0 -49 -14 -49q12 -252 49 -252h28q35 18 35 56l7 154l-7 119l7 56h-7l7 7v14l-7 28l7 7v7l-7 28l7 105v182q0 210 -35 210l-21 21v49h-7zM78 1198v-35h7v35h-7zM400 1177v-21h14v21h-14zM792 1163v-21l14 -14h7 v7l-14 28h-7zM841 1163l-7 -21l7 -28h14v49h-14zM78 1156v-63h14v49zM344 1156v-35l14 -14v49h-14zM309 1142v-56l-7 -35l21 -14v105h-14zM211 1114l14 -28h7l7 21l-7 21h-7zM253 1107l7 -21l-7 -49l21 -14l21 28q-28 42 -28 63l-7 -7h-7zM225 1044q0 -49 -14 -49h-14l-7 42 h-14l-7 -35l14 -56l-7 -21q8 -154 28 -154h7v21l-21 91q14 14 14 91l7 7h7l28 -7v14h21v-14h7v14h7l-7 21h-7v-14h-21v42zM141 946l-7 -35h7l7 7h7l-7 28h-7zM99 799v-7h14v21zM141 799v-21h14v21h-14zM379 785l-7 -35l7 -7h7l7 42h-14zM64 750v-21h7v21h-7zM204 743v-14h7 v14h-7zM372 729l7 -56h7v56h-14zM533 407v-14h14v14h-14zM183 309l-7 -7v-21l14 -14h7v28zM225 246v-49h14v35zM862 204h7v-21h-7v21zM722 190l-14 -49l21 -7l7 7v35zM267 155h14v14z" />
<glyph unicode="r" horiz-adv-x="682" d="M637 1451l7 -7v-126l-7 -7l7 -7v-49q0 -140 -14 -182q14 -30 14 -112l-140 -35q-70 -32 -70 -196l-7 -98h7l-7 -7v-7l7 -35l-7 -21l7 -77l-7 -392v-63l7 -7l-14 -28l-70 -7l-28 7l-77 -7h-161l-21 21v112l7 105l-7 140v350l14 77v28l-14 56v532l21 21h322l21 -21l-7 -112 v-7h7q101 140 140 140l7 -7q0 23 63 28zM217 744v-35l7 -35h7v70h-14z" />
<glyph unicode="s" horiz-adv-x="857" d="M402 1338q251 -2 336 -154q37 0 56 -147l-7 -7v-7l14 -42v-112l-21 -21h-154l-7 7l-7 -7h-112l-21 21v168q0 49 -56 49q-63 -26 -63 -77q0 -166 77 -217q264 -146 350 -266q42 -112 42 -189v-35q0 -35 -14 -35l14 -42q-17 -217 -70 -217l7 -7v-14q-16 -34 -63 -70h-7 l-7 7h-7q0 -63 -217 -84q-74 0 -91 42h-7v-28h-21q-14 0 -14 21l-21 -7q-166 0 -245 217v14h14l-7 7v7q21 0 21 14v14h-21l-7 -7h-7q-14 0 -21 217q5 21 28 28l28 -7l63 7l35 -7l77 7h77l21 -21v-154q7 -105 42 -105h42q42 25 42 63v49q0 168 -56 168l-280 203 q-126 107 -126 371q0 88 28 133v14l-7 7q47 140 154 189q66 28 196 42zM164 1177l21 -21l7 7v14h-28zM500 1170v-14h7v14h-7zM101 1100l-7 -7v-7l14 -14h7v14zM101 1065v-21h21l-7 21h-14zM318 1065l-7 -35v-7l14 -14h7v21l-7 35h-7zM150 1051l-7 -35v-7h14v42h-7zM507 1030 v-7h14v21zM738 1037v-14h14zM318 1002v-21h14v21h-14zM689 988v-28h14v28h-14zM234 974l-7 -7v-7l7 -35h14v35zM605 974v-21l14 -14h49v7l-42 28h-21zM276 960v-14h14v14h-14zM150 925v-42h21v21q-14 0 -14 21h-7zM101 911v-7l7 -35l-7 -7l7 -7h21l-7 35v21h-21zM199 904 v-14h14v14h-14zM73 876v-21h14v21h-14zM199 799v-7h14v7h-14zM66 225v-35h14v35h-14zM577 204l-7 -28h14v28h-7zM717 183v-7h28v-56h-7v14h-28l-7 -21l21 -14l14 14h7l7 -21l-7 -21l7 -7h14v7l7 119l-7 7h-7zM528 190v-14h14v14h-14zM584 134v-21h7v21h-7zM668 134l7 -7v-7 l-7 -7h21l-7 21h-14z" />
<glyph unicode="t" horiz-adv-x="569" d="M100 1494l77 -14l21 14l7 -7h28l7 7l7 -7h7l63 7l35 -7l70 7l21 -21v-210h77l21 -21v-189l-21 -21h-21q-14 0 -14 28h-7q0 -28 -14 -28h-35l7 -49l-14 -14l7 -28q0 -21 -21 -21l-7 -7v-7q42 -30 42 -147v-14l-7 -7l7 -7v-14l-7 -49l7 -63v-42l-7 -77l7 -7v-7l-7 -28 q7 -350 28 -350q91 0 91 -35v-182l-21 -21h-91l-7 7l-7 -7h-84q-266 0 -266 252v49l7 28l-7 28v91q0 14 28 14l7 35v7q-35 0 -35 49v154l-7 77l7 28l-7 42q5 42 14 42l-7 7v56l-7 35l7 42v140h-63q-21 0 -21 119l7 70l-7 28l21 14l42 -7l21 7v63l-7 70q12 98 28 98z M282 1284v-14l21 -7v21h-21zM135 1256l-7 -42h-14l-7 7h-7v-28l42 -14l21 21q-14 0 -21 56h-7zM317 1256v-21h35v21h-35zM331 1207l-7 -7v-7l28 -7v14zM359 1200l7 -21l-7 -21h28v35l-14 14l-7 -7h-7zM177 794v-7l14 -14h7l7 28l-7 7h-7zM254 395v-112l14 -14v98l7 7l-7 21 h-14zM289 381l21 -21v35h-7zM513 -11v-42h14v28zM247 -32v-28h7l14 14v14h-21z" />
<glyph unicode="u" horiz-adv-x="953" d="M80 1366h14l7 -7l7 7h77l7 -7l7 7h35q35 0 35 -21h7q0 21 35 21h21l7 -7l7 7h7l28 -21l21 14h14l7 -35v-49l7 -7l-7 -7v-28l7 -119l-7 -42l7 -42l-7 -238v-161l7 -126l-7 -77l7 -21l-7 -42v-42l7 -28l-7 -21l7 -56l-7 -7v-7q14 -44 35 -49h42l28 28v63l14 98l-7 7v7l7 7 l-7 49v931l21 21l7 -7h7l7 7h7l21 -7l42 7l7 -7l7 7h21q133 0 154 -21h14l28 21l14 -14v-28l-7 -7q14 -31 14 -91v-336q0 -14 -28 -14v-7q0 -14 21 -14v-42q0 -14 -21 -14v-7q0 -14 21 -14v-63l-14 -21l7 -7h-7q21 -33 21 -105v-294l-7 -77l7 -28l-14 -28l14 -84l-7 -28 l7 -42v-56l-21 -21l-35 7l-42 -7l-35 7l-42 -7h-56l-42 7l-7 -7h-7l-63 7h-14l-7 84q-109 -119 -210 -119q-259 0 -259 392v518l7 84h-7l7 7l-7 84v364zM829 1324v-21l21 -21l7 35l-7 7v7zM339 1324l-7 -28h21v28h-14zM780 1247v-14h7v14h-7zM248 1240v-14l14 -14h14v28h-28 zM283 1233v-14l7 7h7l7 -7v14h-21zM157 1177v-28h21v14l-14 14h-7zM857 659v-14h-7l7 -21h7v14h7l-7 21h-7zM829 617v-14h35v14h-35zM612 519l14 -14h7v28h-7zM808 435v-21l14 -14h7l-7 35h-14zM759 421v-21h14v21h-14zM857 414v-14h7l14 14h-21zM766 386v-14h14v14h-14z M724 337v-14h14v14h-14zM696 232l-7 -42l7 -7h7l7 7v28zM787 204v-14h7v14h-7z" />
<glyph unicode="v" horiz-adv-x="881" d="M332 1386q35 0 70 -560l49 -413h7q58 902 77 966l7 7h287l21 -21q-159 -1421 -182 -1421h-343l-7 7l-7 -7h-84q-24 0 -63 329l-133 1106l7 7h294zM178 1092v-21l7 -49h7v56zM220 1078v-28l21 -7v35h-21zM94 1036v-56q14 0 21 42zM514 259v-14h14v14h-14zM570 252l-7 -7 v-7h21zM619 245v-14h21l-14 14h-7z" />
<glyph unicode="w" horiz-adv-x="1274" d="M28 1410h105l7 -7l7 7h154q25 0 35 -140l-7 -28l7 -28h-7l14 -70l-7 -7v-7l7 -21l-14 -14v-21q39 0 63 -420h14q21 297 49 441l-7 7v7l14 77l-7 7v7q19 210 42 210h266l21 -21l35 -378h-7l35 -322q14 0 14 21q55 700 91 700h259q35 -2 35 -14q-21 -321 -42 -385l7 -7 q-49 -504 -63 -532l7 -35q-44 -455 -56 -462l-28 -7h-203l-77 7l-56 -7h-7q-27 0 -56 329l14 49l-14 14v21l7 7q-21 0 -35 196h-14q-63 -616 -84 -616h-350q-42 0 -42 77l-7 126h7q-19 28 -63 427l7 7v7l-35 273l7 28q-28 74 -56 476l-7 7zM161 178v-28h7l14 14l-14 14h-7z " />
<glyph unicode="x" horiz-adv-x="873" d="M313 1378q56 0 56 -154l56 -294h7q35 145 63 371l14 63l63 14h238l14 -14l-140 -686l168 -728l-56 -14h-273q-29 0 -70 336l-7 56l-14 56h-7q-67 -441 -84 -441l-77 -7l-35 28h-7l-28 -21h-14l-42 14q-7 -21 -42 -21h-28l-21 14l154 735l-119 532l7 7v7q-32 77 -35 140 l7 7h252zM124 1238v-21l14 14l-7 7h-7zM173 1238v-21h14v21h-14zM502 1224l-7 -35l7 -21l35 7q11 -28 21 -28l14 42l-21 21l-7 -7h-21q-14 0 -14 21h-7zM628 1224l-7 -7q9 -42 21 -42l7 7l-14 28l7 7l-7 7h-7zM173 1182l7 -7h7v21zM586 1196v-21l7 -7l-7 -7v-21h21v42 l-14 14h-7zM222 1189v-21h14v21h-14zM628 1161v-21h21v21h-21zM635 1105v-21l7 -49l-14 -14v-28q0 -77 21 -77q49 0 49 35l14 21q0 21 -42 21l-21 112h-14zM544 1014l-7 -21l7 -7h14l21 21l-7 7h-28zM635 909v-14h7v14h-7zM572 867v-56h14v56h-14zM418 818q4 -42 21 -42 l7 28l-7 35zM768 202l14 -14h7v14h-21zM565 195l14 -14l7 7v7h-21zM215 48v-21h21v7l-14 14h-7zM215 6v-14h-7l7 -21h21v14h7l-7 21h-21z" />
<glyph unicode="y" horiz-adv-x="881" d="M40 1301l203 -7l21 7l28 -7l28 7q28 0 28 -42h7l-28 -63q37 0 49 -140l70 -574l-7 -21l7 -28h-7l7 -7v-35q-21 0 -21 -14v-21h28q17 0 21 70h7l-7 7v35l7 28l-7 7v7q9 248 21 280l-7 7v7l14 91l-7 7v7l14 126l-7 7q8 129 21 154l-7 63l7 35h14q19 0 28 -70l21 7v63l35 7 h210l21 -14l-21 -140h7l-7 -7v-35q-75 -833 -98 -833l7 -7v-7q-35 -469 -84 -469q-49 -133 -343 -133l-14 14l14 14v7l-35 7h-21l-7 -7h-7q-14 17 -14 49h-14l-7 -35v-14l14 -21l35 7l14 -14l-7 -7h-7l-42 7l-7 -7l-7 7h-28l-7 -7l-7 7h-28l-7 -7h-7q-14 31 -14 112v105 q0 21 105 21l21 28v35q0 61 -56 392l14 14v14q-28 42 -28 105q35 9 35 21l-49 7v35l-77 420l7 21q-28 68 -56 308l7 7h14zM593 1266v-42h63v7q-42 0 -42 14v7l7 7v7h-28zM285 1175v-21h7l14 14l-7 7h-14zM579 1042v-21h21l7 21l-7 7zM558 993l35 -42h-14l21 -21q0 14 28 14 v7h-28q0 14 21 14l7 21q-19 0 -42 21h-7zM145 993l14 -14l14 14h-28zM579 909v-21l56 14v7l-35 7zM537 909v-21h14v21h-14zM593 846l-7 -7v-7h28v7zM628 839l21 -21l7 21h-28zM691 615v-7h14v7h-14zM740 615v-14h14v14h-14zM600 608v-14h14v14h-14zM292 468v-21h14v21h-14z M390 440l-7 -84l7 -7h7q14 0 14 21l-14 28h7l-7 42h-7zM299 377v-14h21l14 14h-35zM684 370v-21l14 -14l7 7v28h-21zM684 314l14 -14h14v14h-28zM544 146l7 -35q-56 0 -56 -84l14 -14q14 0 28 42h-7l7 7v14h-14l7 7v7l-7 7h7q21 0 21 -70l7 -7h14v14h7l-7 7v28q28 0 28 21 v21l-7 -7h-7v14h14v28l-28 14h-14zM397 -162v-14h7v14h-7zM124 -323l21 -7v21h-7zM180 -309v-14l21 7v7h-21z" />
<glyph unicode="z" horiz-adv-x="737" d="M117 1426h77l77 -7l28 7l21 -7l77 7h42l35 -7l42 7h154l21 -21v-259q0 -80 -112 -357h-42l14 -14l28 7v-7q-38 -168 -63 -168l7 -21l-91 -273v-35h238l21 -21v-252l-21 -21h-322l-42 7l-35 -7h-28l-7 7h-7v-7l-7 7l-70 -7h-63l-21 21v14h7l-7 84v14q0 260 77 336l14 -14 l-7 -7v-21h56v21h-14l-7 -7h-7l-7 7v7h42v21q-35 0 -35 21q63 0 91 49l14 -14h14v14q0 11 -28 21v-7l-7 7h-21l-14 -42q-63 36 -63 56q0 32 42 56l-14 14v14l7 35h84l-7 21h-21v-14h-28l-14 14v14l21 63h14l7 -7l21 7v7h-35l7 7v7l-7 7l7 7h-7l28 84h14l7 -35h14l7 35 q0 21 -28 21v21h21v7l-14 21q0 36 63 98l-7 7h-7l7 7v14l-7 7v7h7l-35 56q-14 0 -14 -21l-7 -7h-182v7l7 35l-7 7h14v7q-28 0 -28 42v21l7 77l-7 28l14 21l-7 7v21zM348 1391v-7l14 -14h7v21h-21zM201 1356v-14l14 -49h7q14 0 14 21q-4 56 -21 56zM404 1335v-7l14 -14v35z M222 1188h14v14zM327 1188h56v14h-42zM383 894v-7l14 -14h7v35h-7zM432 894v-7l7 -21h7l7 21l-7 7h-14zM292 831l-7 -35l7 -28h28l7 21q-14 0 -14 35l-7 7h-14zM383 817l-7 -21l7 -7l-7 -7l21 -14l28 14l-21 35h-21zM488 803l-14 -14l7 -21h21l14 14l-21 21h-7zM432 789v-7 l28 -7l7 7v7h-14v7zM243 733v-7h35v21h-21zM299 740v-14h14v14h-14zM292 691v-7l28 -7l7 7v7l-7 7h-7zM348 691q0 -18 70 -28v21l-49 7h-21zM411 621v-14h14zM460 621v-21h14v21h-14zM243 586l-7 -7v-7l7 -7v-7q28 11 28 21zM467 537l7 -21h7l7 21h-21zM166 488h7v-14h-7v14 zM152 390v-7l7 -56l-7 -49q35 -6 35 -49l21 -14h7l7 35l-7 7l7 21h7q-19 70 -28 70q-35 0 -35 14l7 21l-7 7h-14zM110 362v-7q14 -20 14 -77l14 14v49zM327 348v-14l14 -14h14v28h-28zM376 348v-7l7 -28l-7 -21h21l7 56h-28zM299 313l-14 -14h-42l-7 -21h42l7 7h7v-7l21 7 v14zM341 306v-14h14v14h-14zM194 159v-14l7 -35h14l14 14v35h-35zM201 103v-21h14v21h-14zM194 40l14 -14l7 7v7h-21z" />
<glyph unicode="{" horiz-adv-x="684" d="M587 1902h63l21 -21v-161q0 -77 -42 -77q-140 0 -140 -98q-4 -70 -21 -70q-42 0 -56 35l-161 28l14 21l-7 7v56q0 14 21 14l42 -14h14v14h7v-14h21v21h-7q-91 0 -91 35q24 77 56 77l-7 7v21q76 119 273 119zM342 1664v-7h28l-7 7v7zM272 1461h49l105 -14l49 7l7 -7v-7 l-14 -21l-35 7h-21v-14h-7q17 -42 42 -42v-14l-7 -7v-7q21 0 35 -28v-42l-7 -63l7 -7v-7l-14 -84l-42 7l-56 -7l7 -21h77v-14q0 -16 -84 -21l-21 -21h-14l-21 14h-21l-21 -42h7l-7 -28h-21l-7 35h-7q-42 0 -42 -49h28l42 7l28 -7l21 7v7q-21 0 -21 14v21l49 7h91v-21 q-21 -21 -21 -49q-27 -4 -42 -42h-56v-7q21 0 21 -28l-7 -21q154 -105 154 -406v-56l7 -63l-14 -42q19 -52 28 -161q0 -30 161 -56l7 -7v-224l-21 -21h-35q-236 0 -301 133q-59 0 -70 623q-45 161 -182 161v21h7l-7 70v49l14 14h14v-35h21v35h14l7 -7h7l-7 -7v-21h21l14 14 l-14 21h14l35 -7q0 14 63 21l7 7v7l-7 7l70 14v7h-168l-42 -21l-28 7h-7l-21 -14l-7 7v56q0 9 105 35q91 65 91 350h-7l7 7v70zM433 1244v-42q-35 0 -35 -35h-42q0 21 -14 21l-14 -14l7 -7l-21 -21v-7h98l49 91l-21 14h-7zM293 1118v-14h21l-14 14h-7z" />
<glyph unicode="|" horiz-adv-x="532" d="M217 1892h84q14 0 14 -42h7q14 0 14 35l7 7h7q23 0 28 -105l-14 -28l14 -98l-7 -7l7 -84v-49l-7 -63l7 -35l-7 -371l7 -238q0 -49 -35 -49l21 -35l-7 -21l14 -105l-7 -35l7 -63l-7 -7v-7l14 -49l-7 -7v-7l7 -84l-7 -70h7l-7 -7l7 -84l-7 -56l7 -98v-161l-21 -21h-42 l-42 7l-7 -7h-7l-35 7l-35 -7l-14 21l7 49l-7 7l7 21l-7 119l7 42l-7 70v28l7 63l-7 70v7l7 77l-7 7v7l14 35l-7 105v133l-7 28l7 28l-7 21l7 7l-7 119v483l14 56l-14 42v77l7 84h-7l7 7v70l-7 133q7 28 42 28zM329 1136v-14h7v14h-7zM308 772l-7 -7l7 -21h7l21 21zM266 590 l-7 -35l7 -35h14l14 49zM315 562l14 -14h7l-14 14h-7zM315 275v-7h14v7h-14z" />
<glyph unicode="}" horiz-adv-x="684" d="M100 1910h56q180 0 252 -91v-14h-7l-56 14h-42v14h-35v-14l7 -7v-7h-7q9 -35 21 -35h21l42 7q91 -19 91 -35l21 -28v-7q0 -14 -56 -14q0 -14 70 -21l14 -154l-21 -14q-21 0 -21 42h-42v-14l7 -7v-7l-7 -7h7l-7 -7v-21h70l14 -14l-7 -7l14 -91q0 -35 -49 -49v-7 q0 -12 42 -21q0 -206 105 -280q98 -16 98 -35v-224q0 -21 -84 -28q-112 -39 -112 -287l-7 -140l-14 -21l14 -42v-7q0 -287 -140 -364q-106 -42 -203 -42h-56q-21 0 -21 77v161q0 28 133 35q63 27 63 189h7l-14 42q0 435 154 532v14q-140 125 -140 315l7 7l-14 42l7 7h161 l28 14v7l-14 14h-112l-49 -14l-21 7v35l-7 28l14 28l-7 7l7 7l-7 7h7l-7 7v14l7 7l-14 42v126h56l7 21h-56v7l84 14v14h-7l-105 -7q-75 21 -126 21h-21l-21 21v7l7 119l-7 70q16 42 28 42zM450 685v-14h28v14h-28zM289 293l7 -21h56l-7 21h-56z" />
<glyph unicode="~" horiz-adv-x="1196" d="M1062 887l7 -5v-119q0 -99 -56 -123l-98 -47h-28l-7 5h-7q0 -20 -21 -20h-8v20h-14q0 -26 -14 -26h-7q-14 0 -14 21h-7l-7 -21l-301 98l-28 6q-75 0 -232 -104q0 -15 -14 -15h-7l7 26l-7 15l14 31l-14 21l7 20l-7 31l7 36l-7 6l21 15l-7 16q137 98 246 98q61 0 336 -104 h35q80 0 232 119zM823 640v-16h14l7 16h-21zM823 619v-16h21v16h-21zM873 619v-16h14v16h-14z" />
<glyph unicode="&#xa1;" horiz-adv-x="682" />
<glyph unicode="&#xa2;" />
<glyph unicode="&#xa3;" />
<glyph unicode="&#xa4;" />
<glyph unicode="&#xa5;" />
<glyph unicode="&#xa6;" horiz-adv-x="532" />
<glyph unicode="&#xa7;" />
<glyph unicode="&#xa8;" horiz-adv-x="682" />
<glyph unicode="&#xa9;" horiz-adv-x="1509" />
<glyph unicode="&#xaa;" horiz-adv-x="758" />
<glyph unicode="&#xab;" />
<glyph unicode="&#xac;" horiz-adv-x="1196" />
<glyph unicode="&#xad;" horiz-adv-x="682" d="M97 861l56 -7l28 7l35 -7l7 7h7l7 -7l84 7h203l35 -7l7 -105v-175l-21 -21h-287l-42 7l-28 -7l-7 28h-14q0 -28 -14 -28l-7 7h-7l-35 -7l-14 21v203l-7 70zM251 826v-70q0 -14 -28 -14l-7 -21l7 -7l7 7h7l28 -21l14 42l-7 7h-7l7 21l-7 56h-14zM209 588v-21h14v21h-14z " />
<glyph unicode="&#xae;" horiz-adv-x="1509" />
<glyph unicode="&#xaf;" horiz-adv-x="1131" />
<glyph unicode="&#xb0;" horiz-adv-x="819" />
<glyph unicode="&#xb1;" horiz-adv-x="1124" />
<glyph unicode="&#xb2;" horiz-adv-x="682" />
<glyph unicode="&#xb3;" horiz-adv-x="682" />
<glyph unicode="&#xb4;" horiz-adv-x="682" />
<glyph unicode="&#xb5;" horiz-adv-x="1180" />
<glyph unicode="&#xb6;" horiz-adv-x="1100" />
<glyph unicode="&#xb7;" horiz-adv-x="569" />
<glyph unicode="&#x2219;" horiz-adv-x="569" />
<glyph unicode="&#xb8;" horiz-adv-x="682" />
<glyph unicode="&#xb9;" horiz-adv-x="682" />
<glyph unicode="&#xba;" horiz-adv-x="748" />
<glyph unicode="&#xbb;" />
<glyph unicode="&#xbc;" horiz-adv-x="1708" />
<glyph unicode="&#xbd;" horiz-adv-x="1708" />
<glyph unicode="&#xbe;" horiz-adv-x="1708" />
<glyph unicode="&#xbf;" horiz-adv-x="1251" />
<glyph unicode="&#xc0;" horiz-adv-x="1017" d="M249 1760l49 -7l399 7l63 -7v7q36 0 49 -266l63 -455l-7 -49q28 -119 133 -980l-21 -14h-350q-17 0 -21 28l-14 196l7 21q-5 70 -21 70h-119l-7 -35q0 -257 -35 -280h-7l-56 14l-21 -7l-42 7h-42l-56 -14h-133l-21 14l63 511h-7l140 1232h14v7zM361 1508v-98 q0 -50 -14 -77l7 -49h7q0 24 21 42v189zM515 1291q-49 -535 -70 -616l14 -49h119l-49 665h-14zM326 1207l-7 -49l14 -21l-7 -35l7 -28l-21 -91q14 0 14 -21l-7 -35h14v-21q-35 0 -35 -49l-28 -7v-56l21 -7v56l7 -7h7v42h35v42l7 7l-7 7v28l14 42l-14 84v21q28 0 28 70 q-7 28 -42 28zM333 857l-7 -35v-7l14 -14h7v7l-7 49h-7zM284 563v-21l21 7v7zM347 507l7 -21h7v21h-14zM284 472v-21h35v14zM340 458v-35h7l14 35v14h-7zM382 465v-14h14v14h-14zM284 430v-14h35v14h-35zM340 402v-21h7v21h-7zM277 297v-21h42v21h-42zM277 248v-21h63v-14 l-7 -7v-7l7 -7h7q0 35 21 35l-21 21v7l-7 -7h-63zM340 185v-35h28v21zM340 101v-21l21 7v7zM340 66v-14l14 -14v14z" />
<glyph unicode="&#xc1;" horiz-adv-x="1366" />
<glyph unicode="&#xc2;" horiz-adv-x="1366" />
<glyph unicode="&#xc3;" horiz-adv-x="1017" d="M249 1760l49 -7l399 7l63 -7v7q36 0 49 -266l63 -455l-7 -49q28 -119 133 -980l-21 -14h-350q-17 0 -21 28l-14 196l7 21q-5 70 -21 70h-119l-7 -35q0 -257 -35 -280h-7l-56 14l-21 -7l-42 7h-42l-56 -14h-133l-21 14l63 511h-7l140 1232h14v7zM361 1508v-98 q0 -50 -14 -77l7 -49h7q0 24 21 42v189zM515 1291q-49 -535 -70 -616l14 -49h119l-49 665h-14zM326 1207l-7 -49l14 -21l-7 -35l7 -28l-21 -91q14 0 14 -21l-7 -35h14v-21q-35 0 -35 -49l-28 -7v-56l21 -7v56l7 -7h7v42h35v42l7 7l-7 7v28l14 42l-14 84v21q28 0 28 70 q-7 28 -42 28zM333 857l-7 -35v-7l14 -14h7v7l-7 49h-7zM284 563v-21l21 7v7zM347 507l7 -21h7v21h-14zM284 472v-21h35v14zM340 458v-35h7l14 35v14h-7zM382 465v-14h14v14h-14zM284 430v-14h35v14h-35zM340 402v-21h7v21h-7zM277 297v-21h42v21h-42zM277 248v-21h63v-14 l-7 -7v-7l7 -7h7q0 35 21 35l-21 21v7l-7 -7h-63zM340 185v-35h28v21zM340 101v-21l21 7v7zM340 66v-14l14 -14v14zM954 2116l7 -5v-119q0 -99 -56 -123l-98 -47h-28l-7 5h-7q0 -20 -21 -20h-8v20h-14q0 -26 -14 -26h-7q-14 0 -14 21h-7l-7 -21l-301 98l-28 6 q-75 0 -232 -104q0 -15 -14 -15h-7l7 26l-7 15l14 31l-14 21l7 20l-7 31l7 36l-7 6l21 15l-7 16q137 98 246 98q61 0 336 -104h35q80 0 232 119zM715 1869v-16h14l7 16h-21zM715 1848v-16h21v16h-21zM765 1848v-16h14v16h-14z" />
<glyph unicode="&#xc4;" horiz-adv-x="1017" d="M273 1512l49 -7l399 7l63 -7v7q36 0 49 -266l63 -455l-7 -49q28 -119 133 -980l-21 -14h-350q-17 0 -21 28l-14 196l7 21q-5 70 -21 70h-119l-7 -35q0 -257 -35 -280h-7l-56 14l-21 -7l-42 7h-42l-56 -14h-133l-21 14l63 511h-7l140 1232h14v7zM385 1260v-98 q0 -50 -14 -77l7 -49h7q0 24 21 42v189zM539 1043q-49 -535 -70 -616l14 -49h119l-49 665h-14zM350 959l-7 -49l14 -21l-7 -35l7 -28l-21 -91q14 0 14 -21l-7 -35h14v-21q-35 0 -35 -49l-28 -7v-56l21 -7v56l7 -7h7v42h35v42l7 7l-7 7v28l14 42l-14 84v21q28 0 28 70 q-7 28 -42 28zM357 609l-7 -35v-7l14 -14h7v7l-7 49h-7zM308 315v-21l21 7v7zM371 259l7 -21h7v21h-14zM308 224v-21h35v14zM364 210v-35h7l14 35v14h-7zM406 217v-14h14v14h-14zM308 182v-14h35v14h-35zM364 154v-21h7v21h-7zM301 49v-21h42v21h-42zM301 0v-21h63v-14 l-7 -7v-7l7 -7h7q0 35 21 35l-21 21v7l-7 -7h-63zM364 -63v-35h28v21zM364 -147v-21l21 7v7zM364 -182v-14l14 -14v14zM256 1955h252l7 -35v-301l-21 -21h-7q-35 0 -35 14l-42 -14h-14l-28 28v56h-14v-77l-35 -7h-63l-21 21v315zM609 1939h252l7 -35v-301l-21 -21h-7 q-35 0 -35 14l-42 -14h-14l-28 28v56h-14v-77l-35 -7h-63l-21 21v315z" />
<glyph unicode="&#xc5;" horiz-adv-x="1193" d="M261 1587l49 -7l399 7l63 -7v7q36 0 49 -266l63 -455l-7 -49q28 -119 133 -980l-21 -14h-350q-17 0 -21 28l-14 196l7 21q-5 70 -21 70h-119l-7 -35q0 -257 -35 -280h-7l-56 14l-21 -7l-42 7h-42l-56 -14h-133l-21 14l63 511h-7l140 1232h14v7zM373 1335v-98 q0 -50 -14 -77l7 -49h7q0 24 21 42v189zM527 1118q-49 -535 -70 -616l14 -49h119l-49 665h-14zM338 1034l-7 -49l14 -21l-7 -35l7 -28l-21 -91q14 0 14 -21l-7 -35h14v-21q-35 0 -35 -49l-28 -7v-56l21 -7v56l7 -7h7v42h35v42l7 7l-7 7v28l14 42l-14 84v21q28 0 28 70 q-7 28 -42 28zM345 684l-7 -35v-7l14 -14h7v7l-7 49h-7zM296 390v-21l21 7v7zM359 334l7 -21h7v21h-14zM296 299v-21h35v14zM352 285v-35h7l14 35v14h-7zM394 292v-14h14v14h-14zM296 257v-14h35v14h-35zM352 229v-21h7v21h-7zM289 124v-21h42v21h-42zM289 75v-21h63v-14 l-7 -7v-7l7 -7h7q0 35 21 35l-21 21v7l-7 -7h-63zM352 12v-35h28v21zM352 -72v-21l21 7v7zM352 -107v-14l14 -14v14zM98 1926q29 166 94 162h7v7l-14 1l1 14q55 74 333 57l112 -7l54 -24l8 6l6 -7l15 13l20 -15l14 -1l1 14l7 -1l20 -15l63 -4l42 5q118 -34 114 -91 q38 -3 64 -102l3 -64l-27 -103l7 -1q-70 -171 -248 -160l-21 8l-84 -2l-217 14l-6 7l-22 -6l-111 14v-7q-101 6 -178 81q-64 95 -57 207zM277 1873l370 -23l76 -11l57 3l28 -1l41 -10q57 6 60 53l-27 22l-98 6l-76 12l-22 -6l-20 8h-106l-279 17l-22 -20l-2 -28zM638 2047 l14 -1v7l-14 1v-7zM642 1773l8 7v7l-21 1zM640 1963l14 -1v7l-14 1v-7zM713 2008l14 -1v7l-14 1v-7zM813 2051l21 -2l1 14l-21 2zM850 1964l21 -1l1 7l-21 1zM852 1649l36 4v14l-35 3z" />
<glyph unicode="&#xc6;" horiz-adv-x="1458" d="M249 1760l49 -7l399 7l63 -7v7q36 0 49 -266l63 -455l-7 -49q28 -119 133 -980l-21 -14h-350q-17 0 -21 28l-14 196l7 21q-5 70 -21 70h-119l-7 -35q0 -257 -35 -280h-7l-56 14l-21 -7l-42 7h-42l-56 -14h-133l-21 14l63 511h-7l140 1232h14v7zM361 1508v-98 q0 -50 -14 -77l7 -49h7q0 24 21 42v189zM515 1291q-49 -535 -70 -616l14 -49h119l-49 665h-14zM326 1207l-7 -49l14 -21l-7 -35l7 -28l-21 -91q14 0 14 -21l-7 -35h14v-21q-35 0 -35 -49l-28 -7v-56l21 -7v56l7 -7h7v42h35v42l7 7l-7 7v28l14 42l-14 84v21q28 0 28 70 q-7 28 -42 28zM333 857l-7 -35v-7l14 -14h7v7l-7 49h-7zM284 563v-21l21 7v7zM347 507l7 -21h7v21h-14zM284 472v-21h35v14zM340 458v-35h7l14 35v14h-7zM382 465v-14h14v14h-14zM284 430v-14h35v14h-35zM340 402v-21h7v21h-7zM277 297v-21h42v21h-42zM277 248v-21h63v-14 l-7 -7v-7l7 -7h7q0 35 21 35l-21 21v7l-7 -7h-63zM340 185v-35h28v21zM340 101v-21l21 7v7zM340 66v-14l14 -14v14zM763 1749h91l7 -7l7 7h7l28 -7l49 7h308l-7 -35l21 -7v42h21l14 -14l28 14l7 -7h21l21 7v-7l7 -28v-294l-21 -21h-70l-21 14l-21 -14h-42q-14 0 -14 21l-7 7 h-7l-7 -28h-42v-266l-7 -7l7 -7v-49l35 -7l7 7l7 -7h28l7 7l7 -7h28l7 7l7 -7h7l70 7q28 -7 28 -42v-182q0 -14 -28 -14v-42l28 -35l-35 -28l-7 7h-28l-7 -7l-28 14l-28 -7l-14 14v7l7 28l-14 49h-14l7 -70v-14q0 -14 -21 -14l-7 7h-7q-56 -16 -56 -63l7 -35l-7 -21l7 -84 v-70l7 -203l-14 -28l7 -7v-35h-14l-14 63q-17 0 -21 -28q17 -49 28 -49l21 7v-7l14 -28l35 14l21 -21l14 35q-14 14 -14 91l-7 7h-7v-56l-7 -35h-7q-15 0 -28 147l21 7l7 -7h7l56 7l7 -28h7v21q21 0 21 -63l21 7v49l14 14l14 -14l-7 -7v-7l14 -98l-14 -42l14 -56l-7 -70h-21 v35h-14l7 -35q-21 0 -21 -28q-14 0 -14 -21l-35 -7h-259q-35 0 -35 14l-42 -14h-105l-21 21v238l-7 28l14 70l-7 7v28h7q14 0 14 -42h7v140h-7l-7 -7h-7q0 35 -14 35q7 77 21 77h14v28h-28v63l21 28l-14 70l7 7l-14 84v14h7l-7 84v259l14 42l-14 42v161l7 49h-7l7 7l-14 147 l7 42l-7 7v7zM861 1728q0 -21 -14 -21l-21 14l-7 -7v-7l7 -7v-7l7 7h7l35 -7v35h-14zM994 1707v-28l7 -35h7l7 56l-7 7h-14zM1351 1707v-21h7v21h-7zM1085 1686v-14h7v14h-7zM1176 1665v-56h14v42zM910 1616l7 -70v-49h14l-7 105v21l-7 -7h-7zM1085 1616v-7l14 -14v21h-14z M1134 1616v-21h14v7zM1267 1616v-49h14v35zM784 1609l-7 -84h7l-7 -21l7 -21h7l7 35h-7l7 7v7l-7 77h-7zM833 1553v-14h7v14h-7zM1141 1525l-7 -7v-14l14 -14l7 7v14zM1141 1476v-14h7v14h-7zM924 1434v-14h7v14h-7zM966 1434v-21l14 -14v35h-14zM784 1420v-28l14 14z M1106 1399v-28h7v28h-7zM784 1378v-42l7 -35h14v21l-14 21l7 28l-7 7h-7zM973 1336v-112l14 -14v112zM840 1322v-63h14v63h-14zM1064 1315v-21h14v7zM1113 1280l-7 -35l7 -7h7v42h-7zM847 1196v-21h7v21h-7zM847 1077v-14h14v14h-14zM889 1056v-7h14v7h-14zM938 1056l-7 -7 v-14h21v7zM1029 1042v-14h7v14h-7zM1113 1035v-49h14v49h-14zM980 1028l-7 -77l7 -21l21 21q-7 77 -21 77zM1022 1000l7 -42l-7 -21l7 -7h14l-7 84zM805 1007l-7 -35l14 -14h7v49h-14zM826 895h42l-7 49v49q-19 0 -35 -98zM889 951v-7l7 -49h14v14l-7 7l7 7v7l-7 21h-14z M938 930v-7l7 -35h7l7 21l-7 35zM980 916v-21l14 14l-7 7h-7zM1029 909v-84l14 -119h7l7 21l-7 35l7 21l-14 126h-14zM1078 909v-7h14v7h-14zM1162 888v-28h14v14zM1260 881v-14h42v21h-7zM980 874v-14h14zM805 867v-14h14v14h-14zM854 867v-14h7v14h-7zM1120 867v-7h14v7 h-14zM945 811l-7 -21l7 -21h7l7 21l-7 21h-7zM854 804v-14h14zM1260 804v-21h7l14 14l-7 7h-14zM1295 790l14 -14h14v28h-14zM987 797v-14h14v14h-14zM1169 783l7 -7h7v21zM903 790v-14h7v14h-7zM1176 769v-14h7v14h-7zM945 741v-35h7l14 14v14zM903 713v-35l14 14v7z M861 692l-7 -21l14 -168v-63l14 -14v112l-7 42l7 28l-14 84h-7zM1043 692l-7 -21l21 -14v21zM819 643v-7h14v21zM1085 629l7 -70v-14h14v35l7 49l-7 7h-7l-7 -7h-7zM959 622v-42q14 0 14 21l-7 21h-7zM1050 622v-21h7v21h-7zM819 608v-21l7 -42l-7 -7v-7l14 -84l-7 -42v-42 h14v231l-14 14h-7zM959 566v-42h7l7 35l-7 7h-7zM1050 545v-21h7v21h-7zM1008 531v-7l-7 -77l7 -21h14v105h-14zM959 510v-112h14v7l7 63q-9 42 -21 42zM1050 496l-7 -28l14 -133l-7 -42l7 -7h7v196zM1092 475v-84l7 -49h7l7 28l-7 49v70zM770 468h7v-21h-7v21zM770 426h7 v-14h-7v14zM910 384v-42l-7 -35h-14l-7 7h-7v-21l7 7h21l7 -42h7q0 30 21 42l-14 42v42h-14zM945 328l21 -14h7l-7 21l7 35h-7q-21 -7 -21 -42zM1099 335v-28h7v28h-7zM1386 342h7l14 -14v-7h-7l-14 14v7zM1190 321v-21h7l7 21h-14zM833 307v-21h7l7 21h-14zM1365 307l7 -7 v-7l-14 -14l-7 7v7zM1393 300h14l7 -70v-7l-7 -7l7 -7v-105l7 -7l-7 -7v-91l-35 -7q-35 0 -35 14l-28 -14q-35 9 -35 21q35 0 35 21l28 -14l7 7v7l-7 105l14 28l-14 70l7 21h14l21 -14l7 35v21zM791 272v-14h7v14h-7zM1057 258l-7 -84l7 -7h7l14 77zM1274 251v-91l21 -21 l14 21v21q-28 37 -28 70h-7zM1015 244v-49h14v35zM910 230v-21q0 -112 21 -112l7 98q-9 35 -21 35h-7zM1232 195l7 -63h7l14 14v35l-14 14h-14zM1379 188v-14h-7l7 -21h7l14 14v7l-14 14h-7zM833 153v-84h14v84h-14zM875 132v-21h7v21h-7zM875 90v-63h14v7l-7 28l7 21l-7 7 h-7zM1246 55v-28h7l7 21l-7 7h-7z" />
<glyph unicode="&#xc7;" horiz-adv-x="989" d="M522 1830l14 -21v-63h14v63l14 14q14 0 14 -21l7 -7h7q0 21 14 21h7l14 -14l21 7q109 0 252 -189q63 -118 63 -427v-84l-7 -84h-42l-28 21q0 -21 -14 -21l-14 14v63h7q0 -28 28 -35l7 42l-7 84h-14q-5 -84 -21 -84l-14 14h-7v-77l7 -7v-7l-7 -7h-28l-7 49q-12 0 -21 -49 h-7l-7 7h-7l-21 -14l-28 14l-28 -7l-14 14l-21 -21l-35 21l-7 -7h-7l-14 21v84q0 385 -28 385l-49 7q-56 0 -56 -140l-7 -105l7 -7v-7q-10 -140 -21 -140l7 -21l7 -427v-119l7 -77l-7 -7v-7q0 -182 63 -182v-21h14q0 28 42 28l21 245l14 14l-14 154l21 21v7l35 -7h7l7 7 l21 -14l42 14h21q35 -2 35 -14l7 7h21l7 -7l28 14q14 -16 14 -49h21l-7 35l21 14l14 -21v-49h14l14 70l28 -7l-7 -49v-28l14 -14l-14 -42l7 -42l-7 -28l7 -56q0 -125 -42 -196l7 -7v-7q-31 -94 -70 -112h-7v21h-21v-56q-118 -119 -273 -119l-21 21v98l-14 14l-7 -7v-119h-7 q-16 0 -21 35h-7l-14 -42q-21 0 -21 21l-7 -7h-7q-212 0 -322 252q-35 147 -35 406v252l7 63l-7 35l7 56l-7 7v7l7 28h-7l7 7v112l-7 7l7 7v7l-7 35q7 231 42 231l-7 7v7q16 63 28 63h7v-21h14v49q0 35 42 56q0 20 42 42q0 23 56 49h21l7 -28h7q0 56 49 56q0 14 49 14v7 l7 -7h7zM312 1725v-28l14 -14v42h-14zM543 1718v-63h14v63h-14zM270 1697v-21h7v21h-7zM214 1683v-14l21 -21v21l-14 14h-7zM179 1620v-7l14 -14v35zM186 1585v-21h7v21h-7zM137 1508v-7h14v21zM228 1501l7 -7h7v21zM186 1508v-28l14 14zM186 1459v-28l14 14zM690 1389v-14 h7v14h-7zM375 1382v-14h14v14h-14zM102 1375v-21h14v7zM144 1354v-14h7v14h-7zM193 1347v-14h-7l7 -35v-112h14v126l-7 35h-7zM109 1291v-84q14 0 14 21l-7 63h-7zM151 1284v-21l14 -14l7 7v14l-14 14h-7zM158 1235v-49h7l7 42l-7 7h-7zM928 1228l-7 -77l7 -63l7 7h7l-7 7v7 l7 21l-7 98h-7zM382 1214v-119l14 -14l7 21q0 112 -21 112zM249 1200v-14h14v14h-14zM116 1193v-28h7v28h-7zM291 1186l-7 -7q7 -56 21 -56v49zM249 1144v-42h7q14 0 14 21l-7 21h-14zM158 1137v-63l14 -14v63zM116 1102v-98l14 -14v126zM298 1109l-7 -35l14 -14l7 7v28z M606 1102v-14h7v14h-7zM207 1088v-91l14 -14v14h7q-5 91 -21 91zM249 1081v-7l7 -42l-7 -21q5 -91 21 -91v14l-7 147h-14zM165 1046v-105h14v14h-7l7 49v28zM389 1046v-7l7 -154l7 -7h7v35l-7 35l14 63l-14 35h-14zM347 1039v-42l7 -35h7v28l-7 49h-7zM298 1025v-91l14 -14 l7 98l-7 7h-14zM305 899v-35l7 -49h7v70zM403 864v-21h7v21h-7zM305 787v-7h14v21zM221 787v-21l14 -14v21zM179 759v-42h14v7l-7 35h-7zM221 724v-28h14v42zM137 696v-14l14 -14v14zM88 675v-14h14v14h-14zM683 612v-56h14v56h-14zM774 598v-28h14v14zM907 598v-14h7v14h-7 zM144 535v-7l14 -14l7 7v7l-7 7h-14zM277 535v-63h14v49zM102 514v-21h7v21h-7zM193 514v-28l14 14v14h-14zM774 500v-28h21v14l-14 14h-7zM865 451v-14h7v14h-7zM235 423v-21h7v21h-7zM144 409v-14h7v14h-7zM690 290v-7h14v7h-14zM648 255v-70l14 -14v98zM508 248v-21h14 v21h-14zM781 192v-14l14 -14l7 7v7l-14 14h-7zM606 178v-42l21 7v28zM648 150l7 -49h7v56l-7 -7h-7zM557 150v-56l14 14v28zM333 108v-21h7v21h-7zM424 80v-35l14 14v7zM431 156h238v-147l7 -42q0 -265 -217 -371h-21l-14 14v70q0 20 56 98l7 28q-63 11 -63 28l7 140h-7l7 7 v7l-7 140z" />
<glyph unicode="&#xc8;" horiz-adv-x="1366" />
<glyph unicode="&#xc9;" horiz-adv-x="757" d="M58 1733h91l7 -7l7 7h7l28 -7l49 7h308l-7 -35l21 -7v42h21l14 -14l28 14l7 -7h21l21 7v-7l7 -28v-294l-21 -21h-70l-21 14l-21 -14h-42q-14 0 -14 21l-7 7h-7l-7 -28h-42v-266l-7 -7l7 -7v-49l35 -7l7 7l7 -7h28l7 7l7 -7h28l7 7l7 -7h7l70 7q28 -7 28 -42v-182 q0 -14 -28 -14v-42l28 -35l-35 -28l-7 7h-28l-7 -7l-28 14l-28 -7l-14 14v7l7 28l-14 49h-14l7 -70v-14q0 -14 -21 -14l-7 7h-7q-56 -16 -56 -63l7 -35l-7 -21l7 -84v-70l7 -203l-14 -28l7 -7v-35h-14l-14 63q-17 0 -21 -28q17 -49 28 -49l21 7v-7l14 -28l35 14l21 -21 l14 35q-14 14 -14 91l-7 7h-7v-56l-7 -35h-7q-15 0 -28 147l21 7l7 -7h7l56 7l7 -28h7v21q21 0 21 -63l21 7v49l14 14l14 -14l-7 -7v-7l14 -98l-14 -42l14 -56l-7 -70h-21v35h-14l7 -35q-21 0 -21 -28q-14 0 -14 -21l-35 -7h-259q-35 0 -35 14l-42 -14h-105l-21 21v238 l-7 28l14 70l-7 7v28h7q14 0 14 -42h7v140h-7l-7 -7h-7q0 35 -14 35q7 77 21 77h14v28h-28v63l21 28l-14 70l7 7l-14 84v14h7l-7 84v259l14 42l-14 42v161l7 49h-7l7 7l-14 147l7 42l-7 7v7zM156 1712q0 -21 -14 -21l-21 14l-7 -7v-7l7 -7v-7l7 7h7l35 -7v35h-14zM289 1691 v-28l7 -35h7l7 56l-7 7h-14zM646 1691v-21h7v21h-7zM380 1670v-14h7v14h-7zM471 1649v-56h14v42zM205 1600l7 -70v-49h14l-7 105v21l-7 -7h-7zM380 1600v-7l14 -14v21h-14zM429 1600v-21h14v7zM562 1600v-49h14v35zM79 1593l-7 -84h7l-7 -21l7 -21h7l7 35h-7l7 7v7l-7 77h-7 zM128 1537v-14h7v14h-7zM436 1509l-7 -7v-14l14 -14l7 7v14zM436 1460v-14h7v14h-7zM219 1418v-14h7v14h-7zM261 1418v-21l14 -14v35h-14zM79 1404v-28l14 14zM401 1383v-28h7v28h-7zM79 1362v-42l7 -35h14v21l-14 21l7 28l-7 7h-7zM268 1320v-112l14 -14v112zM135 1306v-63 h14v63h-14zM359 1299v-21h14v7zM408 1264l-7 -35l7 -7h7v42h-7zM142 1180v-21h7v21h-7zM142 1061v-14h14v14h-14zM184 1040v-7h14v7h-14zM233 1040l-7 -7v-14h21v7zM324 1026v-14h7v14h-7zM408 1019v-49h14v49h-14zM275 1012l-7 -77l7 -21l21 21q-7 77 -21 77zM317 984 l7 -42l-7 -21l7 -7h14l-7 84zM100 991l-7 -35l14 -14h7v49h-14zM121 879h42l-7 49v49q-19 0 -35 -98zM184 935v-7l7 -49h14v14l-7 7l7 7v7l-7 21h-14zM233 914v-7l7 -35h7l7 21l-7 35zM275 900v-21l14 14l-7 7h-7zM324 893v-84l14 -119h7l7 21l-7 35l7 21l-14 126h-14z M373 893v-7h14v7h-14zM457 872v-28h14v14zM555 865v-14h42v21h-7zM275 858v-14h14zM100 851v-14h14v14h-14zM149 851v-14h7v14h-7zM415 851v-7h14v7h-14zM240 795l-7 -21l7 -21h7l7 21l-7 21h-7zM149 788v-14h14zM555 788v-21h7l14 14l-7 7h-14zM590 774l14 -14h14v28h-14z M282 781v-14h14v14h-14zM464 767l7 -7h7v21zM198 774v-14h7v14h-7zM471 753v-14h7v14h-7zM240 725v-35h7l14 14v14zM198 697v-35l14 14v7zM156 676l-7 -21l14 -168v-63l14 -14v112l-7 42l7 28l-14 84h-7zM338 676l-7 -21l21 -14v21zM114 627v-7h14v21zM380 613l7 -70v-14h14 v35l7 49l-7 7h-7l-7 -7h-7zM254 606v-42q14 0 14 21l-7 21h-7zM345 606v-21h7v21h-7zM114 592v-21l7 -42l-7 -7v-7l14 -84l-7 -42v-42h14v231l-14 14h-7zM254 550v-42h7l7 35l-7 7h-7zM345 529v-21h7v21h-7zM303 515v-7l-7 -77l7 -21h14v105h-14zM254 494v-112h14v7l7 63 q-9 42 -21 42zM345 480l-7 -28l14 -133l-7 -42l7 -7h7v196zM387 459v-84l7 -49h7l7 28l-7 49v70zM65 452h7v-21h-7v21zM65 410h7v-14h-7v14zM205 368v-42l-7 -35h-14l-7 7h-7v-21l7 7h21l7 -42h7q0 30 21 42l-14 42v42h-14zM240 312l21 -14h7l-7 21l7 35h-7q-21 -7 -21 -42z M394 319v-28h7v28h-7zM681 326h7l14 -14v-7h-7l-14 14v7zM485 305v-21h7l7 21h-14zM128 291v-21h7l7 21h-14zM660 291l7 -7v-7l-14 -14l-7 7v7zM688 284h14l7 -70v-7l-7 -7l7 -7v-105l7 -7l-7 -7v-91l-35 -7q-35 0 -35 14l-28 -14q-35 9 -35 21q35 0 35 21l28 -14l7 7v7 l-7 105l14 28l-14 70l7 21h14l21 -14l7 35v21zM86 256v-14h7v14h-7zM352 242l-7 -84l7 -7h7l14 77zM569 235v-91l21 -21l14 21v21q-28 37 -28 70h-7zM310 228v-49h14v35zM205 214v-21q0 -112 21 -112l7 98q-9 35 -21 35h-7zM527 179l7 -63h7l14 14v35l-14 14h-14zM674 172 v-14h-7l7 -21h7l14 14v7l-14 14h-7zM128 137v-84h14v84h-14zM170 116v-21h7v21h-7zM170 74v-63h14v7l-7 28l7 21l-7 7h-7zM541 39v-28h7l7 21l-7 7h-7zM598 2066l5 -7l-159 -238q-24 -56 -106 -56h-43l-5 7q0 30 58 161q33 133 67 133h183z" />
<glyph unicode="&#xca;" horiz-adv-x="1366" />
<glyph unicode="&#xcb;" horiz-adv-x="1366" />
<glyph unicode="&#xcc;" horiz-adv-x="569" />
<glyph unicode="&#xcd;" horiz-adv-x="569" />
<glyph unicode="&#xce;" horiz-adv-x="569" />
<glyph unicode="&#xcf;" horiz-adv-x="569" />
<glyph unicode="&#xd0;" horiz-adv-x="1479" />
<glyph unicode="&#xd1;" horiz-adv-x="1065" d="M90 1728h161q14 0 14 -21h14v21h112l7 -35v-35q32 0 63 -189l42 -126l-7 -21q26 -50 105 -371h7v301l7 7l-7 7v196l7 42l-7 7v7q4 40 21 63v7h-14v77l21 63h21l7 -7l7 7h42l35 -7l42 7h14l42 -7l28 7l21 -7l21 7l14 -28l-7 -28l7 -49l-7 -28l7 -49l-7 -49l7 -7l-7 -35 v-77l7 -84l-21 -14l-7 7v-28l7 7h7l14 -21v-7l-7 -105l7 -49h-7l7 -7v-21h-7l7 -21l-7 -175v-532l7 -42l-7 -35v-7l7 -7l-7 -7l7 -189v-49l-14 -14l-7 7l-42 -14l-42 7l-77 -7h-35l-28 7l-28 -7h-28q-49 0 -49 70l-7 7v21h21v49h-14q0 -28 -14 -28l-28 133l7 28 q-36 0 -56 182l-84 294h-14l7 -105v-581l-7 -7l7 -7v-35l-21 -21l-28 7l-84 -7h-161l-21 21v371l7 7l-7 7v119l-7 70h7l-7 21l7 21l-7 35q4 84 14 84l-7 7v7l7 21l-7 84v287l-7 28l7 28v84l7 7l-7 7v329l7 7l-7 21zM174 1679v-49l14 -14h7v7l-7 56h-14zM307 1679v-21h14v7z M307 1623v-7l14 -14v21h-14zM223 1609v-42h14v42h-14zM223 1539v-21h14v21h-14zM265 1525v-14h14v14h-14zM895 1518v-14h7v14h-7zM188 1511v-14h7v14h-7zM230 1504v-14h7v14h-7zM895 1476v-14h14v14h-14zM230 1462v-14h7v14h-7zM97 1434v-14h14v14h-14zM846 1357v-14h14v28z M398 1343l7 -7h14v21h-7zM265 1350v-7l14 -14l7 7v14h-21zM363 1350l-7 -7v-7l7 -7h7l7 7v7l-7 7h-7zM895 1343v-28l14 -14v28zM846 1294l7 -35h14v42h-7l-7 -7h-7zM104 1287l-7 -7v-7l7 -7h7l7 7v7l-7 7h-7zM664 1287l14 -14h7v14h-21zM713 1273l-7 -42h14v42h-7zM188 1217 v-14h7v14h-7zM363 1210v-7h14v7h-14zM671 1210v-7h14v7h-14zM713 1189v-35h14v35h-14zM671 1168l7 -84h7l7 63l-7 21h-14zM503 1091v-21h21v21h-21zM111 1070v-42h14l-7 42h-7zM160 979v-21h7v21h-7zM419 951v-14h7v14h-7zM503 881l14 -14v28zM727 874v-14l14 14h-14z M293 811v-21l-7 -49l7 -7h14v77h-14zM552 790v-49h14v49h-14zM643 790v-14h14v14h-14zM601 783v-21h21v14zM132 720v-14h14zM559 685v-21h7v21h-7zM601 657v-14h21v14h-21zM174 629v-28h7l14 14v14h-21zM265 629v-21l14 14l-7 7h-7zM223 587v-21h7v21h-7zM748 524v-14h14z M832 524v-14h14v14h-14zM307 503v-21h21v21h-21zM223 496l-7 -7v-14h7l14 14l-7 7h-7zM657 482v-42l14 14v28h-14zM748 475v-14h14v14h-14zM664 391l-7 -49l7 -7h7v56h-7zM790 391v-35h14v21zM881 384l-7 -7v-14q0 -52 21 -56v63zM573 377v-28h7v28h-7zM615 377v-21h14v7z M741 363q7 -56 21 -56h7v7l-7 28l7 21l-7 7h-7l-7 -7h-7zM524 335v-7l7 -21h7v28h-14zM839 321l7 -28l-7 -21l7 -7h7q14 0 14 21l-14 35h-14zM573 293v-35h14l-7 35h-7zM755 279v-21h14v21h-14zM888 258v-14h7v14h-7zM755 209v-56h14v56h-14zM615 132l7 -21h14v28h-7l-7 -7 h-7zM629 97v-14h21v7zM762 76v-63h14v63h-14zM279 69v-7h14v7h-14zM977 2202l7 -7v-252q0 -66 -203 -161l-56 -7q-75 0 -308 126l-28 7h-35q-92 0 -217 -154h-21v252q0 92 238 175h28q58 -1 301 -126l56 -14q84 0 238 161z" />
<glyph unicode="&#xd2;" horiz-adv-x="1593" />
<glyph unicode="&#xd3;" horiz-adv-x="1593" />
<glyph unicode="&#xd4;" horiz-adv-x="1593" />
<glyph unicode="&#xd5;" horiz-adv-x="1005" d="M462 1682q5 -21 28 -28q0 28 14 28h7l7 -7l7 7h14q180 0 287 -147q105 -105 105 -315l7 -21l-7 -28l7 -133v-77l7 -280l-7 -49h7l-7 -7v-28l7 -7l-7 -7v-35q0 -406 -42 -406q0 -74 -84 -161h-21q-12 0 -21 35l7 21l-7 49h-14v-14h-7l7 -70v-56l-49 -35l-14 -14h-7v21h-7 l-14 -35h-14l-7 49h-14v-21l-7 -35h-21v14l-7 49l7 7l-7 7h-7q0 -70 -21 -98l-28 14l-14 -14h-7l-28 7l-7 -7q-169 19 -238 70q-175 160 -175 350l14 35l-14 49l7 56q0 35 -14 35l7 7v7l-7 252l7 56l-7 77v322q16 0 28 21l7 7q0 21 -21 21v7l14 14l-7 49v28q0 192 210 322 q89 42 168 42zM476 1493l14 -14v28zM343 1465v-21l14 14l-7 7h-7zM616 1395v-14h7v14h-7zM441 1304v-322l7 -7l-7 -7v-98l-14 -21v-14h14l7 -189l-14 -42l7 -63v-7l-7 -35l7 -42l-7 -35l7 -77v-42l-7 -28q17 -126 63 -126q56 0 63 84l7 -7h14v28h-7l-7 -7h-7l-7 7v7l14 140 l-7 7v7l7 7v7l-7 21l14 70l-14 21l7 42l-7 378v364l7 -7h14l7 21l-7 35h-14v-28h-7q-14 0 -21 42h-21l-7 -7l-21 7q-49 -32 -49 -84zM287 1374q7 -42 21 -42v28l-14 14h-7zM343 1325v-21h14v7zM210 1269v-35h14v35h-14zM161 1220v-21l7 -35h14v56h-21zM252 1220v-56h7l14 14 v28l-14 14h-7zM119 1192l7 -7h7v21zM343 1185v-14l14 -14v28h-14zM210 1150l-7 -35l7 -7h14v42h-14zM392 1136v-49h14v49h-14zM168 1108v-7l7 -28l-7 -21l7 -7h7v49zM217 1003v-7h14v7h-14zM588 989v-14h14v14h-14zM98 905l-7 -7v-7l14 -14l14 14v7zM630 891v-14h14v14h-14z M98 856v-14h7v14h-7zM413 849v-14h7v14h-7zM679 835v-28l14 14zM364 800v-28h14v14zM322 793v-133h7l7 7h7l-7 84v42h-14zM679 786v-42h14v7l-7 35h-7zM217 702v-21h7l14 14v14zM140 653v-14h7v14h-7zM147 527v-14h14v14h-14zM651 527v-21l14 14l-7 7h-7zM693 499v-21 l14 -14v35h-14zM826 492v-7l14 -14v21h-14zM609 478v-28h7v28h-7zM105 457v-14h7v14h-7zM112 310v-35l14 14v7zM203 296v-14h14v14h-14zM203 254l14 -14v28zM112 261v-42l14 -14v42zM574 177v-21h7v21h-7zM574 128v-7l14 -14l7 7v7zM441 107v-28l14 -14v42h-14zM532 107v-14 l14 -14v14zM707 100v-14h7v14h-7zM672 44v-14h14v14h-14zM532 16v-7l14 -14v35zM581 16v-35h14v35h-14zM539 -19l-7 -70l7 -28h7l7 35l-7 35l7 21l-7 7h-7zM934 2024l7 -5v-119q0 -99 -56 -123l-98 -47h-28l-7 5h-7q0 -20 -21 -20h-8v20h-14q0 -26 -14 -26h-7q-14 0 -14 21 h-7l-7 -21l-301 98l-28 6q-75 0 -232 -104q0 -15 -14 -15h-7l7 26l-7 15l14 31l-14 21l7 20l-7 31l7 36l-7 6l21 15l-7 16q137 98 246 98q61 0 336 -104h35q80 0 232 119zM695 1777v-16h14l7 16h-21zM695 1756v-16h21v16h-21zM745 1756v-16h14v16h-14z" />
<glyph unicode="&#xd6;" horiz-adv-x="1005" d="M442 1474q5 -21 28 -28q0 28 14 28h7l7 -7l7 7h14q180 0 287 -147q105 -105 105 -315l7 -21l-7 -28l7 -133v-77l7 -280l-7 -49h7l-7 -7v-28l7 -7l-7 -7v-35q0 -406 -42 -406q0 -74 -84 -161h-21q-12 0 -21 35l7 21l-7 49h-14v-14h-7l7 -70v-56l-49 -35l-14 -14h-7v21h-7 l-14 -35h-14l-7 49h-14v-21l-7 -35h-21v14l-7 49l7 7l-7 7h-7q0 -70 -21 -98l-28 14l-14 -14h-7l-28 7l-7 -7q-169 19 -238 70q-175 160 -175 350l14 35l-14 49l7 56q0 35 -14 35l7 7v7l-7 252l7 56l-7 77v322q16 0 28 21l7 7q0 21 -21 21v7l14 14l-7 49v28q0 192 210 322 q89 42 168 42zM456 1285l14 -14v28zM323 1257v-21l14 14l-7 7h-7zM596 1187v-14h7v14h-7zM421 1096v-322l7 -7l-7 -7v-98l-14 -21v-14h14l7 -189l-14 -42l7 -63v-7l-7 -35l7 -42l-7 -35l7 -77v-42l-7 -28q17 -126 63 -126q56 0 63 84l7 -7h14v28h-7l-7 -7h-7l-7 7v7l14 140 l-7 7v7l7 7v7l-7 21l14 70l-14 21l7 42l-7 378v364l7 -7h14l7 21l-7 35h-14v-28h-7q-14 0 -21 42h-21l-7 -7l-21 7q-49 -32 -49 -84zM267 1166q7 -42 21 -42v28l-14 14h-7zM323 1117v-21h14v7zM190 1061v-35h14v35h-14zM141 1012v-21l7 -35h14v56h-21zM232 1012v-56h7l14 14 v28l-14 14h-7zM99 984l7 -7h7v21zM323 977v-14l14 -14v28h-14zM190 942l-7 -35l7 -7h14v42h-14zM372 928v-49h14v49h-14zM148 900v-7l7 -28l-7 -21l7 -7h7v49zM197 795v-7h14v7h-14zM568 781v-14h14v14h-14zM78 697l-7 -7v-7l14 -14l14 14v7zM610 683v-14h14v14h-14zM78 648 v-14h7v14h-7zM393 641v-14h7v14h-7zM659 627v-28l14 14zM344 592v-28h14v14zM302 585v-133h7l7 7h7l-7 84v42h-14zM659 578v-42h14v7l-7 35h-7zM197 494v-21h7l14 14v14zM120 445v-14h7v14h-7zM127 319v-14h14v14h-14zM631 319v-21l14 14l-7 7h-7zM673 291v-21l14 -14v35 h-14zM806 284v-7l14 -14v21h-14zM589 270v-28h7v28h-7zM85 249v-14h7v14h-7zM92 102v-35l14 14v7zM183 88v-14h14v14h-14zM183 46l14 -14v28zM92 53v-42l14 -14v42zM554 -31v-21h7v21h-7zM554 -80v-7l14 -14l7 7v7zM421 -101v-28l14 -14v42h-14zM512 -101v-14l14 -14v14z M687 -108v-14h7v14h-7zM652 -164v-14h14v14h-14zM512 -192v-7l14 -14v35zM561 -192v-35h14v35h-14zM519 -227l-7 -70l7 -28h7l7 35l-7 35l7 21l-7 7h-7zM256 1955h252l7 -35v-301l-21 -21h-7q-35 0 -35 14l-42 -14h-14l-28 28v56h-14v-77l-35 -7h-63l-21 21v315zM601 1967 h252l7 -35v-301l-21 -21h-7q-35 0 -35 14l-42 -14h-14l-28 28v56h-14v-77l-35 -7h-63l-21 21v315z" />
<glyph unicode="&#xd7;" horiz-adv-x="1196" />
<glyph unicode="&#xd8;" horiz-adv-x="1005" d="M462 1682q5 -21 28 -28q0 28 14 28h7l7 -7l7 7h14q180 0 287 -147q105 -105 105 -315l7 -21l-7 -28l7 -133v-77l7 -280l-7 -49h7l-7 -7v-28l7 -7l-7 -7v-35q0 -406 -42 -406q0 -74 -84 -161h-21q-12 0 -21 35l7 21l-7 49h-14v-14h-7l7 -70v-56l-49 -35l-14 -14h-7v21h-7 l-14 -35h-14l-7 49h-14v-21l-7 -35h-21v14l-7 49l7 7l-7 7h-7q0 -70 -21 -98l-28 14l-14 -14h-7l-28 7l-7 -7q-169 19 -238 70q-175 160 -175 350l14 35l-14 49l7 56q0 35 -14 35l7 7v7l-7 252l7 56l-7 77v322q16 0 28 21l7 7q0 21 -21 21v7l14 14l-7 49v28q0 192 210 322 q89 42 168 42zM476 1493l14 -14v28zM343 1465v-21l14 14l-7 7h-7zM616 1395v-14h7v14h-7zM441 1304v-322l7 -7l-7 -7v-98l-14 -21v-14h14l7 -189l-14 -42l7 -63v-7l-7 -35l7 -42l-7 -35l7 -77v-42l-7 -28q17 -126 63 -126q56 0 63 84l7 -7h14v28h-7l-7 -7h-7l-7 7v7l14 140 l-7 7v7l7 7v7l-7 21l14 70l-14 21l7 42l-7 378v364l7 -7h14l7 21l-7 35h-14v-28h-7q-14 0 -21 42h-21l-7 -7l-21 7q-49 -32 -49 -84zM287 1374q7 -42 21 -42v28l-14 14h-7zM343 1325v-21h14v7zM210 1269v-35h14v35h-14zM161 1220v-21l7 -35h14v56h-21zM252 1220v-56h7l14 14 v28l-14 14h-7zM119 1192l7 -7h7v21zM343 1185v-14l14 -14v28h-14zM210 1150l-7 -35l7 -7h14v42h-14zM392 1136v-49h14v49h-14zM168 1108v-7l7 -28l-7 -21l7 -7h7v49zM217 1003v-7h14v7h-14zM588 989v-14h14v14h-14zM98 905l-7 -7v-7l14 -14l14 14v7zM630 891v-14h14v14h-14z M98 856v-14h7v14h-7zM413 849v-14h7v14h-7zM679 835v-28l14 14zM364 800v-28h14v14zM322 793v-133h7l7 7h7l-7 84v42h-14zM679 786v-42h14v7l-7 35h-7zM217 702v-21h7l14 14v14zM140 653v-14h7v14h-7zM147 527v-14h14v14h-14zM651 527v-21l14 14l-7 7h-7zM693 499v-21 l14 -14v35h-14zM826 492v-7l14 -14v21h-14zM609 478v-28h7v28h-7zM105 457v-14h7v14h-7zM112 310v-35l14 14v7zM203 296v-14h14v14h-14zM203 254l14 -14v28zM112 261v-42l14 -14v42zM574 177v-21h7v21h-7zM574 128v-7l14 -14l7 7v7zM441 107v-28l14 -14v42h-14zM532 107v-14 l14 -14v14zM707 100v-14h7v14h-7zM672 44v-14h14v14h-14zM532 16v-7l14 -14v35zM581 16v-35h14v35h-14zM539 -19l-7 -70l7 -28h7l7 35l-7 35l7 21l-7 7h-7zM349 1699q78 -225 539 -1825l-8 -15l-162 -8l-21 6q-22 51 -335 1135l4 7v7q-19 26 -23 63l-7 57q-18 -1 -174 564 l55 9l41 -5l5 1l4 7l16 -6l20 8z" />
<glyph unicode="&#xd9;" horiz-adv-x="1479" />
<glyph unicode="&#xda;" horiz-adv-x="1479" />
<glyph unicode="&#xdb;" horiz-adv-x="1479" />
<glyph unicode="&#xdc;" horiz-adv-x="1346" d="M798 1922l56 -7l28 7l35 -7l7 7h7l7 -7l84 7h203l35 -7l7 -105v-175l-21 -21h-287l-42 7l-28 -7l-7 28h-14q0 -28 -14 -28l-7 7h-7l-35 -7l-14 21v203l-7 70zM952 1887v-70q0 -14 -28 -14l-7 -21l7 -7l7 7h7l28 -21l14 42l-7 7h-7l7 21l-7 56h-14zM910 1649v-21h14v21 h-14zM206 1918l56 -7l28 7l35 -7l7 7h7l7 -7l84 7h203l35 -7l7 -105v-175l-21 -21h-287l-42 7l-28 -7l-7 28h-14q0 -28 -14 -28l-7 7h-7l-35 -7l-14 21v203l-7 70zM360 1883v-70q0 -14 -28 -14l-7 -21l7 -7l7 7h7l28 -21l14 42l-7 7h-7l7 21l-7 56h-14zM318 1645v-21h14v21 h-14zM292 1527h70l28 -7l28 7h70l42 -14l14 14h28q77 0 77 -21v-119l-7 -126l7 -70h-7l7 -7v-168l-7 -105l7 -42l-7 -63l7 -154v-35l-7 -56l7 -77v-266q0 -182 35 -182h42q28 0 28 133v91q0 23 21 49v28l-7 7l7 7v119q-14 14 -21 91l7 28l-7 168v182l7 28l-7 28v56l7 7v7h-7 l7 7v7l-7 56q0 35 21 35v7q-21 0 -21 49v56l7 7l-7 7l14 161l-14 42l7 21h28q0 -21 14 -21q4 28 21 28l21 -35v-14l-7 -21h7l7 -7h7q0 77 21 77l42 -14v-42l-21 14l-14 -14v-14q0 -12 42 -21l7 -28q16 0 21 35h14l7 -35h21q14 0 14 42h7l21 -7q9 35 21 35l21 -21l7 21l-7 28 l7 21h21v-84l7 -7l-7 -7v-14l21 -21l-14 -84q12 -14 21 -112v-14h-7l7 -140v-364q0 -40 -35 -77v-7l28 -98l-7 -35l7 -63l-14 -28l14 -42l-7 -203l7 -7v-7q0 -56 -35 -56l-14 -14l28 -7v-7q-102 -294 -350 -294h-84q-205 0 -343 196q0 31 -21 42q-28 62 -42 189l7 49l-7 126 v35l7 70h7q9 -175 21 -175l-7 -7v-21h14v7l7 70q-12 182 -28 182q0 -21 -14 -21l-7 7v35l7 42q-14 30 -14 112v35l7 70l-7 42l7 91l-7 21l21 112v21l-14 77v336l-7 7q14 42 28 42zM1062 1527v-35h-14l-7 28l7 7h14zM957 1506q16 0 21 -35l-7 -7h-14v42zM474 1492v-84h7l7 7 h7l-7 7v70h-14zM341 1485v-119l7 -84h7l7 70l35 -7l7 7l-7 70h-7q0 -49 -14 -49h-7l-14 63v49h-14zM383 1471v-21l14 -14v49zM796 1485l-7 -35l7 -7h7l7 21l-7 21h-7zM432 1471v-56l14 -14v70h-14zM621 1436v-35h7v35h-7zM1034 1429v-21h7v21h-7zM299 1422v-70l21 -7v42h-14 l7 7v14zM572 1422v-21h7v21h-7zM439 1387v-14h7v14h-7zM894 1296l7 -21l-7 -35l7 -7h14l7 21l-7 21q28 14 28 42h-14zM579 1247v-70h14v7l-7 28l7 28l-7 7h-7zM439 1233v-21h14v21h-14zM530 1219v-35h14v35h-14zM481 1205v-14h-7l14 -42l21 7v49h-14l-7 7zM915 1184l28 -14 h7l14 14l-21 21h-7zM859 1198l-7 -7v-7l14 -14l14 14v7zM348 1170v-21l14 14l-7 7h-7zM397 1135v-21h14v21h-14zM355 1100v-21h14v21h-14zM768 1093v-14l7 -7l-7 -7l7 -49v-21h14v28l-7 70h-14zM313 1072l-7 -63l7 -7h14v56zM397 1023v-14l14 -14l14 14v14l-14 14zM355 1030 v-7l7 -42l-7 -21h21l-7 35l7 7v7l-7 21h-14zM817 1016v-49l14 -14v63h-14zM502 1002l-14 -35h7l7 -7h7l7 7v21zM537 925v-21h21v7l-14 14h-7zM824 890v-42l14 -14v42zM915 876v-14l7 -35l14 14v14l-7 35zM922 820v-21h7v21h-7zM509 792v-7h14v7h-14zM1104 757v-14h14v14h-14 zM838 554h14v14zM341 512l-14 -21l21 -203l-7 -7v-7q7 -77 21 -77l7 7l-14 140l7 98h21l7 -84v-42h14v7l-14 119l14 14v21h-14l7 35l-35 -7zM929 484v-14l14 -14l7 7v21h-21zM978 484v-35h21v35h-21zM789 449l14 -35l21 21v28l-14 14l-7 -7l-7 -21h-7zM1027 477v-14h7v14h-7 zM845 470v-28h14v28h-14zM880 449v-7h21v21h-7zM481 435l-7 -56l7 -7h7l7 7v42zM572 386l-7 -7v-7q11 -28 21 -28v28zM796 386v-14l14 -14l7 7v21h-21zM852 379v-14h7v14h-7zM1090 162v-21h14v21h-14zM1041 113l-7 -7v-7h21zM1048 50v-14h7v14h-7zM313 36v-14h-7l7 -21h21 v35h-21zM404 15v-7h14v7h-14zM509 -181l-7 -21l7 -7h7l7 7l-7 21h-7z" />
<glyph unicode="&#xdd;" horiz-adv-x="1366" />
<glyph unicode="&#xde;" horiz-adv-x="1366" />
<glyph unicode="&#xdf;" horiz-adv-x="1251" />
<glyph unicode="&#xe0;" horiz-adv-x="881" d="M437 1430l7 -7l7 7h7q28 -7 28 -28l-7 -42l7 -28l-7 -56l7 -35h7l14 70l-14 14q11 28 21 28l7 -7v-28l-7 -7v-7l21 -14h14l-7 7v14l14 14q-4 40 -21 63l14 28h7q54 0 70 -35l7 7h14q21 -7 21 -42v-70l-7 -28l14 -63h-7l7 -21q14 0 21 56l-14 140h14q21 -7 21 -42l-21 -35 q10 -29 35 -42l7 7v7l-7 21l7 7h7q21 0 21 -77h7v63h7q19 -9 63 -210h-7l7 -7v-49l-14 -21l7 -28l-14 -14v-7h21v-21l-7 -7l14 -28l-7 -28l7 -7v-7h-7l7 -7v-14l-7 -28l7 -21l-14 -14v-14l14 -42l-7 -21l7 -21v-14h-7l7 -189v-315q0 -14 -28 -14v-119q28 0 28 -14 q-7 -28 -42 -28q-84 0 -84 14q-31 -14 -91 -14l-70 7l-56 -7q-14 32 -14 91v7h-7l-77 -84q-80 -42 -119 -42l-21 14l-21 -7q-84 0 -161 91q-56 68 -56 210v217q0 165 112 217l56 42h21v-28q4 -42 21 -42v7l-7 77q252 108 252 182v56q0 210 -63 210l-7 7h-14q0 -21 -14 -21 h-7v49l-7 35l7 42v35h-28q0 -23 -42 -28q0 21 -21 21l-7 -7v-14l7 -7l-7 -7v-112h21v119h7q56 -23 56 -35v-21l-7 -7l-28 -14q0 -35 -14 -35q0 -56 49 -56v-140h-7q-14 0 -14 21l-21 -14l14 -35l7 7h21v-56l-7 -7l7 -7v-42l-49 -7l-28 7v-7l-35 14l-21 -7l-7 21h-14l7 -7v-7 l-14 -14q-70 0 -70 28l7 35q-28 0 -28 49q16 0 21 35l-21 14h-7q0 -21 -21 -21l-21 -49v-21q0 -35 56 -35l7 -7v-7l-7 -7h-21l-7 7l-35 -14q-19 0 -35 35q10 56 21 56l-14 70q0 291 245 392q65 21 119 21q7 -56 21 -56q0 63 21 63zM514 1423l14 -21v-14l-14 -14 q-16 0 -21 35zM318 1332v-14h7v14h-7zM451 1318v-14h7v14h-7zM402 1311v-63h21l7 35l-7 28h-21zM731 1318h7l14 -14h-7zM626 1297l7 -28l-7 -7v-7l7 -49h7l14 14l-14 14l14 14q-14 16 -14 49h-14zM444 1283v-7l14 -14l7 7v7l-7 7h-14zM542 1220v-21l14 14l-7 7h-7zM717 1206 v-21l14 -14v49zM220 1185v-7l21 -7v21zM346 1199h7l14 -14h-21v14zM640 1185v-14h14v14h-14zM199 1178l-7 -35v-35l14 -14h7v35l-7 49h-7zM766 1171l-7 -35l7 -35h14v56zM724 1150v-35h7l7 28l-7 7h-7zM640 1136v-7l14 -14v21h-14zM283 1115l7 -63l14 14l-7 49h-14z M591 1052l7 -7h7v21zM647 1052v-21h7v21h-7zM290 1010l-7 -7v-49l14 -14h7v56zM682 982l7 -35h14v49h-7zM150 982v-7l21 -7l7 7v7l-7 7zM220 919v-14l14 -14l14 14v7l-7 7v7q21 0 21 14v28h-7q-21 0 -21 -49h-14zM213 954v-14h14zM157 919v-14h14l14 14l-14 14zM290 919v-42 h14l7 42h-21zM696 877v-7h14v7h-14zM563 849v-14h21v14h-21zM521 821v-28h14v28h-14zM437 814v-28h14v28h-14zM311 702v-28h7v28h-7zM570 695v-7h14v7h-14zM220 632l7 -21l14 14v14h-7l-7 -7h-7zM367 429q0 -238 49 -238h14q49 0 49 49v112l7 63l-7 70v98l7 35l-7 7h-21 q-91 -88 -91 -196zM227 555v-49h14v49h-14zM717 520v-14h7v14h-7zM717 450v-21h7v21h-7zM192 415v-63l14 14l-7 21l7 21l-7 7h-7zM717 394v-7h14v7h-14zM717 359v-28l14 -14v42h-14zM591 317v-63l-14 -21l21 -21h7v105h-14zM549 226l-7 -21q9 -35 21 -35h7v21l-7 35h-14z M199 205v-49l14 -14l7 7v7l-7 49h-14zM598 184l-7 -63l7 -7h14l-7 70h-7zM157 156v-7l14 -14h7zM696 142v-28h7l21 7l14 -14h14v21h-14v7l-7 -7h-14zM647 107l-14 -14h-14l-7 7h-7l-14 -35l7 -21h14l21 14h14l21 -7v7l7 7v7q-14 32 -28 35zM703 107l-14 -21v-7l7 -35h7 q21 0 21 28l7 -7h21l7 21zM549 79v-7l21 -7v14h-21zM780 65v-35h7l7 28l-7 7h-7zM563 37v-21h7l7 21h-14zM696 23v-14h14v14h-14zM563 9v-21l14 14l-7 7h-7zM255 -19v-21l14 14l-7 7h-7zM439 1817q49 0 98 -133q84 -131 84 -161l-7 -7h-63q-119 0 -154 56l-231 238l7 7h266z " />
<glyph unicode="&#xe1;" horiz-adv-x="881" d="M437 1430l7 -7l7 7h7q28 -7 28 -28l-7 -42l7 -28l-7 -56l7 -35h7l14 70l-14 14q11 28 21 28l7 -7v-28l-7 -7v-7l21 -14h14l-7 7v14l14 14q-4 40 -21 63l14 28h7q54 0 70 -35l7 7h14q21 -7 21 -42v-70l-7 -28l14 -63h-7l7 -21q14 0 21 56l-14 140h14q21 -7 21 -42l-21 -35 q10 -29 35 -42l7 7v7l-7 21l7 7h7q21 0 21 -77h7v63h7q19 -9 63 -210h-7l7 -7v-49l-14 -21l7 -28l-14 -14v-7h21v-21l-7 -7l14 -28l-7 -28l7 -7v-7h-7l7 -7v-14l-7 -28l7 -21l-14 -14v-14l14 -42l-7 -21l7 -21v-14h-7l7 -189v-315q0 -14 -28 -14v-119q28 0 28 -14 q-7 -28 -42 -28q-84 0 -84 14q-31 -14 -91 -14l-70 7l-56 -7q-14 32 -14 91v7h-7l-77 -84q-80 -42 -119 -42l-21 14l-21 -7q-84 0 -161 91q-56 68 -56 210v217q0 165 112 217l56 42h21v-28q4 -42 21 -42v7l-7 77q252 108 252 182v56q0 210 -63 210l-7 7h-14q0 -21 -14 -21 h-7v49l-7 35l7 42v35h-28q0 -23 -42 -28q0 21 -21 21l-7 -7v-14l7 -7l-7 -7v-112h21v119h7q56 -23 56 -35v-21l-7 -7l-28 -14q0 -35 -14 -35q0 -56 49 -56v-140h-7q-14 0 -14 21l-21 -14l14 -35l7 7h21v-56l-7 -7l7 -7v-42l-49 -7l-28 7v-7l-35 14l-21 -7l-7 21h-14l7 -7v-7 l-14 -14q-70 0 -70 28l7 35q-28 0 -28 49q16 0 21 35l-21 14h-7q0 -21 -21 -21l-21 -49v-21q0 -35 56 -35l7 -7v-7l-7 -7h-21l-7 7l-35 -14q-19 0 -35 35q10 56 21 56l-14 70q0 291 245 392q65 21 119 21q7 -56 21 -56q0 63 21 63zM514 1423l14 -21v-14l-14 -14 q-16 0 -21 35zM318 1332v-14h7v14h-7zM451 1318v-14h7v14h-7zM402 1311v-63h21l7 35l-7 28h-21zM731 1318h7l14 -14h-7zM626 1297l7 -28l-7 -7v-7l7 -49h7l14 14l-14 14l14 14q-14 16 -14 49h-14zM444 1283v-7l14 -14l7 7v7l-7 7h-14zM542 1220v-21l14 14l-7 7h-7zM717 1206 v-21l14 -14v49zM220 1185v-7l21 -7v21zM346 1199h7l14 -14h-21v14zM640 1185v-14h14v14h-14zM199 1178l-7 -35v-35l14 -14h7v35l-7 49h-7zM766 1171l-7 -35l7 -35h14v56zM724 1150v-35h7l7 28l-7 7h-7zM640 1136v-7l14 -14v21h-14zM283 1115l7 -63l14 14l-7 49h-14z M591 1052l7 -7h7v21zM647 1052v-21h7v21h-7zM290 1010l-7 -7v-49l14 -14h7v56zM682 982l7 -35h14v49h-7zM150 982v-7l21 -7l7 7v7l-7 7zM220 919v-14l14 -14l14 14v7l-7 7v7q21 0 21 14v28h-7q-21 0 -21 -49h-14zM213 954v-14h14zM157 919v-14h14l14 14l-14 14zM290 919v-42 h14l7 42h-21zM696 877v-7h14v7h-14zM563 849v-14h21v14h-21zM521 821v-28h14v28h-14zM437 814v-28h14v28h-14zM311 702v-28h7v28h-7zM570 695v-7h14v7h-14zM220 632l7 -21l14 14v14h-7l-7 -7h-7zM367 429q0 -238 49 -238h14q49 0 49 49v112l7 63l-7 70v98l7 35l-7 7h-21 q-91 -88 -91 -196zM227 555v-49h14v49h-14zM717 520v-14h7v14h-7zM717 450v-21h7v21h-7zM192 415v-63l14 14l-7 21l7 21l-7 7h-7zM717 394v-7h14v7h-14zM717 359v-28l14 -14v42h-14zM591 317v-63l-14 -21l21 -21h7v105h-14zM549 226l-7 -21q9 -35 21 -35h7v21l-7 35h-14z M199 205v-49l14 -14l7 7v7l-7 49h-14zM598 184l-7 -63l7 -7h14l-7 70h-7zM157 156v-7l14 -14h7zM696 142v-28h7l21 7l14 -14h14v21h-14v7l-7 -7h-14zM647 107l-14 -14h-14l-7 7h-7l-14 -35l7 -21h14l21 14h14l21 -7v7l7 7v7q-14 32 -28 35zM703 107l-14 -21v-7l7 -35h7 q21 0 21 28l7 -7h21l7 21zM549 79v-7l21 -7v14h-21zM780 65v-35h7l7 28l-7 7h-7zM563 37v-21h7l7 21h-14zM696 23v-14h14v14h-14zM563 9v-21l14 14l-7 7h-7zM255 -19v-21l14 14l-7 7h-7zM710 1812l6 -7l-209 -238q-32 -56 -139 -56h-57l-6 7q0 30 76 161q44 133 88 133h241z " />
<glyph unicode="&#xe2;" horiz-adv-x="881" d="M437 1430l7 -7l7 7h7q28 -7 28 -28l-7 -42l7 -28l-7 -56l7 -35h7l14 70l-14 14q11 28 21 28l7 -7v-28l-7 -7v-7l21 -14h14l-7 7v14l14 14q-4 40 -21 63l14 28h7q54 0 70 -35l7 7h14q21 -7 21 -42v-70l-7 -28l14 -63h-7l7 -21q14 0 21 56l-14 140h14q21 -7 21 -42l-21 -35 q10 -29 35 -42l7 7v7l-7 21l7 7h7q21 0 21 -77h7v63h7q19 -9 63 -210h-7l7 -7v-49l-14 -21l7 -28l-14 -14v-7h21v-21l-7 -7l14 -28l-7 -28l7 -7v-7h-7l7 -7v-14l-7 -28l7 -21l-14 -14v-14l14 -42l-7 -21l7 -21v-14h-7l7 -189v-315q0 -14 -28 -14v-119q28 0 28 -14 q-7 -28 -42 -28q-84 0 -84 14q-31 -14 -91 -14l-70 7l-56 -7q-14 32 -14 91v7h-7l-77 -84q-80 -42 -119 -42l-21 14l-21 -7q-84 0 -161 91q-56 68 -56 210v217q0 165 112 217l56 42h21v-28q4 -42 21 -42v7l-7 77q252 108 252 182v56q0 210 -63 210l-7 7h-14q0 -21 -14 -21 h-7v49l-7 35l7 42v35h-28q0 -23 -42 -28q0 21 -21 21l-7 -7v-14l7 -7l-7 -7v-112h21v119h7q56 -23 56 -35v-21l-7 -7l-28 -14q0 -35 -14 -35q0 -56 49 -56v-140h-7q-14 0 -14 21l-21 -14l14 -35l7 7h21v-56l-7 -7l7 -7v-42l-49 -7l-28 7v-7l-35 14l-21 -7l-7 21h-14l7 -7v-7 l-14 -14q-70 0 -70 28l7 35q-28 0 -28 49q16 0 21 35l-21 14h-7q0 -21 -21 -21l-21 -49v-21q0 -35 56 -35l7 -7v-7l-7 -7h-21l-7 7l-35 -14q-19 0 -35 35q10 56 21 56l-14 70q0 291 245 392q65 21 119 21q7 -56 21 -56q0 63 21 63zM514 1423l14 -21v-14l-14 -14 q-16 0 -21 35zM318 1332v-14h7v14h-7zM451 1318v-14h7v14h-7zM402 1311v-63h21l7 35l-7 28h-21zM731 1318h7l14 -14h-7zM626 1297l7 -28l-7 -7v-7l7 -49h7l14 14l-14 14l14 14q-14 16 -14 49h-14zM444 1283v-7l14 -14l7 7v7l-7 7h-14zM542 1220v-21l14 14l-7 7h-7zM717 1206 v-21l14 -14v49zM220 1185v-7l21 -7v21zM346 1199h7l14 -14h-21v14zM640 1185v-14h14v14h-14zM199 1178l-7 -35v-35l14 -14h7v35l-7 49h-7zM766 1171l-7 -35l7 -35h14v56zM724 1150v-35h7l7 28l-7 7h-7zM640 1136v-7l14 -14v21h-14zM283 1115l7 -63l14 14l-7 49h-14z M591 1052l7 -7h7v21zM647 1052v-21h7v21h-7zM290 1010l-7 -7v-49l14 -14h7v56zM682 982l7 -35h14v49h-7zM150 982v-7l21 -7l7 7v7l-7 7zM220 919v-14l14 -14l14 14v7l-7 7v7q21 0 21 14v28h-7q-21 0 -21 -49h-14zM213 954v-14h14zM157 919v-14h14l14 14l-14 14zM290 919v-42 h14l7 42h-21zM696 877v-7h14v7h-14zM563 849v-14h21v14h-21zM521 821v-28h14v28h-14zM437 814v-28h14v28h-14zM311 702v-28h7v28h-7zM570 695v-7h14v7h-14zM220 632l7 -21l14 14v14h-7l-7 -7h-7zM367 429q0 -238 49 -238h14q49 0 49 49v112l7 63l-7 70v98l7 35l-7 7h-21 q-91 -88 -91 -196zM227 555v-49h14v49h-14zM717 520v-14h7v14h-7zM717 450v-21h7v21h-7zM192 415v-63l14 14l-7 21l7 21l-7 7h-7zM717 394v-7h14v7h-14zM717 359v-28l14 -14v42h-14zM591 317v-63l-14 -21l21 -21h7v105h-14zM549 226l-7 -21q9 -35 21 -35h7v21l-7 35h-14z M199 205v-49l14 -14l7 7v7l-7 49h-14zM598 184l-7 -63l7 -7h14l-7 70h-7zM157 156v-7l14 -14h7zM696 142v-28h7l21 7l14 -14h14v21h-14v7l-7 -7h-14zM647 107l-14 -14h-14l-7 7h-7l-14 -35l7 -21h14l21 14h14l21 -7v7l7 7v7q-14 32 -28 35zM703 107l-14 -21v-7l7 -35h7 q21 0 21 28l7 -7h21l7 21zM549 79v-7l21 -7v14h-21zM780 65v-35h7l7 28l-7 7h-7zM563 37v-21h7l7 21h-14zM696 23v-14h14v14h-14zM563 9v-21l14 14l-7 7h-7zM255 -19v-21l14 14l-7 7h-7zM408 1896l4 -4h14l4 4q48 0 48 -33q160 -408 160 -426l-11 -4q-74 0 -74 7l-19 -7 l-15 7l-11 -3l-85 255l-4 4q0 11 -7 11l-56 -159l-11 -11l3 -19q-27 -85 -37 -85h-44l-4 4l-4 -4h-67l-7 7q157 405 182 452h37zM504 1648h8v7zM549 1466l-4 -3l4 -15h4l3 15l-3 3h-4z" />
<glyph unicode="&#xe3;" horiz-adv-x="945" d="M469 1498l7 -7l7 7h7q28 -7 28 -28l-7 -42l7 -28l-7 -56l7 -35h7l14 70l-14 14q11 28 21 28l7 -7v-28l-7 -7v-7l21 -14h14l-7 7v14l14 14q-4 40 -21 63l14 28h7q54 0 70 -35l7 7h14q21 -7 21 -42v-70l-7 -28l14 -63h-7l7 -21q14 0 21 56l-14 140h14q21 -7 21 -42l-21 -35 q10 -29 35 -42l7 7v7l-7 21l7 7h7q21 0 21 -77h7v63h7q19 -9 63 -210h-7l7 -7v-49l-14 -21l7 -28l-14 -14v-7h21v-21l-7 -7l14 -28l-7 -28l7 -7v-7h-7l7 -7v-14l-7 -28l7 -21l-14 -14v-14l14 -42l-7 -21l7 -21v-14h-7l7 -189v-315q0 -14 -28 -14v-119q28 0 28 -14 q-7 -28 -42 -28q-84 0 -84 14q-31 -14 -91 -14l-70 7l-56 -7q-14 32 -14 91v7h-7l-77 -84q-80 -42 -119 -42l-21 14l-21 -7q-84 0 -161 91q-56 68 -56 210v217q0 165 112 217l56 42h21v-28q4 -42 21 -42v7l-7 77q252 108 252 182v56q0 210 -63 210l-7 7h-14q0 -21 -14 -21 h-7v49l-7 35l7 42v35h-28q0 -23 -42 -28q0 21 -21 21l-7 -7v-14l7 -7l-7 -7v-112h21v119h7q56 -23 56 -35v-21l-7 -7l-28 -14q0 -35 -14 -35q0 -56 49 -56v-140h-7q-14 0 -14 21l-21 -14l14 -35l7 7h21v-56l-7 -7l7 -7v-42l-49 -7l-28 7v-7l-35 14l-21 -7l-7 21h-14l7 -7v-7 l-14 -14q-70 0 -70 28l7 35q-28 0 -28 49q16 0 21 35l-21 14h-7q0 -21 -21 -21l-21 -49v-21q0 -35 56 -35l7 -7v-7l-7 -7h-21l-7 7l-35 -14q-19 0 -35 35q10 56 21 56l-14 70q0 291 245 392q65 21 119 21q7 -56 21 -56q0 63 21 63zM546 1491l14 -21v-14l-14 -14 q-16 0 -21 35zM350 1400v-14h7v14h-7zM483 1386v-14h7v14h-7zM434 1379v-63h21l7 35l-7 28h-21zM763 1386h7l14 -14h-7zM658 1365l7 -28l-7 -7v-7l7 -49h7l14 14l-14 14l14 14q-14 16 -14 49h-14zM476 1351v-7l14 -14l7 7v7l-7 7h-14zM574 1288v-21l14 14l-7 7h-7zM749 1274 v-21l14 -14v49zM252 1253v-7l21 -7v21zM378 1267h7l14 -14h-21v14zM672 1253v-14h14v14h-14zM231 1246l-7 -35v-35l14 -14h7v35l-7 49h-7zM798 1239l-7 -35l7 -35h14v56zM756 1218v-35h7l7 28l-7 7h-7zM672 1204v-7l14 -14v21h-14zM315 1183l7 -63l14 14l-7 49h-14z M623 1120l7 -7h7v21zM679 1120v-21h7v21h-7zM322 1078l-7 -7v-49l14 -14h7v56zM714 1050l7 -35h14v49h-7zM182 1050v-7l21 -7l7 7v7l-7 7zM252 987v-14l14 -14l14 14v7l-7 7v7q21 0 21 14v28h-7q-21 0 -21 -49h-14zM245 1022v-14h14zM189 987v-14h14l14 14l-14 14zM322 987 v-42h14l7 42h-21zM728 945v-7h14v7h-14zM595 917v-14h21v14h-21zM553 889v-28h14v28h-14zM469 882v-28h14v28h-14zM343 770v-28h7v28h-7zM602 763v-7h14v7h-14zM252 700l7 -21l14 14v14h-7l-7 -7h-7zM399 497q0 -238 49 -238h14q49 0 49 49v112l7 63l-7 70v98l7 35l-7 7h-21 q-91 -88 -91 -196zM259 623v-49h14v49h-14zM749 588v-14h7v14h-7zM749 518v-21h7v21h-7zM224 483v-63l14 14l-7 21l7 21l-7 7h-7zM749 462v-7h14v7h-14zM749 427v-28l14 -14v42h-14zM623 385v-63l-14 -21l21 -21h7v105h-14zM581 294l-7 -21q9 -35 21 -35h7v21l-7 35h-14z M231 273v-49l14 -14l7 7v7l-7 49h-14zM630 252l-7 -63l7 -7h14l-7 70h-7zM189 224v-7l14 -14h7zM728 210v-28h7l21 7l14 -14h14v21h-14v7l-7 -7h-14zM679 175l-14 -14h-14l-7 7h-7l-14 -35l7 -21h14l21 14h14l21 -7v7l7 7v7q-14 32 -28 35zM735 175l-14 -21v-7l7 -35h7 q21 0 21 28l7 -7h21l7 21zM581 147v-7l21 -7v14h-21zM812 133v-35h7l7 28l-7 7h-7zM595 105v-21h7l7 21h-14zM728 91v-14h14v14h-14zM595 77v-21l14 14l-7 7h-7zM287 49v-21l14 14l-7 7h-7zM869 1938l7 -7v-252q0 -66 -203 -161l-56 -7q-75 0 -308 126l-28 7h-35 q-92 0 -217 -154h-21v252q0 92 238 175h28q58 -1 301 -126l56 -14q84 0 238 161z" />
<glyph unicode="&#xe4;" horiz-adv-x="881" d="M437 1430l7 -7l7 7h7q28 -7 28 -28l-7 -42l7 -28l-7 -56l7 -35h7l14 70l-14 14q11 28 21 28l7 -7v-28l-7 -7v-7l21 -14h14l-7 7v14l14 14q-4 40 -21 63l14 28h7q54 0 70 -35l7 7h14q21 -7 21 -42v-70l-7 -28l14 -63h-7l7 -21q14 0 21 56l-14 140h14q21 -7 21 -42l-21 -35 q10 -29 35 -42l7 7v7l-7 21l7 7h7q21 0 21 -77h7v63h7q19 -9 63 -210h-7l7 -7v-49l-14 -21l7 -28l-14 -14v-7h21v-21l-7 -7l14 -28l-7 -28l7 -7v-7h-7l7 -7v-14l-7 -28l7 -21l-14 -14v-14l14 -42l-7 -21l7 -21v-14h-7l7 -189v-315q0 -14 -28 -14v-119q28 0 28 -14 q-7 -28 -42 -28q-84 0 -84 14q-31 -14 -91 -14l-70 7l-56 -7q-14 32 -14 91v7h-7l-77 -84q-80 -42 -119 -42l-21 14l-21 -7q-84 0 -161 91q-56 68 -56 210v217q0 165 112 217l56 42h21v-28q4 -42 21 -42v7l-7 77q252 108 252 182v56q0 210 -63 210l-7 7h-14q0 -21 -14 -21 h-7v49l-7 35l7 42v35h-28q0 -23 -42 -28q0 21 -21 21l-7 -7v-14l7 -7l-7 -7v-112h21v119h7q56 -23 56 -35v-21l-7 -7l-28 -14q0 -35 -14 -35q0 -56 49 -56v-140h-7q-14 0 -14 21l-21 -14l14 -35l7 7h21v-56l-7 -7l7 -7v-42l-49 -7l-28 7v-7l-35 14l-21 -7l-7 21h-14l7 -7v-7 l-14 -14q-70 0 -70 28l7 35q-28 0 -28 49q16 0 21 35l-21 14h-7q0 -21 -21 -21l-21 -49v-21q0 -35 56 -35l7 -7v-7l-7 -7h-21l-7 7l-35 -14q-19 0 -35 35q10 56 21 56l-14 70q0 291 245 392q65 21 119 21q7 -56 21 -56q0 63 21 63zM514 1423l14 -21v-14l-14 -14 q-16 0 -21 35zM318 1332v-14h7v14h-7zM451 1318v-14h7v14h-7zM402 1311v-63h21l7 35l-7 28h-21zM731 1318h7l14 -14h-7zM626 1297l7 -28l-7 -7v-7l7 -49h7l14 14l-14 14l14 14q-14 16 -14 49h-14zM444 1283v-7l14 -14l7 7v7l-7 7h-14zM542 1220v-21l14 14l-7 7h-7zM717 1206 v-21l14 -14v49zM220 1185v-7l21 -7v21zM346 1199h7l14 -14h-21v14zM640 1185v-14h14v14h-14zM199 1178l-7 -35v-35l14 -14h7v35l-7 49h-7zM766 1171l-7 -35l7 -35h14v56zM724 1150v-35h7l7 28l-7 7h-7zM640 1136v-7l14 -14v21h-14zM283 1115l7 -63l14 14l-7 49h-14z M591 1052l7 -7h7v21zM647 1052v-21h7v21h-7zM290 1010l-7 -7v-49l14 -14h7v56zM682 982l7 -35h14v49h-7zM150 982v-7l21 -7l7 7v7l-7 7zM220 919v-14l14 -14l14 14v7l-7 7v7q21 0 21 14v28h-7q-21 0 -21 -49h-14zM213 954v-14h14zM157 919v-14h14l14 14l-14 14zM290 919v-42 h14l7 42h-21zM696 877v-7h14v7h-14zM563 849v-14h21v14h-21zM521 821v-28h14v28h-14zM437 814v-28h14v28h-14zM311 702v-28h7v28h-7zM570 695v-7h14v7h-14zM220 632l7 -21l14 14v14h-7l-7 -7h-7zM367 429q0 -238 49 -238h14q49 0 49 49v112l7 63l-7 70v98l7 35l-7 7h-21 q-91 -88 -91 -196zM227 555v-49h14v49h-14zM717 520v-14h7v14h-7zM717 450v-21h7v21h-7zM192 415v-63l14 14l-7 21l7 21l-7 7h-7zM717 394v-7h14v7h-14zM717 359v-28l14 -14v42h-14zM591 317v-63l-14 -21l21 -21h7v105h-14zM549 226l-7 -21q9 -35 21 -35h7v21l-7 35h-14z M199 205v-49l14 -14l7 7v7l-7 49h-14zM598 184l-7 -63l7 -7h14l-7 70h-7zM157 156v-7l14 -14h7zM696 142v-28h7l21 7l14 -14h14v21h-14v7l-7 -7h-14zM647 107l-14 -14h-14l-7 7h-7l-14 -35l7 -21h14l21 14h14l21 -7v7l7 7v7q-14 32 -28 35zM703 107l-14 -21v-7l7 -35h7 q21 0 21 28l7 -7h21l7 21zM549 79v-7l21 -7v14h-21zM780 65v-35h7l7 28l-7 7h-7zM563 37v-21h7l7 21h-14zM696 23v-14h14v14h-14zM563 9v-21l14 14l-7 7h-7zM255 -19v-21l14 14l-7 7h-7zM89 1748l36 -6l18 6l23 -6l4 6h5l4 -6l55 6h131l22 -6l5 -85v-142l-14 -17h-185l-27 6 l-18 -6l-5 23h-9q0 -23 -9 -23l-4 6h-5l-22 -6l-9 17v165l-5 57zM189 1720v-57q0 -12 -19 -12l-4 -17l4 -5l5 5h4l19 -17l9 34l-5 6h-4l4 17l-4 46h-9zM161 1526v-17h9v17h-9zM470 1748l36 -6l18 6l23 -6l4 6h5l4 -6l55 6h131l22 -6l5 -85v-142l-14 -17h-185l-27 6l-18 -6 l-5 23h-9q0 -23 -9 -23l-4 6h-5l-22 -6l-9 17v165l-5 57zM570 1720v-57q0 -12 -19 -12l-4 -17l4 -5l5 5h4l19 -17l9 34l-5 6h-4l4 17l-4 46h-9zM542 1526v-17h9v17h-9z" />
<glyph unicode="&#xe5;" d="M106 1629q29 166 94 162h7v7l-14 1l1 14q55 74 333 57l112 -7l55 -24l7 6l7 -7l14 13l20 -15l14 -1l1 14l7 -1l20 -15l63 -4l43 5q117 -34 113 -91q38 -3 64 -102l3 -64l-27 -103l7 -1q-69 -171 -248 -160l-21 8l-84 -2l-216 14l-7 7l-21 -6l-112 14v-7q-101 6 -178 81 q-64 95 -57 207zM285 1576l370 -23l77 -11l56 3l28 -1l41 -10q57 6 60 53l-27 22l-98 6l-76 12l-22 -6l-20 8h-105l-280 17l-22 -20l-2 -28zM646 1750l14 -1l1 7l-14 1zM651 1476l7 7v7l-21 1zM648 1666l14 -1v7l-14 1v-7zM721 1711l14 -1v7l-14 1v-7zM822 1754l21 -2v14 l-21 2v-14zM858 1667l21 -1l1 7l-21 1zM860 1352l36 4l1 14l-35 3zM561 1286l7 -7l7 7h7q28 -7 28 -28l-7 -42l7 -28l-7 -56l7 -35h7l14 70l-14 14q11 28 21 28l7 -7v-28l-7 -7v-7l21 -14h14l-7 7v14l14 14q-4 40 -21 63l14 28h7q54 0 70 -35l7 7h14q21 -7 21 -42v-70 l-7 -28l14 -63h-7l7 -21q14 0 21 56l-14 140h14q21 -7 21 -42l-21 -35q10 -29 35 -42l7 7v7l-7 21l7 7h7q21 0 21 -77h7v63h7q19 -9 63 -210h-7l7 -7v-49l-14 -21l7 -28l-14 -14v-7h21v-21l-7 -7l14 -28l-7 -28l7 -7v-7h-7l7 -7v-14l-7 -28l7 -21l-14 -14v-14l14 -42l-7 -21 l7 -21v-14h-7l7 -189v-315q0 -14 -28 -14v-119q28 0 28 -14q-7 -28 -42 -28q-84 0 -84 14q-31 -14 -91 -14l-70 7l-56 -7q-14 32 -14 91v7h-7l-77 -84q-80 -42 -119 -42l-21 14l-21 -7q-84 0 -161 91q-56 69 -56 210v217q0 165 112 217l56 42h21v-28q5 -42 21 -42v7l-7 77 q252 108 252 182v56q0 210 -63 210l-7 7h-14q0 -21 -14 -21h-7v49l-7 35l7 42v35h-28q0 -23 -42 -28q0 21 -21 21l-7 -7v-14l7 -7l-7 -7v-112h21v119h7q56 -23 56 -35v-21l-7 -7l-28 -14q0 -35 -14 -35q0 -56 49 -56v-140h-7q-14 0 -14 21l-21 -14l14 -35l7 7h21v-56l-7 -7 l7 -7v-42l-49 -7l-28 7v-7l-35 14l-21 -7l-7 21h-14l7 -7v-7l-14 -14q-70 0 -70 28l7 35q-28 0 -28 49q16 0 21 35l-21 14h-7q0 -21 -21 -21l-21 -49v-21q0 -35 56 -35l7 -7v-7l-7 -7h-21l-7 7l-35 -14q-18 0 -35 35q10 56 21 56l-14 70q0 291 245 392q66 21 119 21 q7 -56 21 -56q0 63 21 63zM638 1279l14 -21v-14l-14 -14q-16 0 -21 35zM442 1188v-14h7v14h-7zM575 1174v-14h7v14h-7zM526 1167v-63h21l7 35l-7 28h-21zM855 1174h7l14 -14h-7zM750 1153l7 -28l-7 -7v-7l7 -49h7l14 14l-14 14l14 14q-14 16 -14 49h-14zM568 1139v-7l14 -14 l7 7v7l-7 7h-14zM666 1076v-21l14 14l-7 7h-7zM841 1062v-21l14 -14v49zM344 1041v-7l21 -7v21zM470 1055h7l14 -14h-21v14zM764 1041v-14h14v14h-14zM323 1034l-7 -35v-35l14 -14h7v35l-7 49h-7zM890 1027l-7 -35l7 -35h14v56zM848 1006v-35h7l7 28l-7 7h-7zM764 992v-7 l14 -14v21h-14zM407 971l7 -63l14 14l-7 49h-14zM715 908l7 -7h7v21zM771 908v-21h7v21h-7zM414 866l-7 -7v-49l14 -14h7v56zM806 838l7 -35h14v49h-7zM274 838v-7l21 -7l7 7v7l-7 7zM344 775v-14l14 -14l14 14v7l-7 7v7q21 0 21 14v28h-7q-21 0 -21 -49h-14zM337 810v-14 h14zM281 775v-14h14l14 14l-14 14zM414 775v-42h14l7 42h-21zM820 733v-7h14v7h-14zM687 705v-14h21v14h-21zM645 677v-28h14v28h-14zM561 670v-28h14v28h-14zM435 558v-28h7v28h-7zM694 551v-7h14v7h-14zM344 488l7 -21l14 14v14h-7l-7 -7h-7zM491 285q0 -238 49 -238h14 q49 0 49 49v112l7 63l-7 70v98l7 35l-7 7h-21q-91 -88 -91 -196zM351 411v-49h14v49h-14zM841 376v-14h7v14h-7zM841 306v-21h7v21h-7zM316 271v-63l14 14l-7 21l7 21l-7 7h-7zM841 250v-7h14v7h-14zM841 215v-28l14 -14v42h-14zM715 173v-63l-14 -21l21 -21h7v105h-14z M673 82l-7 -21q9 -35 21 -35h7v21l-7 35h-14zM323 61v-49l14 -14l7 7v7l-7 49h-14zM722 40l-7 -63l7 -7h14l-7 70h-7zM281 12v-7l14 -14h7zM820 -2v-28h7l21 7l14 -14h14v21h-14v7l-7 -7h-14zM771 -37l-14 -14h-14l-7 7h-7l-14 -35l7 -21h14l21 14h14l21 -7v7l7 7v7 q-13 32 -28 35zM827 -37l-14 -21v-7l7 -35h7q21 0 21 28l7 -7h21l7 21zM673 -65v-7l21 -7v14h-21zM904 -79v-35h7l7 28l-7 7h-7zM687 -107v-21h7l7 21h-14zM820 -121v-14h14v14h-14zM687 -135v-21l14 14l-7 7h-7zM379 -163v-21l14 14l-7 7h-7z" />
<glyph unicode="&#xe6;" horiz-adv-x="1486" d="M465 1458l7 -7l7 7h7q28 -7 28 -28l-7 -42l7 -28l-7 -56l7 -35h7l14 70l-14 14l21 28l7 -7v-28l-7 -7v-7l21 -14h14l-7 7v14l14 14q-4 40 -21 63l14 28h7q54 0 70 -35l7 7h14q21 -7 21 -42v-70l-7 -28l14 -63h-7l7 -21q14 0 21 56l-14 140h14q21 -7 21 -42l-21 -35 q10 -29 35 -42l7 7v7l-7 21l7 7h7q21 0 21 -77h7v63h7q19 -9 63 -210h-7l7 -7v-49l-14 -21l7 -28l-14 -14v-7h21v-21l-7 -7l14 -28l-7 -28l7 -7v-7h-7l7 -7v-14l-7 -28l7 -21l-14 -14v-14l14 -42l-7 -21l7 -21v-14h-7l7 -189v-315q0 -14 -28 -14v-119q28 0 28 -14 q-7 -28 -42 -28q-84 0 -84 14q-31 -14 -91 -14l-70 7l-56 -7q-14 32 -14 91v7h-7l-77 -84q-80 -42 -119 -42l-21 14l-21 -7q-84 0 -161 91q-56 68 -56 210v217q0 165 112 217l56 42h21v-28q4 -42 21 -42v7l-7 77q252 108 252 182v56q0 210 -63 210l-7 7h-14q0 -21 -14 -21 h-7v49l-7 35l7 42v35h-28q0 -23 -42 -28q0 21 -21 21l-7 -7v-14l7 -7l-7 -7v-112h21v119h7q56 -23 56 -35v-21l-7 -7l-28 -14q0 -35 -14 -35q0 -56 49 -56v-140h-7q-14 0 -14 21l-21 -14l14 -35l7 7h21v-56l-7 -7l7 -7v-42l-49 -7l-28 7v-7l-35 14l-21 -7l-7 21h-14l7 -7v-7 l-14 -14q-70 0 -70 28l7 35q-28 0 -28 49q16 0 21 35l-21 14h-7q0 -21 -21 -21l-21 -49v-21q0 -35 56 -35l7 -7v-7l-7 -7h-21l-7 7l-35 -14q-19 0 -35 35q10 56 21 56l-14 70q0 291 245 392q65 21 119 21q7 -56 21 -56q0 63 21 63zM542 1451l14 -21v-14l-14 -14 q-16 0 -21 35zM346 1360v-14h7v14h-7zM479 1346v-14h7v14h-7zM430 1339v-63h21l7 35l-7 28h-21zM759 1346h7l14 -14h-7zM654 1325l7 -28l-7 -7v-7l7 -49h7l14 14l-14 14l14 14q-14 16 -14 49h-14zM472 1311v-7l14 -14l7 7v7l-7 7h-14zM570 1248v-21l14 14l-7 7h-7zM745 1234 v-21l14 -14v49zM248 1213v-7l21 -7v21zM374 1227h7l14 -14h-21v14zM668 1213v-14h14v14h-14zM227 1206l-7 -35v-35l14 -14h7v35l-7 49h-7zM794 1199l-7 -35l7 -35h14v56zM752 1178v-35h7l7 28l-7 7h-7zM668 1164v-7l14 -14v21h-14zM311 1143l7 -63l14 14l-7 49h-14z M619 1080l7 -7h7v21zM675 1080v-21h7v21h-7zM318 1038l-7 -7v-49l14 -14h7v56zM710 1010l7 -35h14v49h-7zM178 1010v-7l21 -7l7 7v7l-7 7zM248 947v-14l14 -14l14 14v7l-7 7v7q21 0 21 14v28h-7q-21 0 -21 -49h-14zM241 982v-14h14zM185 947v-14h14l14 14l-14 14zM318 947 v-42h14l7 42h-21zM724 905v-7h14v7h-14zM591 877v-14h21v14h-21zM549 849v-28h14v28h-14zM465 842v-28h14v28h-14zM339 730v-28h7v28h-7zM598 723v-7h14v7h-14zM248 660l7 -21l14 14v14h-7l-7 -7h-7zM395 457q0 -238 49 -238h14q49 0 49 49v112l7 63l-7 70v98l7 35l-7 7h-21 q-91 -88 -91 -196zM255 583v-49h14v49h-14zM745 548v-14h7v14h-7zM745 478v-21h7v21h-7zM220 443v-63l14 14l-7 21l7 21l-7 7h-7zM745 422v-7h14v7h-14zM745 387v-28l14 -14v42h-14zM619 345v-63l-14 -21l21 -21h7v105h-14zM577 254l-7 -21q9 -35 21 -35h7v21l-7 35h-14z M227 233v-49l14 -14l7 7v7l-7 49h-14zM626 212l-7 -63l7 -7h14l-7 70h-7zM185 184v-7l14 -14h7zM724 170v-28h7l21 7l14 -14h14v21h-14v7l-7 -7h-14zM675 135l-14 -14h-14l-7 7h-7l-14 -35l7 -21h14l21 14h14l21 -7v7l7 7v7q-14 32 -28 35zM731 135l-14 -21v-7l7 -35h7 q21 0 21 28l7 -7h21l7 21zM577 107v-7l21 -7v14h-21zM808 93v-35h7l7 28l-7 7h-7zM591 65v-21h7l7 21h-14zM724 51v-14h14v14h-14zM591 37v-21l14 14l-7 7h-7zM283 9v-21l14 14l-7 7h-7zM979 1474q324 0 413 -308q28 -110 28 -357v-91l-21 -21h-77q-133 0 -154 21l-14 -14 l-35 7l-21 -7l-21 7l-7 -7h-7l-28 7l-21 -14l-21 7q-25 0 -49 -21l7 -210v-147q0 -80 35 -91h21q63 0 63 98v203l7 49l-7 7l21 14h119l70 -7l63 7h56l21 -21q0 -393 -112 -483q-97 -126 -308 -126q-294 0 -392 287q-28 153 -28 238q0 21 21 21l7 7v14q-28 0 -28 14v21l7 182 l-7 21l7 7l-7 84v14q0 412 168 518q135 70 231 70zM951 1145v-210h98v189q0 80 -35 91h-28q-35 -16 -35 -70zM776 1201v-126l7 -49h14v119q0 52 -21 56zM1161 795v-21l14 -14v35h-14zM853 592v-14h7v14h-7zM776 571v-35l-7 -49l7 -7h7l7 7v7l-7 28l7 28v21h-14zM734 431v-21 h7v21h-7z" />
<glyph unicode="&#xe7;" horiz-adv-x="1024" d="M468 1529l7 -7h7l49 7q152 0 287 -126q82 -92 98 -238l-7 -35q14 0 21 -77q-14 -17 -14 -91l-7 -7h-7q-49 5 -49 14l-56 -14h-140q-77 0 -77 35l14 77q-14 173 -35 210l-49 -7q0 21 -14 21q-14 -36 -14 -161v-161l-7 -77l7 -7v-7l-14 -21l7 -119v-126l7 -63l-7 -7v-7 q0 -245 63 -245h21q42 18 42 77v245l7 35l105 7h21q16 0 28 -49h7q0 42 28 42l84 7h28l21 -21v-70l-14 -105l7 -21l-35 -168q-125 -224 -273 -224l-7 7l-14 -14h-14l-21 14h-7v-14h-7l-63 -7q-172 0 -287 161l-14 28q-21 28 -49 126l7 7v7l-21 77l7 7v7l-7 28l7 7 q-14 27 -14 77v126q2 35 14 35l-14 161l7 42l-7 21q0 380 112 455q64 82 245 126zM440 1501v-21h14v21h-14zM398 1480l7 -7h7v21zM447 1445v-14h7v14h-7zM440 1403l7 -7h7v21zM174 1102l7 -7q-21 0 -21 -21h35l7 98h-7q-21 0 -21 -70zM139 1151v-14h14v14h-14zM265 1151v-14 l14 -14h14v14l-14 14h-14zM412 1151v-42h14v7l-7 35h-7zM279 1095l-7 -35v-21l21 -21l35 14v56h-7v-35q-28 7 -28 42h-14zM370 1081l7 -21h7v21h-14zM286 997l-7 -7v-21h14l7 21l-7 7h-7zM328 962v-14h14v14h-14zM377 948v-63h21v28q-14 0 -14 35h-7zM286 941v-14h14v14h-14 zM426 836l7 -56l-7 -21l7 -7h7v84h-14zM384 808v-56l14 -14v56zM251 801v-42h14v28zM293 787v-70h21q-4 70 -21 70zM433 668v-35h14v35h-14zM762 563l-7 -42l7 -7l-7 -35v-14l28 -119l-7 -7v-7l7 -21l-7 -28l7 -21h14v28l-7 7l7 7l-7 21l7 112v14q-21 52 -21 105l-7 7h-7z M314 549v-21l14 -14v35h-14zM181 486v-70l14 -14v7l-7 42l7 28l-7 7h-7zM678 479l-7 -35v-14l7 -70h14v63l7 28l-7 28h-14zM811 465v-14h14v14h-14zM860 402l7 -28h7v35l-7 -7h-7zM321 388l-7 -49v-35l7 -35h7l7 21l-7 28l7 63l-7 7h-7zM636 388v-14h14v14h-14zM678 325v-7 l14 -14v21h-14zM363 283v-42h14v42h-14zM279 206v-21h14v21h-14zM244 199v-42l7 7h7l-7 35h-7zM552 178v-98h21l-7 7v77zM601 122l-14 -42l28 -21v63h-14zM503 176h238v-147l7 -42q0 -265 -217 -371h-21l-14 14v70q0 20 56 98l7 28q-63 11 -63 28l7 140h-7l7 7v7l-7 140z " />
<glyph unicode="&#xe8;" horiz-adv-x="1027" d="M460 1327q324 0 413 -308q28 -110 28 -357v-91l-21 -21h-77q-133 0 -154 21l-14 -14l-35 7l-21 -7l-21 7l-7 -7h-7l-28 7l-21 -14l-21 7q-25 0 -49 -21l7 -210v-147q0 -80 35 -91h21q63 0 63 98v203l7 49l-7 7l21 14h119l70 -7l63 7h56l21 -21q0 -393 -112 -483 q-97 -126 -308 -126q-294 0 -392 287q-28 153 -28 238q0 21 21 21l7 7v14q-28 0 -28 14v21l7 182l-7 21l7 7l-7 84v14q0 412 168 518q135 70 231 70zM432 998v-210h98v189q0 80 -35 91h-28q-35 -16 -35 -70zM257 1054v-126l7 -49h14v119q0 52 -21 56zM642 648v-21l14 -14v35 h-14zM334 445v-14h7v14h-7zM257 424v-35l-7 -49l7 -7h7l7 7v7l-7 28l7 28v21h-14zM215 284v-21h7v21h-7zM585 1694q49 0 98 -133q84 -131 84 -161l-7 -7h-63q-119 0 -154 56l-231 238l7 7h266z" />
<glyph unicode="&#xe9;" horiz-adv-x="985" d="M482 1430q324 0 413 -308q28 -110 28 -357v-91l-21 -21h-77q-133 0 -154 21l-14 -14l-35 7l-21 -7l-21 7l-7 -7h-7l-28 7l-21 -14l-21 7q-25 0 -49 -21l7 -210v-147q0 -80 35 -91h21q63 0 63 98v203l7 49l-7 7l21 14h119l70 -7l63 7h56l21 -21q0 -393 -112 -483 q-97 -126 -308 -126q-294 0 -392 287q-28 153 -28 238q0 21 21 21l7 7v14q-28 0 -28 14v21l7 182l-7 21l7 7l-7 84v14q0 412 168 518q135 70 231 70zM454 1101v-210h98v189q0 80 -35 91h-28q-35 -16 -35 -70zM279 1157v-126l7 -49h14v119q0 52 -21 56zM664 751v-21l14 -14 v35h-14zM356 548v-14h7v14h-7zM279 527v-35l-7 -49l7 -7h7l7 7v7l-7 28l7 28v21h-14zM237 387v-21h7v21h-7zM792 1839l7 -7l-220 -238q-34 -56 -146 -56h-60l-7 7q0 30 80 161q46 133 93 133h253z" />
<glyph unicode="&#xea;" />
<glyph unicode="&#xeb;" />
<glyph unicode="&#xec;" horiz-adv-x="569" />
<glyph unicode="&#xed;" horiz-adv-x="569" />
<glyph unicode="&#xee;" horiz-adv-x="569" />
<glyph unicode="&#xef;" horiz-adv-x="569" />
<glyph unicode="&#xf0;" />
<glyph unicode="&#xf1;" />
<glyph unicode="&#xf2;" />
<glyph unicode="&#xf3;" />
<glyph unicode="&#xf4;" />
<glyph unicode="&#xf5;" />
<glyph unicode="&#xf6;" />
<glyph unicode="&#xf7;" horiz-adv-x="1124" />
<glyph unicode="&#xf8;" horiz-adv-x="1251" />
<glyph unicode="&#xf9;" />
<glyph unicode="&#xfa;" />
<glyph unicode="&#xfb;" />
<glyph unicode="&#xfc;" />
<glyph unicode="&#xfd;" horiz-adv-x="1024" />
<glyph unicode="&#xfe;" />
<glyph unicode="&#xff;" horiz-adv-x="1024" />
<glyph unicode="&#x152;" horiz-adv-x="1434" d="M462 1682q5 -21 28 -28q0 28 14 28h7l7 -7l7 7h14q180 0 287 -147q105 -105 105 -315l7 -21l-7 -28l7 -133v-77l7 -280l-7 -49h7l-7 -7v-28l7 -7l-7 -7v-35q0 -406 -42 -406q0 -74 -84 -161h-21q-12 0 -21 35l7 21l-7 49h-14v-14h-7l7 -70v-56l-49 -35l-14 -14h-7v21h-7 l-14 -35h-14l-7 49h-14v-21l-7 -35h-21v14l-7 49l7 7l-7 7h-7q0 -70 -21 -98l-28 14l-14 -14h-7l-28 7l-7 -7q-169 19 -238 70q-175 160 -175 350l14 35l-14 49l7 56q0 35 -14 35l7 7v7l-7 252l7 56l-7 77v322q16 0 28 21l7 7q0 21 -21 21v7l14 14l-7 49v28q0 192 210 322 q89 42 168 42zM476 1493l14 -14v28zM343 1465v-21l14 14l-7 7h-7zM616 1395v-14h7v14h-7zM441 1304v-322l7 -7l-7 -7v-98l-14 -21v-14h14l7 -189l-14 -42l7 -63v-7l-7 -35l7 -42l-7 -35l7 -77v-42l-7 -28q17 -126 63 -126q56 0 63 84l7 -7h14v28h-7l-7 -7h-7l-7 7v7l14 140 l-7 7v7l7 7v7l-7 21l14 70l-14 21l7 42l-7 378v364l7 -7h14l7 21l-7 35h-14v-28h-7q-14 0 -21 42h-21l-7 -7l-21 7q-49 -32 -49 -84zM287 1374q7 -42 21 -42v28l-14 14h-7zM343 1325v-21h14v7zM210 1269v-35h14v35h-14zM161 1220v-21l7 -35h14v56h-21zM252 1220v-56h7l14 14 v28l-14 14h-7zM119 1192l7 -7h7v21zM343 1185v-14l14 -14v28h-14zM210 1150l-7 -35l7 -7h14v42h-14zM392 1136v-49h14v49h-14zM168 1108v-7l7 -28l-7 -21l7 -7h7v49zM217 1003v-7h14v7h-14zM588 989v-14h14v14h-14zM98 905l-7 -7v-7l14 -14l14 14v7zM630 891v-14h14v14h-14z M98 856v-14h7v14h-7zM413 849v-14h7v14h-7zM679 835v-28l14 14zM364 800v-28h14v14zM322 793v-133h7l7 7h7l-7 84v42h-14zM679 786v-42h14v7l-7 35h-7zM217 702v-21h7l14 14v14zM140 653v-14h7v14h-7zM147 527v-14h14v14h-14zM651 527v-21l14 14l-7 7h-7zM693 499v-21 l14 -14v35h-14zM826 492v-7l14 -14v21h-14zM609 478v-28h7v28h-7zM105 457v-14h7v14h-7zM112 310v-35l14 14v7zM203 296v-14h14v14h-14zM203 254l14 -14v28zM112 261v-42l14 -14v42zM574 177v-21h7v21h-7zM574 128v-7l14 -14l7 7v7zM441 107v-28l14 -14v42h-14zM532 107v-14 l14 -14v14zM707 100v-14h7v14h-7zM672 44v-14h14v14h-14zM532 16v-7l14 -14v35zM581 16v-35h14v35h-14zM539 -19l-7 -70l7 -28h7l7 35l-7 35l7 21l-7 7h-7zM691 1649h140l7 -7l7 7h343q0 -42 14 -42v42h21l21 -14l14 14h14l7 -7l7 7h28l7 -35v-301l-14 -14h-161 q-14 0 -14 21l-7 7h-7l-7 -28h-42v-266l-7 -7l7 -7v-49l84 -7v7l7 -7h28l7 7l7 -7h7l70 7q28 -7 28 -42v-182q0 -14 -28 -14v-42l28 -35l-35 -28l-7 7h-28l-7 -7l-28 14l-21 -14l-28 14l-28 -7l-7 7h-7q-49 0 -49 -70v-14h7l-7 -49v-140l7 -196l-7 -77h-7q-14 0 -21 56h-14 l-7 -21q17 -49 28 -49l21 7v-7l21 -21l14 14q-13 19 -21 161l77 14q49 0 49 -42v-7h7q14 0 14 35l7 7h7l14 -14l-7 -7l14 -91l-7 -84l21 -14l7 35l-7 70l14 35l-7 35l7 7h7l14 -14h14v21l-7 21h7l21 -7v-14l-7 -28l7 -49v-70l7 -70l-7 -63v-42l-35 -7h-42l-49 7v-7l-21 14 l-42 -14h-231l-70 7l-63 -7h-77l-21 21v238l-7 28l7 28v77h14l7 -7h7v42l-7 -7h-21v35l7 7q-14 27 -14 77q0 46 28 70l-21 21v63l14 21q-5 56 -14 56l14 21l-14 84v14h7l-7 84v238l7 70l-7 63v154l7 7l-7 7v63l-7 112l7 35l-7 7v7zM754 1607v-14l21 7v7h-21zM922 1607v-21 l14 -14l7 28l-7 7h-14zM1013 1516v-7l14 -14v21h-14zM1195 1516v-49h14v35zM838 1502v-7l14 -14v21h-14zM761 1453v-14h7v14h-7zM845 1432v-21h14l-7 21h-7zM712 1418v-28l14 14zM1062 1418v-21h14v21h-14zM1069 1376v-14h7v14h-7zM712 1271v-14l14 14h-14zM901 1222v-7 l7 -42l-7 -21l7 -7h7v63zM768 1215v-56h14v56h-14zM1034 1145l7 -7h7v21zM866 956l-7 -7v-14h21v7zM1041 928v-42h14v42h-14zM733 907l-7 -28l7 -21h14v49h-14zM908 900v-63h7l7 56l-7 7h-7zM775 879v-84h14v98zM957 865v-28l7 7h7l-7 21h-7zM817 851v-7l7 -35h7v42h-14z M866 809l7 -21h7l7 21l-7 21q-14 0 -14 -21zM957 809v-21h14v7zM957 767v-14l7 -42l-7 -28l7 -21l14 14v70l-7 35zM1090 781l7 -21h7v14l-7 7h-7zM733 767v-14h14v14h-14zM1146 732v-49h14l-7 49h-7zM873 704v-21h7v21h-7zM1223 697v-14l21 -7l7 7v7l-7 7v7zM1188 697 l14 -14v14h-14zM873 641v-35h7l14 14v14zM971 634v-21h7v21h-7zM831 613v-28l14 14zM971 585v-14l14 -14v14zM789 578l-7 -21l14 -63v-56l14 14l-7 28l7 7l-7 49v42h-14zM1020 529v-70h14v70h-14zM887 522v-35h7v35h-7zM747 501l7 -84v-28h14v28l-7 42l7 21l-7 21h-14z M887 466v-35h7v35h-7zM796 424v-84l14 -14v84zM936 410v-84h14v84h-14zM887 403v-98h14v98h-14zM978 396v-98l14 -14v98zM1020 375v-14l14 -14v28h-14zM712 361v-14h7v14h-7zM1020 312v-21l7 -49h7v84zM754 319v-14h14v14h-14zM754 270l7 -7h7v21zM838 284v-21h14v21h-14z M887 270v-42h7l7 42h-14zM985 263v-21h7v21h-7zM838 242v-49h21v7l-14 21v7l7 7v7h-14zM1293 242v-14h-14zM985 228v-21h7v21h-7zM803 214v-21h7v21h-7zM1118 214v-14h7v14h-7zM761 207v-21h7v21h-7zM1293 179v-7l7 -21h14v28h-21zM985 158v-35l21 7q-10 28 -21 28zM943 144 v-35l14 -14v35zM1118 116v-28l7 -35h7l7 21l-7 56zM838 123l7 -28l-7 -28l21 -7v63h-21zM1216 102l-14 -14v-35h21v49h-7zM985 95v-28l14 14zM1167 88v-42l21 7v21l-14 14h-7zM1307 74v-14h7v14h-7zM761 46v-63h14v63h-14zM852 18v-21h7v21h-7zM1251 -24v-35l14 -14l14 14 l-7 56zM803 -10v-21l14 14l-7 7h-7zM1209 -73l21 -14l7 21l-7 21z" />
<glyph unicode="&#x153;" horiz-adv-x="1606" d="M467 1442l21 -14l21 14q101 0 259 -91q147 -158 147 -385l-7 -210l7 -7l-7 -7v-7l7 -35l-14 -126l7 -91q0 -371 -175 -476q-76 -42 -182 -63l-7 7h-7l-49 -7q-91 6 -91 21l-21 -7q-154 0 -252 196q-49 120 -49 364l7 21l-7 28l21 84l-14 28l7 21q-5 49 -14 49l7 7v70 l7 63l-7 70v35q0 63 21 119h-7l42 140q79 128 231 175zM488 1414v-28h14v14zM523 1400v-14l14 -14l7 21l-7 21zM586 1407v-14h7v14h-7zM600 1386l-14 -14l7 -7v-14l-14 -21v-7q28 11 28 49v14h-7zM488 1302l7 -98v-7l-14 -14q-42 0 -42 -154h-7l14 -77l-7 -217l7 -280 l-7 -35q0 -217 49 -217l35 -7q11 28 21 28h7v-84h-7q-12 0 -21 49l-21 -7l14 -56v-84l-7 -7l7 -28h14v28q0 52 21 56l7 -21h21l7 49l-7 21l7 7v7l-7 42v21l14 14l7 -7v-91l14 -14h7v14h7l-14 140h-14l-7 -28q-49 30 -49 42l7 161l-7 420v14l7 28l-7 28v63l7 7l-7 7v112 q0 26 -28 63v7l-14 119zM719 1302v-21h14v21h-14zM677 1253v-35l14 14v7zM446 1246v-56h21v21l-7 35h-14zM229 1190v-21h14v21h-14zM600 1015v-84q0 -91 21 -91v7l-7 21l7 42l-7 49l7 49l-7 7h-14zM873 924l7 -49l-7 -7l7 -7h14v21l-7 7l7 7v7l-7 35zM558 910l7 -35h14v35 h-21zM565 826l7 -56l7 7h7l-7 7v7l7 35h-21zM614 826v-14h7v14h-7zM649 259v-98l14 14v84h-14zM740 252v-14l14 -14h7v28h-21zM649 133v-42l14 14v14zM390 42v-21h7v21h-7zM432 42v-14h-7q11 -28 21 -28l7 21l-7 21h-14zM474 14v-21h21v7l-14 14h-7zM1100 1462 q324 0 413 -308q28 -110 28 -357v-91l-21 -21h-77q-133 0 -154 21l-14 -14l-35 7l-21 -7l-21 7l-7 -7h-7l-28 7l-21 -14l-21 7q-25 0 -49 -21l7 -210v-147q0 -80 35 -91h21q63 0 63 98v203l7 49l-7 7l21 14h119l70 -7l63 7h56l21 -21q0 -393 -112 -483q-97 -126 -308 -126 q-294 0 -392 287q-28 153 -28 238q0 21 21 21l7 7v14q-28 0 -28 14v21l7 182l-7 21l7 7l-7 84v14q0 412 168 518q135 70 231 70zM1072 1133v-210h98v189q0 80 -35 91h-28q-35 -16 -35 -70zM897 1189v-126l7 -49h14v119q0 52 -21 56zM1282 783v-21l14 -14v35h-14zM974 580 v-14h7v14h-7zM897 559v-35l-7 -49l7 -7h7l7 7v7l-7 28l7 28v21h-14zM855 419v-21h7v21h-7z" />
<glyph unicode="&#x178;" horiz-adv-x="1366" />
<glyph unicode="&#x2c6;" horiz-adv-x="682" />
<glyph unicode="&#x2dc;" horiz-adv-x="682" />
<glyph unicode="&#x2000;" horiz-adv-x="1101" />
<glyph unicode="&#x2001;" horiz-adv-x="2202" />
<glyph unicode="&#x2002;" horiz-adv-x="1101" />
<glyph unicode="&#x2003;" horiz-adv-x="2202" />
<glyph unicode="&#x2004;" horiz-adv-x="734" />
<glyph unicode="&#x2005;" horiz-adv-x="550" />
<glyph unicode="&#x2006;" horiz-adv-x="367" />
<glyph unicode="&#x2007;" horiz-adv-x="367" />
<glyph unicode="&#x2008;" horiz-adv-x="275" />
<glyph unicode="&#x2009;" horiz-adv-x="440" />
<glyph unicode="&#x200a;" horiz-adv-x="122" />
<glyph unicode="&#x2010;" horiz-adv-x="682" d="M97 861l56 -7l28 7l35 -7l7 7h7l7 -7l84 7h203l35 -7l7 -105v-175l-21 -21h-287l-42 7l-28 -7l-7 28h-14q0 -28 -14 -28l-7 7h-7l-35 -7l-14 21v203l-7 70zM251 826v-70q0 -14 -28 -14l-7 -21l7 -7l7 7h7l28 -21l14 42l-7 7h-7l7 21l-7 56h-14zM209 588v-21h14v21h-14z " />
<glyph unicode="&#x2011;" horiz-adv-x="682" d="M97 861l56 -7l28 7l35 -7l7 7h7l7 -7l84 7h203l35 -7l7 -105v-175l-21 -21h-287l-42 7l-28 -7l-7 28h-14q0 -28 -14 -28l-7 7h-7l-35 -7l-14 21v203l-7 70zM251 826v-70q0 -14 -28 -14l-7 -21l7 -7l7 7h7l28 -21l14 42l-7 7h-7l7 21l-7 56h-14zM209 588v-21h14v21h-14z " />
<glyph unicode="&#x2012;" horiz-adv-x="682" d="M97 861l56 -7l28 7l35 -7l7 7h7l7 -7l84 7h203l35 -7l7 -105v-175l-21 -21h-287l-42 7l-28 -7l-7 28h-14q0 -28 -14 -28l-7 7h-7l-35 -7l-14 21v203l-7 70zM251 826v-70q0 -14 -28 -14l-7 -21l7 -7l7 7h7l28 -21l14 42l-7 7h-7l7 21l-7 56h-14zM209 588v-21h14v21h-14z " />
<glyph unicode="&#x2013;" />
<glyph unicode="&#x2014;" horiz-adv-x="2048" />
<glyph unicode="&#x2018;" horiz-adv-x="455" d="M336 1558l-6 -140v-7l6 -7h-6l6 -140q0 -18 -58 -28l6 -28q52 -78 52 -98v-70l-13 -14h-19q-200 105 -200 371l6 42v147h220z" />
<glyph unicode="&#x2019;" horiz-adv-x="455" d="M122 1489h238v-147l7 -42q0 -266 -217 -371h-21l-14 14v70q0 20 56 98l7 28q-63 10 -63 28l7 140h-7l7 7v7l-7 140z" />
<glyph unicode="&#x201a;" horiz-adv-x="455" />
<glyph unicode="&#x201c;" horiz-adv-x="682" d="M77 1588h179l21 -21v-287l-7 -35h-57l7 -42q57 -47 57 -161l-14 -21l-64 28q-179 90 -179 399l7 140l22 7zM409 1561h179l21 -21v-287l-7 -35h-57l7 -42q57 -47 57 -161l-14 -21l-65 28q-178 90 -178 399l7 140l21 7z" />
<glyph unicode="&#x201d;" horiz-adv-x="682" d="M614 1639l20 -7l7 -140q0 -309 -171 -399l-62 -28l-13 21q0 114 54 161l7 42h-54l-7 35v287l20 21h171zM296 1612l20 -7l7 -140q0 -309 -171 -399l-61 -28l-14 21q0 114 55 161l7 42h-55l-7 35v287l21 21h171z" />
<glyph unicode="&#x201e;" horiz-adv-x="682" />
<glyph unicode="&#x2022;" horiz-adv-x="717" />
<glyph unicode="&#x2026;" horiz-adv-x="2048" />
<glyph unicode="&#x202f;" horiz-adv-x="440" />
<glyph unicode="&#x2039;" horiz-adv-x="682" />
<glyph unicode="&#x203a;" horiz-adv-x="682" />
<glyph unicode="&#x205f;" horiz-adv-x="550" />
<glyph unicode="&#x20ac;" />
<glyph unicode="&#x2122;" horiz-adv-x="2048" />
<glyph unicode="&#xe000;" horiz-adv-x="1380" d="M0 1380h1380v-1380h-1380v1380z" />
<glyph unicode="&#xf001;" horiz-adv-x="1024" />
<glyph unicode="&#xfb01;" horiz-adv-x="1024" />
<glyph unicode="&#xf002;" horiz-adv-x="1024" />
<glyph unicode="&#xfb02;" horiz-adv-x="1024" />
<glyph unicode="&#xfb03;" horiz-adv-x="1593" d="M1172 1721h35l35 -7l42 7l63 -7l21 7l28 -14l14 14l14 -14l28 14l21 -21h14l14 14q42 -9 42 -21v-49l-7 -35l7 -42v-56l-21 -21h-84q-35 0 -35 14l-42 -14h-77l-77 7l-28 -7l-14 21v175zM1249 1406l7 -7l49 7h28l63 -7l70 7h56l21 -21v-427l-7 -133l7 -21l-7 -70v-21 l-14 -21q21 -4 21 -56v-63l-7 -91l7 -98v-126l-21 -35q21 -34 21 -63l-7 -105l7 -77l-21 -14h-56l-56 7l-77 -7h-147l-21 21v462l7 7l-7 7v154l7 84l-7 91l7 91l-7 140v364l14 14h7l42 -7zM1508 1196v-21l14 -14v35h-14zM1473 853l14 -14h7v28h-7zM1256 846l-7 -7v-7l7 -7h7 l7 7v7l-7 7h-7zM1256 769v-14h35l-14 14h-21zM1298 769v-14h21v14h-21zM1487 769l-7 -7v-7l21 -14h7l-7 7v7h14v7zM1487 734v-7h21v7h-21zM1487 699v-7h21v7h-21zM1403 545v-7h14v7h-14zM1501 489l7 -21l14 14v14h-7l-7 -7h-7zM1368 377v-7h21v7h-21zM1193 237v-14h7v14h-7z M1270 237v-21h28v21h-28zM1382 237v-14h14v14h-14zM1473 237v-21h14v21h-14zM1473 62v-14h21v28h-7zM863 1646h56l21 -14l14 14q23 0 28 -119h7v91l-7 7l7 21h28v-63q14 0 14 -21l-45 4v21h7q0 -21 14 -21l52 -32l-14 -21q0 -12 35 -21v35l-66 25v14l21 84l80 -4l14 -14h-7 l7 -7v-7l-7 -7l7 -7v-63l-14 -56l14 -14v-21l-21 -21h-56q-14 0 -14 28h-7q0 -42 -42 -42l-7 -7v-105h42l7 -7l7 7h70q21 0 21 -77v-133l-21 -21h-63v-203l-7 -7l7 -7v-154l-7 -7l7 -7v-42l-7 -28l7 -7v-7l-7 -7v-7l7 -35l-7 -28l7 -7v-21h-7l7 -70v-217l-7 -28l7 -28v-35 l-7 -49l7 -63v-91l-21 -21h-21l-7 7l-7 -7h-287l-21 14v14h7l-7 84v252l7 77l-7 7v7l7 7l-7 49v665h-56l-21 21v189l21 21l7 -7l49 7v70q0 100 35 133q0 77 28 77l7 -7l-7 -7v-14l14 -14l7 7v35l-7 7l7 7q0 21 49 21v14h14l7 -7h7zM793 1611v-7h14v7h-14zM968 1464l7 -35h14 l21 21l-21 35zM814 1296v-14h7v14h-7zM814 1240v-21h14v21h-14zM863 1240v-21l14 -14l7 7v7zM947 1240v-7h14v7h-14zM989 540v-21l14 14l-7 7h-7zM1010 190l14 -14v14h-14zM982 1l-7 -35v-14l14 -14h7v49zM842 -34v-28h21v42h-7zM751 -55l14 -14v14h-14zM294 1646h56l21 -14 l14 14q23 0 28 -119h7v91l-7 7l7 21h28v-63q14 0 14 -21l-45 4v21h7q0 -21 14 -21l52 -32l-14 -21q0 -12 35 -21v35l-66 25v14l21 84l80 -4l14 -14h-7l7 -7v-7l-7 -7l7 -7v-63l-14 -56l14 -14v-21l-21 -21h-56q-14 0 -14 28h-7q0 -42 -42 -42l-7 -7v-105h42l7 -7l7 7h70 q21 0 21 -77v-133l-21 -21h-63v-203l-7 -7l7 -7v-154l-7 -7l7 -7v-42l-7 -28l7 -7v-7l-7 -7v-7l7 -35l-7 -28l7 -7v-21h-7l7 -70v-217l-7 -28l7 -28v-35l-7 -49l7 -63v-91l-21 -21h-21l-7 7l-7 -7h-287l-21 14v14h7l-7 84v252l7 77l-7 7v7l7 7l-7 49v665h-56l-21 21v189 l21 21l7 -7l49 7v70q0 100 35 133q0 77 28 77l7 -7l-7 -7v-14l14 -14l7 7v35l-7 7l7 7q0 21 49 21v14h14l7 -7h7zM224 1611v-7h14v7h-14zM399 1464l7 -35h14l21 21l-21 35zM245 1296v-14h7v14h-7zM245 1240v-21h14v21h-14zM294 1240v-21l14 -14l7 7v7zM378 1240v-7h14v7h-14 zM420 540v-21l14 14l-7 7h-7zM441 190l14 -14v14h-14zM413 1l-7 -35v-14l14 -14h7v49zM273 -34v-28h21v42h-7zM182 -55l14 -14v14h-14z" />
<glyph unicode="&#xfb04;" horiz-adv-x="1593" d="M1188 1637h350l21 -21v-399l-7 -7l7 -7l-7 -35v-7l7 -7v-7h-7l7 -7v-14q0 -35 -28 -35v-14q28 0 28 -21l-14 -21l7 -7v-21l7 -119h-7l7 -7v-7q-5 -84 -21 -84q21 -36 21 -70v-301l-7 -329l7 -196l-21 -14h-336l-21 21v91l14 112l-14 56v777l7 98l-7 70v21l7 35l-7 42v28 l7 56l-7 77v238zM1377 1252v-14h-7l7 -7v-21l-7 -7v-7l21 -14l49 14v7q-37 0 -49 42l-7 7h-7zM1475 1252v-14h14v14h-14zM1230 1210l-14 -42q70 -23 70 -63l-7 -21l7 -7h21l14 49l-21 56l14 14v7l-21 7l-21 -7zM1489 1098v-21h7l14 14l-7 7h-14zM1272 993l7 -7h21v21h-14z M1426 993l7 -7h21v7l-14 14zM1510 797v-14h21v7zM1293 517v-14h14v14h-14zM1349 230v-7l14 -14h7v21h-21zM1314 174v-70h21v35l-7 35h-14zM1363 174l-7 -42l7 -21h14v63h-14zM1496 139l7 -49v-14h7l14 14v21l-7 7v7h7l-7 21h-7l-7 -7h-7zM1265 139l-7 -21l14 -49h21l-14 70 h-14zM1454 139v-35l7 -35h21l-7 49v21h-21zM1230 132l-7 -7v-14l7 -35l14 14v28zM1412 118v-21l14 -14v14h7l-7 21h-14zM863 1646h56l21 -14l14 14q23 0 28 -119h7v91l-7 7l7 21h28v-63q14 0 14 -21l-45 4v21h7q0 -21 14 -21l52 -32l-14 -21q0 -12 35 -21v35l-66 25v14 l21 84l80 -4l14 -14h-7l7 -7v-7l-7 -7l7 -7v-63l-14 -56l14 -14v-21l-21 -21h-56q-14 0 -14 28h-7q0 -42 -42 -42l-7 -7v-105h42l7 -7l7 7h70q21 0 21 -77v-133l-21 -21h-63v-203l-7 -7l7 -7v-154l-7 -7l7 -7v-42l-7 -28l7 -7v-7l-7 -7v-7l7 -35l-7 -28l7 -7v-21h-7l7 -70 v-217l-7 -28l7 -28v-35l-7 -49l7 -63v-91l-21 -21h-21l-7 7l-7 -7h-287l-21 14v14h7l-7 84v252l7 77l-7 7v7l7 7l-7 49v665h-56l-21 21v189l21 21l7 -7l49 7v70q0 100 35 133q0 77 28 77l7 -7l-7 -7v-14l14 -14l7 7v35l-7 7l7 7q0 21 49 21v14h14l7 -7h7zM793 1611v-7h14v7 h-14zM968 1464l7 -35h14l21 21l-21 35zM814 1296v-14h7v14h-7zM814 1240v-21h14v21h-14zM863 1240v-21l14 -14l7 7v7zM947 1240v-7h14v7h-14zM989 540v-21l14 14l-7 7h-7zM1010 190l14 -14v14h-14zM982 1l-7 -35v-14l14 -14h7v49zM842 -34v-28h21v42h-7zM751 -55l14 -14v14 h-14zM294 1646h56l21 -14l14 14q23 0 28 -119h7v91l-7 7l7 21h28v-63q14 0 14 -21l-45 4v21h7q0 -21 14 -21l52 -32l-14 -21q0 -12 35 -21v35l-66 25v14l21 84l80 -4l14 -14h-7l7 -7v-7l-7 -7l7 -7v-63l-14 -56l14 -14v-21l-21 -21h-56q-14 0 -14 28h-7q0 -42 -42 -42l-7 -7 v-105h42l7 -7l7 7h70q21 0 21 -77v-133l-21 -21h-63v-203l-7 -7l7 -7v-154l-7 -7l7 -7v-42l-7 -28l7 -7v-7l-7 -7v-7l7 -35l-7 -28l7 -7v-21h-7l7 -70v-217l-7 -28l7 -28v-35l-7 -49l7 -63v-91l-21 -21h-21l-7 7l-7 -7h-287l-21 14v14h7l-7 84v252l7 77l-7 7v7l7 7l-7 49 v665h-56l-21 21v189l21 21l7 -7l49 7v70q0 100 35 133q0 77 28 77l7 -7l-7 -7v-14l14 -14l7 7v35l-7 7l7 7q0 21 49 21v14h14l7 -7h7zM224 1611v-7h14v7h-14zM399 1464l7 -35h14l21 21l-21 35zM245 1296v-14h7v14h-7zM245 1240v-21h14v21h-14zM294 1240v-21l14 -14l7 7v7z M378 1240v-7h14v7h-14zM420 540v-21l14 14l-7 7h-7zM441 190l14 -14v14h-14zM413 1l-7 -35v-14l14 -14h7v49zM273 -34v-28h21v42h-7zM182 -55l14 -14v14h-14z" />
</font>
</defs>
</svg>
